%TF.GenerationSoftware,KiCad,Pcbnew,6.0.7-f9a2dced07~116~ubuntu22.04.1*%
%TF.CreationDate,2022-08-21T16:12:58+02:00*%
%TF.ProjectId,cpld,63706c64-2e6b-4696-9361-645f70636258,rev?*%
%TF.SameCoordinates,Original*%
%TF.FileFunction,Paste,Top*%
%TF.FilePolarity,Positive*%
%FSLAX46Y46*%
G04 Gerber Fmt 4.6, Leading zero omitted, Abs format (unit mm)*
G04 Created by KiCad (PCBNEW 6.0.7-f9a2dced07~116~ubuntu22.04.1) date 2022-08-21 16:12:58*
%MOMM*%
%LPD*%
G01*
G04 APERTURE LIST*
G04 Aperture macros list*
%AMRoundRect*
0 Rectangle with rounded corners*
0 $1 Rounding radius*
0 $2 $3 $4 $5 $6 $7 $8 $9 X,Y pos of 4 corners*
0 Add a 4 corners polygon primitive as box body*
4,1,4,$2,$3,$4,$5,$6,$7,$8,$9,$2,$3,0*
0 Add four circle primitives for the rounded corners*
1,1,$1+$1,$2,$3*
1,1,$1+$1,$4,$5*
1,1,$1+$1,$6,$7*
1,1,$1+$1,$8,$9*
0 Add four rect primitives between the rounded corners*
20,1,$1+$1,$2,$3,$4,$5,0*
20,1,$1+$1,$4,$5,$6,$7,0*
20,1,$1+$1,$6,$7,$8,$9,0*
20,1,$1+$1,$8,$9,$2,$3,0*%
G04 Aperture macros list end*
%ADD10RoundRect,0.200000X-0.200000X-0.275000X0.200000X-0.275000X0.200000X0.275000X-0.200000X0.275000X0*%
%ADD11RoundRect,0.225000X0.250000X-0.225000X0.250000X0.225000X-0.250000X0.225000X-0.250000X-0.225000X0*%
%ADD12RoundRect,0.200000X-0.275000X0.200000X-0.275000X-0.200000X0.275000X-0.200000X0.275000X0.200000X0*%
%ADD13RoundRect,0.200000X0.275000X-0.200000X0.275000X0.200000X-0.275000X0.200000X-0.275000X-0.200000X0*%
%ADD14RoundRect,0.200000X0.200000X0.275000X-0.200000X0.275000X-0.200000X-0.275000X0.200000X-0.275000X0*%
%ADD15R,3.000000X1.000000*%
%ADD16RoundRect,0.225000X-0.250000X0.225000X-0.250000X-0.225000X0.250000X-0.225000X0.250000X0.225000X0*%
%ADD17RoundRect,0.225000X0.225000X0.250000X-0.225000X0.250000X-0.225000X-0.250000X0.225000X-0.250000X0*%
%ADD18O,1.550000X0.890000*%
%ADD19O,0.950000X1.250000*%
%ADD20R,1.350000X0.400000*%
%ADD21R,1.550000X1.500000*%
%ADD22R,1.550000X1.200000*%
%ADD23R,2.000000X1.500000*%
%ADD24R,2.000000X3.800000*%
%ADD25RoundRect,0.225000X-0.225000X-0.250000X0.225000X-0.250000X0.225000X0.250000X-0.225000X0.250000X0*%
G04 APERTURE END LIST*
D10*
%TO.C,R3*%
X134075000Y-69500000D03*
X135725000Y-69500000D03*
%TD*%
D11*
%TO.C,C7*%
X139600000Y-82175000D03*
X139600000Y-80625000D03*
%TD*%
D12*
%TO.C,R4*%
X147300000Y-64075000D03*
X147300000Y-65725000D03*
%TD*%
D10*
%TO.C,R7*%
X124275000Y-87900000D03*
X125925000Y-87900000D03*
%TD*%
D13*
%TO.C,R2*%
X147300000Y-69125000D03*
X147300000Y-67475000D03*
%TD*%
D11*
%TO.C,C3*%
X122915000Y-76375000D03*
X122915000Y-74825000D03*
%TD*%
D14*
%TO.C,R5*%
X135725000Y-67700000D03*
X134075000Y-67700000D03*
%TD*%
D13*
%TO.C,R8*%
X147100000Y-84325000D03*
X147100000Y-82675000D03*
%TD*%
D11*
%TO.C,C6*%
X139800000Y-92275000D03*
X139800000Y-90725000D03*
%TD*%
D14*
%TO.C,R6*%
X104825000Y-87900000D03*
X103175000Y-87900000D03*
%TD*%
D15*
%TO.C,J4*%
X138580000Y-74180000D03*
X143620000Y-74180000D03*
X138580000Y-71640000D03*
X143620000Y-71640000D03*
X138580000Y-69100000D03*
X143620000Y-69100000D03*
X138580000Y-66560000D03*
X143620000Y-66560000D03*
X138580000Y-64020000D03*
X143620000Y-64020000D03*
%TD*%
D16*
%TO.C,C1*%
X95880000Y-79425000D03*
X95880000Y-80975000D03*
%TD*%
D17*
%TO.C,C8*%
X146900000Y-86800000D03*
X145350000Y-86800000D03*
%TD*%
D18*
%TO.C,J1*%
X89750000Y-85800000D03*
X89750000Y-78800000D03*
D19*
X92450000Y-79800000D03*
X92450000Y-84800000D03*
D20*
X92450000Y-81000000D03*
X92450000Y-81650000D03*
X92450000Y-82300000D03*
X92450000Y-82950000D03*
X92450000Y-83600000D03*
D21*
X89750000Y-83300000D03*
X89750000Y-81300000D03*
D22*
X89750000Y-79400000D03*
X89750000Y-85200000D03*
%TD*%
D11*
%TO.C,C4*%
X148700000Y-82675000D03*
X148700000Y-81125000D03*
%TD*%
D23*
%TO.C,U1*%
X113800000Y-76300000D03*
X113800000Y-78600000D03*
D24*
X120100000Y-78600000D03*
D23*
X113800000Y-80900000D03*
%TD*%
D25*
%TO.C,C5*%
X135625000Y-84800000D03*
X137175000Y-84800000D03*
%TD*%
M02*
