M48
; DRILL file {KiCad 6.0.7-f9a2dced07~116~ubuntu22.04.1} date nie, 21 sie 2022, 16:20:11
; FORMAT={-:-/ absolute / metric / decimal}
; #@! TF.CreationDate,2022-08-21T16:20:11+02:00
; #@! TF.GenerationSoftware,Kicad,Pcbnew,6.0.7-f9a2dced07~116~ubuntu22.04.1
; #@! TF.FileFunction,Plated,1,2,PTH
FMAT,2
METRIC
; #@! TA.AperFunction,Plated,PTH,ViaDrill
T1C0.400
; #@! TA.AperFunction,Plated,PTH,ViaDrill
T2C0.500
; #@! TA.AperFunction,Plated,PTH,ComponentDrill
T3C0.500
; #@! TA.AperFunction,Plated,PTH,ComponentDrill
T4C0.550
; #@! TA.AperFunction,Plated,PTH,ComponentDrill
T5C0.800
; #@! TA.AperFunction,Plated,PTH,ComponentDrill
T6C0.900
; #@! TA.AperFunction,Plated,PTH,ComponentDrill
T7C1.000
; #@! TA.AperFunction,Plated,PTH,ComponentDrill
T8C3.200
%
G90
G05
T1
X130.3Y-97.0
X132.9Y-69.5
X134.0Y-87.499
X137.9Y-83.6
X138.6Y-98.9
X139.5Y-89.1
X141.1Y-82.5
X141.3Y-93.4
X143.675Y-95.825
X144.0Y-86.8
X145.3Y-84.4
X149.0Y-68.9
X161.8Y-81.0
X162.5Y-89.8
X166.5Y-97.4
X174.0Y-91.3
X176.7Y-99.0
X182.3Y-83.2
X182.4Y-89.2
T2
X90.2Y-73.5
X91.2Y-68.6
X93.9Y-76.8
X94.5Y-89.5
X97.4Y-84.7
X98.6Y-60.6
X102.4Y-92.3
X103.8Y-80.0
X104.0Y-83.7
X108.9Y-97.1
X111.6Y-84.0
X115.915Y-85.4
X116.086Y-62.467
X116.1Y-92.5
X122.2Y-84.5
X124.609Y-96.462
X127.9Y-82.9
X128.6Y-90.6
X131.0Y-61.5
X133.5Y-83.3
X134.0Y-78.8
X134.4Y-93.9
X135.3Y-63.9
X135.4Y-71.4
X139.5Y-78.2
X141.1Y-66.9
X141.5Y-61.3
X146.7Y-80.7
X146.9Y-78.6
X146.9Y-94.9
X146.9Y-97.1
X148.9Y-86.1
X149.9Y-91.7
X150.6Y-96.7
X152.8Y-95.2
X153.478Y-61.992
X154.0Y-87.9
X154.8Y-96.5
X157.8Y-91.5
X159.3Y-97.1
X164.6Y-95.1
X168.1Y-92.2
X169.3Y-62.3
X172.3Y-96.7
X172.6Y-86.3
X177.3Y-93.8
X183.3Y-96.8
X183.7Y-74.5
X184.2Y-62.1
X190.0Y-91.8
X190.8Y-77.0
T5
X155.8Y-82.892
X155.8Y-85.392
X155.8Y-87.892
X159.0Y-82.892
X159.0Y-85.392
X159.0Y-87.892
X165.8Y-82.892
X165.8Y-85.392
X165.8Y-87.892
X169.0Y-82.892
X169.0Y-85.392
X169.0Y-87.892
X175.8Y-82.892
X175.8Y-85.392
X175.8Y-87.892
X179.0Y-82.892
X179.0Y-85.392
X179.0Y-87.892
X185.8Y-82.892
X185.8Y-85.392
X185.8Y-87.892
X189.0Y-82.892
X189.0Y-85.392
X189.0Y-87.892
T6
X107.925Y-87.9
X110.465Y-87.9
X118.26Y-87.9
X120.8Y-87.9
T7
X93.35Y-67.26
X93.35Y-69.8
X95.89Y-67.26
X95.89Y-69.8
X98.43Y-67.26
X98.43Y-69.8
X100.97Y-67.26
X100.97Y-69.8
X103.51Y-67.26
X103.51Y-69.8
X106.05Y-67.26
X106.05Y-69.8
X108.59Y-67.26
X108.59Y-69.8
X111.13Y-67.26
X111.13Y-69.8
X113.67Y-67.26
X113.67Y-69.8
X116.21Y-67.26
X116.21Y-69.8
X118.75Y-67.26
X118.75Y-69.8
X121.29Y-67.26
X121.29Y-69.8
X123.83Y-67.26
X123.83Y-69.8
X126.37Y-67.26
X126.37Y-69.8
X128.91Y-67.26
X128.91Y-69.8
X131.45Y-67.26
X131.45Y-69.8
X150.8Y-67.26
X150.8Y-69.8
X153.34Y-67.26
X153.34Y-69.8
X155.88Y-67.26
X155.88Y-69.8
X158.42Y-67.26
X158.42Y-69.8
X160.96Y-67.26
X160.96Y-69.8
X163.5Y-67.26
X163.5Y-69.8
X166.04Y-67.26
X166.04Y-69.8
X168.58Y-67.26
X168.58Y-69.8
X171.12Y-67.26
X171.12Y-69.8
X173.66Y-67.26
X173.66Y-69.8
X176.2Y-67.26
X176.2Y-69.8
X178.74Y-67.26
X178.74Y-69.8
X181.28Y-67.26
X181.28Y-69.8
X183.82Y-67.26
X183.82Y-69.8
X186.36Y-67.26
X186.36Y-69.8
X188.9Y-67.26
X188.9Y-69.8
T8
X93.6Y-95.1
X187.6Y-95.7
T3
X90.075Y-78.8G85X89.425Y-78.8
G05
X90.075Y-85.8G85X89.425Y-85.8
G05
T4
X92.45Y-79.65G85X92.45Y-79.95
G05
X92.45Y-84.65G85X92.45Y-84.95
G05
T0
M30
