%TF.GenerationSoftware,KiCad,Pcbnew,6.0.7-f9a2dced07~116~ubuntu22.04.1*%
%TF.CreationDate,2022-08-21T16:12:58+02:00*%
%TF.ProjectId,cpld,63706c64-2e6b-4696-9361-645f70636258,rev?*%
%TF.SameCoordinates,Original*%
%TF.FileFunction,Copper,L2,Bot*%
%TF.FilePolarity,Positive*%
%FSLAX46Y46*%
G04 Gerber Fmt 4.6, Leading zero omitted, Abs format (unit mm)*
G04 Created by KiCad (PCBNEW 6.0.7-f9a2dced07~116~ubuntu22.04.1) date 2022-08-21 16:12:58*
%MOMM*%
%LPD*%
G01*
G04 APERTURE LIST*
G04 Aperture macros list*
%AMRoundRect*
0 Rectangle with rounded corners*
0 $1 Rounding radius*
0 $2 $3 $4 $5 $6 $7 $8 $9 X,Y pos of 4 corners*
0 Add a 4 corners polygon primitive as box body*
4,1,4,$2,$3,$4,$5,$6,$7,$8,$9,$2,$3,0*
0 Add four circle primitives for the rounded corners*
1,1,$1+$1,$2,$3*
1,1,$1+$1,$4,$5*
1,1,$1+$1,$6,$7*
1,1,$1+$1,$8,$9*
0 Add four rect primitives between the rounded corners*
20,1,$1+$1,$2,$3,$4,$5,0*
20,1,$1+$1,$4,$5,$6,$7,0*
20,1,$1+$1,$6,$7,$8,$9,0*
20,1,$1+$1,$8,$9,$2,$3,0*%
G04 Aperture macros list end*
%TA.AperFunction,ComponentPad*%
%ADD10R,1.600000X1.600000*%
%TD*%
%TA.AperFunction,ComponentPad*%
%ADD11C,1.600000*%
%TD*%
%TA.AperFunction,ComponentPad*%
%ADD12C,3.600000*%
%TD*%
%TA.AperFunction,ConnectorPad*%
%ADD13C,5.600000*%
%TD*%
%TA.AperFunction,ComponentPad*%
%ADD14R,1.800000X1.800000*%
%TD*%
%TA.AperFunction,ComponentPad*%
%ADD15C,1.800000*%
%TD*%
%TA.AperFunction,ComponentPad*%
%ADD16O,1.550000X0.890000*%
%TD*%
%TA.AperFunction,ComponentPad*%
%ADD17O,0.950000X1.250000*%
%TD*%
%TA.AperFunction,SMDPad,CuDef*%
%ADD18R,1.475000X0.600000*%
%TD*%
%TA.AperFunction,SMDPad,CuDef*%
%ADD19R,0.600000X1.475000*%
%TD*%
%TA.AperFunction,ComponentPad*%
%ADD20R,1.700000X1.700000*%
%TD*%
%TA.AperFunction,ComponentPad*%
%ADD21O,1.700000X1.700000*%
%TD*%
%TA.AperFunction,SMDPad,CuDef*%
%ADD22R,1.090000X0.850000*%
%TD*%
%TA.AperFunction,SMDPad,CuDef*%
%ADD23RoundRect,0.225000X-0.250000X0.225000X-0.250000X-0.225000X0.250000X-0.225000X0.250000X0.225000X0*%
%TD*%
%TA.AperFunction,ViaPad*%
%ADD24C,1.000000*%
%TD*%
%TA.AperFunction,ViaPad*%
%ADD25C,0.800000*%
%TD*%
%TA.AperFunction,Conductor*%
%ADD26C,0.200000*%
%TD*%
%TA.AperFunction,Conductor*%
%ADD27C,0.250000*%
%TD*%
%TA.AperFunction,Conductor*%
%ADD28C,0.500000*%
%TD*%
G04 APERTURE END LIST*
D10*
%TO.P,SW1,1,A*%
%TO.N,unconnected-(SW1-Pad1)*%
X179000000Y-82892500D03*
D11*
%TO.P,SW1,2,B*%
%TO.N,GND*%
X179000000Y-85392500D03*
%TO.P,SW1,3,C*%
%TO.N,/SW_B1*%
X179000000Y-87892500D03*
%TO.P,SW1,4*%
%TO.N,N/C*%
X175800000Y-82892500D03*
%TO.P,SW1,5*%
X175800000Y-85392500D03*
%TO.P,SW1,6*%
X175800000Y-87892500D03*
%TD*%
D10*
%TO.P,SW3,1,A*%
%TO.N,unconnected-(SW3-Pad1)*%
X159000000Y-82892500D03*
D11*
%TO.P,SW3,2,B*%
%TO.N,GND*%
X159000000Y-85392500D03*
%TO.P,SW3,3,C*%
%TO.N,/SW_B3*%
X159000000Y-87892500D03*
%TO.P,SW3,4*%
%TO.N,N/C*%
X155800000Y-82892500D03*
%TO.P,SW3,5*%
X155800000Y-85392500D03*
%TO.P,SW3,6*%
X155800000Y-87892500D03*
%TD*%
D10*
%TO.P,SW2,1,A*%
%TO.N,unconnected-(SW2-Pad1)*%
X169000000Y-82892500D03*
D11*
%TO.P,SW2,2,B*%
%TO.N,GND*%
X169000000Y-85392500D03*
%TO.P,SW2,3,C*%
%TO.N,/SW_B2*%
X169000000Y-87892500D03*
%TO.P,SW2,4*%
%TO.N,N/C*%
X165800000Y-82892500D03*
%TO.P,SW2,5*%
X165800000Y-85392500D03*
%TO.P,SW2,6*%
X165800000Y-87892500D03*
%TD*%
D12*
%TO.P,H2,1,1*%
%TO.N,GND*%
X187600000Y-95700000D03*
D13*
X187600000Y-95700000D03*
%TD*%
D10*
%TO.P,SW0,1,A*%
%TO.N,unconnected-(SW0-Pad1)*%
X189000000Y-82892500D03*
D11*
%TO.P,SW0,2,B*%
%TO.N,GND*%
X189000000Y-85392500D03*
%TO.P,SW0,3,C*%
%TO.N,/SW_B0*%
X189000000Y-87892500D03*
%TO.P,SW0,4*%
%TO.N,N/C*%
X185800000Y-82892500D03*
%TO.P,SW0,5*%
X185800000Y-85392500D03*
%TO.P,SW0,6*%
X185800000Y-87892500D03*
%TD*%
D14*
%TO.P,D2,1,K*%
%TO.N,Net-(D2-Pad1)*%
X120800000Y-87900000D03*
D15*
%TO.P,D2,2,A*%
%TO.N,+3.3V*%
X118260000Y-87900000D03*
%TD*%
D14*
%TO.P,D1,1,K*%
%TO.N,Net-(D1-Pad1)*%
X107925000Y-87900000D03*
D15*
%TO.P,D1,2,A*%
%TO.N,+5V*%
X110465000Y-87900000D03*
%TD*%
D12*
%TO.P,H4,1,1*%
%TO.N,GND*%
X93600000Y-95100000D03*
D13*
X93600000Y-95100000D03*
%TD*%
D16*
%TO.P,J1,6,Shield*%
%TO.N,GND*%
X89750000Y-78800000D03*
D17*
X92450000Y-84800000D03*
D16*
X89750000Y-85800000D03*
D17*
X92450000Y-79800000D03*
%TD*%
D18*
%TO.P,IC2,1,I/O/TDI*%
%TO.N,/DI0{slash}TDI*%
X135362000Y-90000000D03*
%TO.P,IC2,2,I/O_1*%
%TO.N,/DI1*%
X135362000Y-89200000D03*
%TO.P,IC2,3,I/O_2*%
%TO.N,/DI2*%
X135362000Y-88400000D03*
%TO.P,IC2,4,GND_1*%
%TO.N,GND*%
X135362000Y-87600000D03*
%TO.P,IC2,5,I/O_3*%
%TO.N,/DI3*%
X135362000Y-86800000D03*
%TO.P,IC2,6,I/O_4*%
%TO.N,/DI4*%
X135362000Y-86000000D03*
%TO.P,IC2,7,I/O/TMS*%
%TO.N,/DI5{slash}TMS*%
X135362000Y-85200000D03*
%TO.P,IC2,8,I/O_5*%
%TO.N,/DI6*%
X135362000Y-84400000D03*
%TO.P,IC2,9,VCC_1*%
%TO.N,+3.3V*%
X135362000Y-83600000D03*
%TO.P,IC2,10,I/O_6*%
%TO.N,/DI7*%
X135362000Y-82800000D03*
%TO.P,IC2,11,GND_2*%
%TO.N,GND*%
X135362000Y-82000000D03*
D19*
%TO.P,IC2,12,I/O_7*%
%TO.N,/DI8*%
X137100000Y-80262000D03*
%TO.P,IC2,13,I/O_8*%
%TO.N,/DI9*%
X137900000Y-80262000D03*
%TO.P,IC2,14,I/O_9*%
%TO.N,/DI10*%
X138700000Y-80262000D03*
%TO.P,IC2,15,I/O_10*%
%TO.N,/DI11*%
X139500000Y-80262000D03*
%TO.P,IC2,16,GND_3*%
%TO.N,GND*%
X140300000Y-80262000D03*
%TO.P,IC2,17,VCC_2*%
%TO.N,+3.3V*%
X141100000Y-80262000D03*
%TO.P,IC2,18,I/O_11*%
%TO.N,/DI12*%
X141900000Y-80262000D03*
%TO.P,IC2,19,I/O_12*%
%TO.N,/DO0*%
X142700000Y-80262000D03*
%TO.P,IC2,20,I/O_13*%
%TO.N,/DO1*%
X143500000Y-80262000D03*
%TO.P,IC2,21,I/O_14*%
%TO.N,/DO2*%
X144300000Y-80262000D03*
%TO.P,IC2,22,I/O_15*%
%TO.N,/DO3*%
X145100000Y-80262000D03*
D18*
%TO.P,IC2,23,I/O_16*%
%TO.N,/DO4*%
X146838000Y-82000000D03*
%TO.P,IC2,24,GND_4*%
%TO.N,GND*%
X146838000Y-82800000D03*
%TO.P,IC2,25,I/O_17*%
%TO.N,/DO5*%
X146838000Y-83600000D03*
%TO.P,IC2,26,I/O/TCK*%
%TO.N,/DO6{slash}TCK*%
X146838000Y-84400000D03*
%TO.P,IC2,27,I/O_18*%
%TO.N,/DO7*%
X146838000Y-85200000D03*
%TO.P,IC2,28,I/O_19*%
%TO.N,/DO8*%
X146838000Y-86000000D03*
%TO.P,IC2,29,VCC_3*%
%TO.N,+3.3V*%
X146838000Y-86800000D03*
%TO.P,IC2,30,GND_5*%
%TO.N,GND*%
X146838000Y-87600000D03*
%TO.P,IC2,31,I/O_20*%
%TO.N,/DO9*%
X146838000Y-88400000D03*
%TO.P,IC2,32,I/O/TDO*%
%TO.N,/DO10{slash}TDO*%
X146838000Y-89200000D03*
%TO.P,IC2,33,I/O_21*%
%TO.N,/DO11*%
X146838000Y-90000000D03*
D19*
%TO.P,IC2,34,I/O_22*%
%TO.N,/DO12*%
X145100000Y-91738000D03*
%TO.P,IC2,35,I/O_23*%
%TO.N,/SW_B3*%
X144300000Y-91738000D03*
%TO.P,IC2,36,GND_6*%
%TO.N,GND*%
X143500000Y-91738000D03*
%TO.P,IC2,37,INPUT/GCLK1*%
%TO.N,Net-(IC2-Pad37)*%
X142700000Y-91738000D03*
%TO.P,IC2,38,INPUT/OE1*%
%TO.N,unconnected-(IC2-Pad38)*%
X141900000Y-91738000D03*
%TO.P,IC2,39,INPUT/GCLRN*%
%TO.N,unconnected-(IC2-Pad39)*%
X141100000Y-91738000D03*
%TO.P,IC2,40,INPUT/OE2/GCLK2*%
%TO.N,unconnected-(IC2-Pad40)*%
X140300000Y-91738000D03*
%TO.P,IC2,41,VCC_4*%
%TO.N,+3.3V*%
X139500000Y-91738000D03*
%TO.P,IC2,42,I/O_24*%
%TO.N,/SW_B2*%
X138700000Y-91738000D03*
%TO.P,IC2,43,I/O_25*%
%TO.N,/SW_B1*%
X137900000Y-91738000D03*
%TO.P,IC2,44,I/O_26*%
%TO.N,/SW_B0*%
X137100000Y-91738000D03*
%TD*%
D20*
%TO.P,J2,1,Pin_1*%
%TO.N,/DI0{slash}TDI*%
X93350000Y-69800000D03*
D21*
%TO.P,J2,2,Pin_2*%
%TO.N,GND*%
X93350000Y-67260000D03*
%TO.P,J2,3,Pin_3*%
%TO.N,/DI1*%
X95890000Y-69800000D03*
%TO.P,J2,4,Pin_4*%
%TO.N,GND*%
X95890000Y-67260000D03*
%TO.P,J2,5,Pin_5*%
%TO.N,/DI2*%
X98430000Y-69800000D03*
%TO.P,J2,6,Pin_6*%
%TO.N,GND*%
X98430000Y-67260000D03*
%TO.P,J2,7,Pin_7*%
%TO.N,/DI3*%
X100970000Y-69800000D03*
%TO.P,J2,8,Pin_8*%
%TO.N,GND*%
X100970000Y-67260000D03*
%TO.P,J2,9,Pin_9*%
%TO.N,/DI4*%
X103510000Y-69800000D03*
%TO.P,J2,10,Pin_10*%
%TO.N,GND*%
X103510000Y-67260000D03*
%TO.P,J2,11,Pin_11*%
%TO.N,/DI5{slash}TMS*%
X106050000Y-69800000D03*
%TO.P,J2,12,Pin_12*%
%TO.N,GND*%
X106050000Y-67260000D03*
%TO.P,J2,13,Pin_13*%
%TO.N,/DI6*%
X108590000Y-69800000D03*
%TO.P,J2,14,Pin_14*%
%TO.N,GND*%
X108590000Y-67260000D03*
%TO.P,J2,15,Pin_15*%
%TO.N,/DI7*%
X111130000Y-69800000D03*
%TO.P,J2,16,Pin_16*%
%TO.N,GND*%
X111130000Y-67260000D03*
%TO.P,J2,17,Pin_17*%
%TO.N,/DI8*%
X113670000Y-69800000D03*
%TO.P,J2,18,Pin_18*%
%TO.N,GND*%
X113670000Y-67260000D03*
%TO.P,J2,19,Pin_19*%
%TO.N,/DI9*%
X116210000Y-69800000D03*
%TO.P,J2,20,Pin_20*%
%TO.N,GND*%
X116210000Y-67260000D03*
%TO.P,J2,21,Pin_21*%
%TO.N,/DI10*%
X118750000Y-69800000D03*
%TO.P,J2,22,Pin_22*%
%TO.N,GND*%
X118750000Y-67260000D03*
%TO.P,J2,23,Pin_23*%
%TO.N,/DI11*%
X121290000Y-69800000D03*
%TO.P,J2,24,Pin_24*%
%TO.N,GND*%
X121290000Y-67260000D03*
%TO.P,J2,25,Pin_25*%
%TO.N,/DI12*%
X123830000Y-69800000D03*
%TO.P,J2,26,Pin_26*%
%TO.N,GND*%
X123830000Y-67260000D03*
%TO.P,J2,27,Pin_27*%
%TO.N,unconnected-(J2-Pad27)*%
X126370000Y-69800000D03*
%TO.P,J2,28,Pin_28*%
%TO.N,GND*%
X126370000Y-67260000D03*
%TO.P,J2,29,Pin_29*%
%TO.N,unconnected-(J2-Pad29)*%
X128910000Y-69800000D03*
%TO.P,J2,30,Pin_30*%
%TO.N,GND*%
X128910000Y-67260000D03*
%TO.P,J2,31,Pin_31*%
%TO.N,unconnected-(J2-Pad31)*%
X131450000Y-69800000D03*
%TO.P,J2,32,Pin_32*%
%TO.N,GND*%
X131450000Y-67260000D03*
%TD*%
D22*
%TO.P,Y1,1,VCONT*%
%TO.N,unconnected-(Y1-Pad1)*%
X140905000Y-97347500D03*
%TO.P,Y1,2,GND*%
%TO.N,GND*%
X140905000Y-94617500D03*
%TO.P,Y1,3,OUTPUT*%
%TO.N,Net-(IC2-Pad37)*%
X142695000Y-94617500D03*
%TO.P,Y1,4,VDD*%
%TO.N,+3.3V*%
X142695000Y-97347500D03*
%TD*%
D20*
%TO.P,J3,1,Pin_1*%
%TO.N,/DO0*%
X150800000Y-69800000D03*
D21*
%TO.P,J3,2,Pin_2*%
%TO.N,GND*%
X150800000Y-67260000D03*
%TO.P,J3,3,Pin_3*%
%TO.N,/DO1*%
X153340000Y-69800000D03*
%TO.P,J3,4,Pin_4*%
%TO.N,GND*%
X153340000Y-67260000D03*
%TO.P,J3,5,Pin_5*%
%TO.N,/DO2*%
X155880000Y-69800000D03*
%TO.P,J3,6,Pin_6*%
%TO.N,GND*%
X155880000Y-67260000D03*
%TO.P,J3,7,Pin_7*%
%TO.N,/DO3*%
X158420000Y-69800000D03*
%TO.P,J3,8,Pin_8*%
%TO.N,GND*%
X158420000Y-67260000D03*
%TO.P,J3,9,Pin_9*%
%TO.N,/DO4*%
X160960000Y-69800000D03*
%TO.P,J3,10,Pin_10*%
%TO.N,GND*%
X160960000Y-67260000D03*
%TO.P,J3,11,Pin_11*%
%TO.N,/DO5*%
X163500000Y-69800000D03*
%TO.P,J3,12,Pin_12*%
%TO.N,GND*%
X163500000Y-67260000D03*
%TO.P,J3,13,Pin_13*%
%TO.N,/DO6{slash}TCK*%
X166040000Y-69800000D03*
%TO.P,J3,14,Pin_14*%
%TO.N,GND*%
X166040000Y-67260000D03*
%TO.P,J3,15,Pin_15*%
%TO.N,/DO7*%
X168580000Y-69800000D03*
%TO.P,J3,16,Pin_16*%
%TO.N,GND*%
X168580000Y-67260000D03*
%TO.P,J3,17,Pin_17*%
%TO.N,/DO8*%
X171120000Y-69800000D03*
%TO.P,J3,18,Pin_18*%
%TO.N,GND*%
X171120000Y-67260000D03*
%TO.P,J3,19,Pin_19*%
%TO.N,/DO9*%
X173660000Y-69800000D03*
%TO.P,J3,20,Pin_20*%
%TO.N,GND*%
X173660000Y-67260000D03*
%TO.P,J3,21,Pin_21*%
%TO.N,/DO10{slash}TDO*%
X176200000Y-69800000D03*
%TO.P,J3,22,Pin_22*%
%TO.N,GND*%
X176200000Y-67260000D03*
%TO.P,J3,23,Pin_23*%
%TO.N,/DO11*%
X178740000Y-69800000D03*
%TO.P,J3,24,Pin_24*%
%TO.N,GND*%
X178740000Y-67260000D03*
%TO.P,J3,25,Pin_25*%
%TO.N,/DO12*%
X181280000Y-69800000D03*
%TO.P,J3,26,Pin_26*%
%TO.N,GND*%
X181280000Y-67260000D03*
%TO.P,J3,27,Pin_27*%
%TO.N,unconnected-(J3-Pad27)*%
X183820000Y-69800000D03*
%TO.P,J3,28,Pin_28*%
%TO.N,GND*%
X183820000Y-67260000D03*
%TO.P,J3,29,Pin_29*%
%TO.N,unconnected-(J3-Pad29)*%
X186360000Y-69800000D03*
%TO.P,J3,30,Pin_30*%
%TO.N,GND*%
X186360000Y-67260000D03*
%TO.P,J3,31,Pin_31*%
%TO.N,unconnected-(J3-Pad31)*%
X188900000Y-69800000D03*
%TO.P,J3,32,Pin_32*%
%TO.N,GND*%
X188900000Y-67260000D03*
%TD*%
D23*
%TO.P,C9,1*%
%TO.N,GND*%
X145100000Y-95825000D03*
%TO.P,C9,2*%
%TO.N,+3.3V*%
X145100000Y-97375000D03*
%TD*%
D24*
%TO.N,GND*%
X128600000Y-90600000D03*
X102400000Y-92300000D03*
X164600000Y-95100000D03*
X134400000Y-93900000D03*
D25*
X166500000Y-97400000D03*
D24*
X135400000Y-71400000D03*
X190800000Y-77000000D03*
X135300000Y-63900000D03*
X183300000Y-96800000D03*
D25*
X182400000Y-89200000D03*
D24*
X131000000Y-61500000D03*
X103800000Y-80000000D03*
D25*
X134000000Y-87499500D03*
D24*
X139500000Y-78200000D03*
X157800000Y-91500000D03*
X94500000Y-89500000D03*
X159300000Y-97100000D03*
X154800000Y-96500000D03*
X115915000Y-85400000D03*
X104000000Y-83700000D03*
X91200000Y-68600000D03*
X97400000Y-84700000D03*
X150600000Y-96700000D03*
X146900000Y-78600000D03*
X190000000Y-91800000D03*
X146900000Y-97100000D03*
X133500000Y-83300000D03*
X116100000Y-92500000D03*
X98600000Y-60600000D03*
D25*
X162500000Y-89800000D03*
D24*
X116085511Y-62467280D03*
D25*
X174000000Y-91300000D03*
X143675000Y-95825000D03*
D24*
X183700000Y-74500000D03*
X172600000Y-86300000D03*
X93900000Y-76800000D03*
X90200000Y-73500000D03*
X127900000Y-82900000D03*
X149900000Y-91700000D03*
X146900000Y-94900000D03*
X141500000Y-61300000D03*
X152800000Y-95200000D03*
X154000000Y-87900000D03*
D25*
X138600000Y-98900000D03*
X161800000Y-81000000D03*
D24*
X146700000Y-80700000D03*
X172300000Y-96700000D03*
X177300000Y-93800000D03*
X108900000Y-97100000D03*
X141100000Y-66900000D03*
X169300000Y-62300000D03*
D25*
X182300000Y-83200000D03*
X130300000Y-97000000D03*
D24*
X134000000Y-78800000D03*
X124609432Y-96461644D03*
D25*
X141300000Y-93400000D03*
X176700000Y-99000000D03*
D24*
X122200000Y-84500000D03*
X148900000Y-86100000D03*
X153477728Y-61991895D03*
X168100000Y-92200000D03*
X111600000Y-84000000D03*
X184200000Y-62100000D03*
D25*
%TO.N,+3.3V*%
X144000000Y-86800000D03*
X137900000Y-83600000D03*
X139500000Y-89100000D03*
X141100000Y-82500000D03*
%TO.N,/DI5{slash}TMS*%
X132900000Y-69500000D03*
%TO.N,/DO6{slash}TCK*%
X149000000Y-68900000D03*
X145300000Y-84400000D03*
%TD*%
D26*
%TO.N,/DO6{slash}TCK*%
X164840000Y-68600000D02*
X166040000Y-69800000D01*
%TO.N,/DO12*%
X145100000Y-91738000D02*
X145100000Y-90900000D01*
X145100000Y-90900000D02*
X145400000Y-90600000D01*
X145400000Y-90600000D02*
X147826540Y-90600000D01*
X147826540Y-90600000D02*
X151300000Y-87126540D01*
X151300000Y-87126540D02*
X151300000Y-79200000D01*
X151300000Y-79200000D02*
X151622064Y-78877936D01*
X151622064Y-78877936D02*
X175322064Y-78877936D01*
X175322064Y-78877936D02*
X181280000Y-72920000D01*
X181280000Y-72920000D02*
X181280000Y-69800000D01*
D27*
%TO.N,/DO11*%
X178740000Y-72960000D02*
X178740000Y-69800000D01*
%TO.N,/DO10{slash}TDO*%
X146838000Y-89200000D02*
X147825500Y-89200000D01*
X150425000Y-78400000D02*
X150822064Y-78002936D01*
X147825500Y-89200000D02*
X150425000Y-86600500D01*
X176200000Y-72900000D02*
X176200000Y-69800000D01*
X150425000Y-86600500D02*
X150425000Y-78400000D01*
X150822064Y-78002936D02*
X171097064Y-78002936D01*
X171097064Y-78002936D02*
X176200000Y-72900000D01*
D26*
%TO.N,/DO9*%
X146838000Y-88400000D02*
X147775500Y-88400000D01*
X147775500Y-88400000D02*
X150000000Y-86175500D01*
X150000000Y-86175500D02*
X150000000Y-78100000D01*
X150000000Y-78100000D02*
X150522064Y-77577936D01*
X150522064Y-77577936D02*
X169022064Y-77577936D01*
X169022064Y-77577936D02*
X173660000Y-72940000D01*
X173660000Y-72940000D02*
X173660000Y-69800000D01*
%TO.N,/DO8*%
X146838000Y-86000000D02*
X147775500Y-86000000D01*
X147775500Y-86000000D02*
X149600000Y-84175500D01*
X149600000Y-77600000D02*
X150022064Y-77177936D01*
X149600000Y-84175500D02*
X149600000Y-77600000D01*
X150022064Y-77177936D02*
X166822064Y-77177936D01*
X166822064Y-77177936D02*
X171120000Y-72880000D01*
X171120000Y-72880000D02*
X171120000Y-69800000D01*
%TO.N,/DO7*%
X146838000Y-85200000D02*
X147775500Y-85200000D01*
X147775500Y-85200000D02*
X149200000Y-83775500D01*
X149200000Y-83775500D02*
X149200000Y-77000000D01*
X149200000Y-77000000D02*
X149422064Y-76777936D01*
X149422064Y-76777936D02*
X164722064Y-76777936D01*
X164722064Y-76777936D02*
X168580000Y-72920000D01*
X168580000Y-72920000D02*
X168580000Y-69800000D01*
%TO.N,/DO6{slash}TCK*%
X166040000Y-72960000D02*
X166040000Y-69800000D01*
%TO.N,/DO5*%
X146838000Y-83600000D02*
X147800000Y-83600000D01*
X147800000Y-83600000D02*
X148400000Y-83000000D01*
X148400000Y-83000000D02*
X148400000Y-76643622D01*
X148400000Y-76643622D02*
X149065686Y-75977936D01*
X149065686Y-75977936D02*
X160422064Y-75977936D01*
X160422064Y-75977936D02*
X163500000Y-72900000D01*
X163500000Y-72900000D02*
X163500000Y-69800000D01*
%TO.N,/DO4*%
X146838000Y-82000000D02*
X147700000Y-82000000D01*
X147700000Y-82000000D02*
X148000000Y-81700000D01*
X148000000Y-76400000D02*
X148822064Y-75577936D01*
X148000000Y-81700000D02*
X148000000Y-76400000D01*
X148822064Y-75577936D02*
X158322064Y-75577936D01*
X158322064Y-75577936D02*
X160960000Y-72940000D01*
X160960000Y-72940000D02*
X160960000Y-69800000D01*
%TO.N,/DO3*%
X158400000Y-73000000D02*
X158420000Y-72980000D01*
X158420000Y-72980000D02*
X158420000Y-69800000D01*
%TO.N,/DO2*%
X144300000Y-80262000D02*
X144300000Y-78955872D01*
X144300000Y-78955872D02*
X148477936Y-74777936D01*
X148477936Y-74777936D02*
X154022064Y-74777936D01*
X154022064Y-74777936D02*
X155880000Y-72920000D01*
X155880000Y-72920000D02*
X155880000Y-69800000D01*
%TO.N,/DO1*%
X153300000Y-73000000D02*
X153340000Y-72960000D01*
X153340000Y-72960000D02*
X153340000Y-69800000D01*
%TO.N,/DO0*%
X142700000Y-80262000D02*
X142700000Y-79424500D01*
X142700000Y-79424500D02*
X148224500Y-73900000D01*
X148224500Y-73900000D02*
X149800000Y-73900000D01*
X149800000Y-73900000D02*
X150800000Y-72900000D01*
X150800000Y-72900000D02*
X150800000Y-69800000D01*
%TO.N,/DI0{slash}TDI*%
X93350000Y-72950000D02*
X93350000Y-69800000D01*
%TO.N,/DI1*%
X95890000Y-72990000D02*
X95890000Y-69800000D01*
%TO.N,/DI2*%
X98430000Y-72930000D02*
X98430000Y-69800000D01*
%TO.N,/DI3*%
X100970000Y-72970000D02*
X100970000Y-69800000D01*
%TO.N,/DI4*%
X103500000Y-73000000D02*
X103510000Y-72990000D01*
X103510000Y-72990000D02*
X103510000Y-69800000D01*
%TO.N,/DI6*%
X108590000Y-72990000D02*
X108590000Y-69800000D01*
%TO.N,/DI7*%
X111130000Y-72970000D02*
X111130000Y-69800000D01*
%TO.N,/DI8*%
X113670000Y-72970000D02*
X113670000Y-69800000D01*
%TO.N,/DI9*%
X116210000Y-72990000D02*
X116210000Y-69800000D01*
%TO.N,/DI10*%
X138700000Y-80262000D02*
X138700000Y-79268629D01*
X120550000Y-74750000D02*
X118750000Y-72950000D01*
X138700000Y-79268629D02*
X134181370Y-74750000D01*
X134181370Y-74750000D02*
X120550000Y-74750000D01*
X118750000Y-72950000D02*
X118750000Y-69800000D01*
%TO.N,/DI11*%
X121290000Y-72990000D02*
X121290000Y-69800000D01*
%TO.N,/DI12*%
X123830000Y-73030000D02*
X123830000Y-69800000D01*
%TO.N,/DI5{slash}TMS*%
X106000000Y-73000000D02*
X106050000Y-72950000D01*
X106050000Y-72950000D02*
X106050000Y-69800000D01*
X107440000Y-68410000D02*
X106050000Y-69800000D01*
D28*
%TO.N,GND*%
X135600000Y-91500000D02*
X135600000Y-92500000D01*
X148848841Y-86548841D02*
X148900000Y-86497682D01*
X147797682Y-87600000D02*
X148848841Y-86548841D01*
X143500000Y-93300000D02*
X145100000Y-94900000D01*
X146700000Y-80700000D02*
X146400000Y-80700000D01*
X140905000Y-94617500D02*
X142112500Y-95825000D01*
X135362000Y-87600000D02*
X137400000Y-87600000D01*
X135362000Y-80162000D02*
X135362000Y-82000000D01*
X140300000Y-79000000D02*
X139500000Y-78200000D01*
X145100000Y-94900000D02*
X145100000Y-95825000D01*
X145650500Y-81449500D02*
X145650500Y-82750000D01*
X142112500Y-95825000D02*
X143675000Y-95825000D01*
X146400000Y-80700000D02*
X145650500Y-81449500D01*
X134000000Y-78800000D02*
X135362000Y-80162000D01*
X135362000Y-87600000D02*
X134100500Y-87600000D01*
X145700500Y-87600000D02*
X143500000Y-89800500D01*
X137400000Y-87600000D02*
X137400000Y-89700000D01*
X148900000Y-86497682D02*
X148900000Y-86100000D01*
X146838000Y-87600000D02*
X147797682Y-87600000D01*
X143500000Y-89800500D02*
X143500000Y-91738000D01*
X143675000Y-95825000D02*
X145100000Y-95825000D01*
X146838000Y-87600000D02*
X145700500Y-87600000D01*
X145700500Y-82800000D02*
X146838000Y-82800000D01*
X140300000Y-80262000D02*
X140300000Y-79000000D01*
X145650500Y-82750000D02*
X145700500Y-82800000D01*
X135600000Y-92500000D02*
X134300000Y-93800000D01*
X137400000Y-87600000D02*
X140250000Y-84750000D01*
X134100500Y-87600000D02*
X134000000Y-87499500D01*
X137400000Y-89700000D02*
X135600000Y-91500000D01*
X143500000Y-91738000D02*
X143500000Y-93300000D01*
X140250000Y-84750000D02*
X140250000Y-80500000D01*
%TO.N,+3.3V*%
X142547500Y-97347500D02*
X142695000Y-97347500D01*
X141100000Y-80262000D02*
X141100000Y-82500000D01*
X145022500Y-97347500D02*
X145100000Y-97425000D01*
X146838000Y-86800000D02*
X144000000Y-86800000D01*
X139500000Y-91738000D02*
X139500000Y-95800000D01*
X139500000Y-91738000D02*
X139500000Y-89100000D01*
X140172500Y-96472500D02*
X141672500Y-96472500D01*
X142695000Y-97347500D02*
X145022500Y-97347500D01*
X141672500Y-96472500D02*
X142547500Y-97347500D01*
X139500000Y-95800000D02*
X140172500Y-96472500D01*
X135362000Y-83600000D02*
X137900000Y-83600000D01*
D26*
%TO.N,/DI0{slash}TDI*%
X130100000Y-79994116D02*
X130100000Y-85762744D01*
X134337256Y-90000000D02*
X135362000Y-90000000D01*
X128855884Y-78750000D02*
X130100000Y-79994116D01*
X130100000Y-85762744D02*
X134337256Y-90000000D01*
X93350000Y-72950000D02*
X99150000Y-78750000D01*
X99150000Y-78750000D02*
X128855884Y-78750000D01*
%TO.N,/DI1*%
X129021570Y-78350000D02*
X130500000Y-79828430D01*
X130500000Y-85597058D02*
X134102942Y-89200000D01*
X95890000Y-72990000D02*
X101250000Y-78350000D01*
X101250000Y-78350000D02*
X129021570Y-78350000D01*
X134102942Y-89200000D02*
X135362000Y-89200000D01*
X130500000Y-79828430D02*
X130500000Y-85597058D01*
%TO.N,/DI2*%
X133868628Y-88400000D02*
X135362000Y-88400000D01*
X130900000Y-85431372D02*
X133868628Y-88400000D01*
X98430000Y-72930000D02*
X103450000Y-77950000D01*
X129187256Y-77950000D02*
X130900000Y-79662744D01*
X103450000Y-77950000D02*
X129187256Y-77950000D01*
X130900000Y-79662744D02*
X130900000Y-85431372D01*
%TO.N,/DI3*%
X132834314Y-86800000D02*
X135362000Y-86800000D01*
X129352942Y-77550000D02*
X131300000Y-79497058D01*
X131300000Y-79497058D02*
X131300000Y-85265686D01*
X105550000Y-77550000D02*
X129352942Y-77550000D01*
X100970000Y-72970000D02*
X105550000Y-77550000D01*
X131300000Y-85265686D02*
X132834314Y-86800000D01*
%TO.N,/DI4*%
X131700000Y-79331372D02*
X129518628Y-77150000D01*
X132600000Y-86000000D02*
X131700000Y-85100000D01*
X129518628Y-77150000D02*
X107650000Y-77150000D01*
X107650000Y-77150000D02*
X103500000Y-73000000D01*
X135362000Y-86000000D02*
X132600000Y-86000000D01*
X131700000Y-85100000D02*
X131700000Y-79331372D01*
%TO.N,/DI5{slash}TMS*%
X132100000Y-79165686D02*
X129684314Y-76750000D01*
X129684314Y-76750000D02*
X109750000Y-76750000D01*
X131810000Y-68410000D02*
X107440000Y-68410000D01*
X132900000Y-69500000D02*
X131810000Y-68410000D01*
X135362000Y-85200000D02*
X133034315Y-85200000D01*
X133034315Y-85200000D02*
X132100000Y-84265685D01*
X109750000Y-76750000D02*
X106000000Y-73000000D01*
X132100000Y-84265685D02*
X132100000Y-79165686D01*
%TO.N,/DI11*%
X122650000Y-74350000D02*
X121290000Y-72990000D01*
X134347055Y-74350000D02*
X122650000Y-74350000D01*
X139500000Y-80262000D02*
X139500000Y-79502943D01*
X139500000Y-79502943D02*
X134347055Y-74350000D01*
%TO.N,/DI6*%
X129850000Y-76350000D02*
X111950000Y-76350000D01*
X135362000Y-84400000D02*
X132800000Y-84400000D01*
X132500000Y-84100000D02*
X132500000Y-79000000D01*
X132500000Y-79000000D02*
X129850000Y-76350000D01*
X111950000Y-76350000D02*
X108590000Y-72990000D01*
X132800000Y-84400000D02*
X132500000Y-84100000D01*
%TO.N,/DI12*%
X124700000Y-73900000D02*
X136475500Y-73900000D01*
X136475500Y-73900000D02*
X141900000Y-79324500D01*
X141900000Y-79324500D02*
X141900000Y-80262000D01*
X123830000Y-73030000D02*
X124700000Y-73900000D01*
%TO.N,/DO6{slash}TCK*%
X149000000Y-68900000D02*
X149300000Y-68600000D01*
X148800000Y-76809308D02*
X149231372Y-76377936D01*
X162622064Y-76377936D02*
X166000000Y-73000000D01*
X148800000Y-83375500D02*
X148800000Y-76809308D01*
X149300000Y-68600000D02*
X164840000Y-68600000D01*
X149231372Y-76377936D02*
X162622064Y-76377936D01*
X146838000Y-84400000D02*
X145300000Y-84400000D01*
X147775500Y-84400000D02*
X148800000Y-83375500D01*
X146838000Y-84400000D02*
X147775500Y-84400000D01*
%TO.N,Net-(IC2-Pad37)*%
X142695000Y-91743000D02*
X142700000Y-91738000D01*
X142695000Y-94617500D02*
X142695000Y-91743000D01*
%TO.N,/DI7*%
X136299500Y-82800000D02*
X136399500Y-82700000D01*
X136399500Y-78749500D02*
X133600000Y-75950000D01*
X136399500Y-82700000D02*
X136399500Y-78749500D01*
X111100000Y-73000000D02*
X111130000Y-72970000D01*
X114050000Y-75950000D02*
X111100000Y-73000000D01*
X135362000Y-82800000D02*
X136299500Y-82800000D01*
X133600000Y-75950000D02*
X114050000Y-75950000D01*
%TO.N,/DI8*%
X133850000Y-75550000D02*
X116250000Y-75550000D01*
X137100000Y-80262000D02*
X137100000Y-78800000D01*
X137100000Y-78800000D02*
X133850000Y-75550000D01*
X116250000Y-75550000D02*
X113670000Y-72970000D01*
%TO.N,/DI9*%
X137900000Y-79034315D02*
X134015685Y-75150000D01*
X116200000Y-73000000D02*
X116210000Y-72990000D01*
X118350000Y-75150000D02*
X116200000Y-73000000D01*
X137900000Y-80262000D02*
X137900000Y-79034315D01*
X134015685Y-75150000D02*
X118350000Y-75150000D01*
%TO.N,/DO1*%
X143500000Y-80262000D02*
X143500000Y-79190186D01*
X151954907Y-74345093D02*
X153300000Y-73000000D01*
X143500000Y-79190186D02*
X148345093Y-74345093D01*
X148345093Y-74345093D02*
X151954907Y-74345093D01*
%TO.N,/DO3*%
X145100000Y-80262000D02*
X145100000Y-78721558D01*
X156222064Y-75177936D02*
X158400000Y-73000000D01*
X148643622Y-75177936D02*
X156222064Y-75177936D01*
X145100000Y-78721558D02*
X148643622Y-75177936D01*
%TO.N,/SW_B0*%
X140056129Y-99200000D02*
X173597057Y-99200000D01*
X187792500Y-89100000D02*
X189000000Y-87892500D01*
X137100000Y-96243871D02*
X140056129Y-99200000D01*
X183697057Y-89100000D02*
X187792500Y-89100000D01*
X173597057Y-99200000D02*
X183697057Y-89100000D01*
X137100000Y-91738000D02*
X137100000Y-96243871D01*
%TO.N,/SW_B1*%
X137900000Y-96478186D02*
X140221814Y-98800000D01*
X137900000Y-91738000D02*
X137900000Y-96478186D01*
X140221814Y-98800000D02*
X173431371Y-98800000D01*
X179000000Y-93231371D02*
X179000000Y-87892500D01*
X173431371Y-98800000D02*
X179000000Y-93231371D01*
%TO.N,/SW_B2*%
X138700000Y-91738000D02*
X138700000Y-96712500D01*
X169000000Y-92900000D02*
X169000000Y-87892500D01*
X163500000Y-98400000D02*
X169000000Y-92900000D01*
X140387500Y-98400000D02*
X163500000Y-98400000D01*
X138700000Y-96712500D02*
X140387500Y-98400000D01*
%TO.N,/SW_B3*%
X144700000Y-93700000D02*
X156731371Y-93700000D01*
X144300000Y-91738000D02*
X144300000Y-93300000D01*
X156731371Y-93700000D02*
X159000000Y-91431371D01*
X144300000Y-93300000D02*
X144700000Y-93700000D01*
X159000000Y-91431371D02*
X159000000Y-87892500D01*
D27*
%TO.N,/DO11*%
X147825500Y-90000000D02*
X150875000Y-86950500D01*
X151247064Y-78452936D02*
X173247064Y-78452936D01*
X150875000Y-78825000D02*
X151247064Y-78452936D01*
X150875000Y-86950500D02*
X150875000Y-78825000D01*
X146838000Y-90000000D02*
X147825500Y-90000000D01*
X173247064Y-78452936D02*
X178700000Y-73000000D01*
%TD*%
%TA.AperFunction,Conductor*%
%TO.N,GND*%
G36*
X192465682Y-59299735D02*
G01*
X192533774Y-59319835D01*
X192580189Y-59373558D01*
X192591500Y-59425735D01*
X192591500Y-100165500D01*
X192571498Y-100233621D01*
X192517842Y-100280114D01*
X192465500Y-100291500D01*
X88904061Y-100291500D01*
X88835940Y-100271498D01*
X88789447Y-100217842D01*
X88778062Y-100165893D01*
X88770102Y-97616381D01*
X91449160Y-97616381D01*
X91449237Y-97617470D01*
X91451698Y-97621206D01*
X91725632Y-97831404D01*
X91731262Y-97835259D01*
X92031591Y-98017862D01*
X92037593Y-98021080D01*
X92355897Y-98170184D01*
X92362202Y-98172732D01*
X92694743Y-98286587D01*
X92701313Y-98288446D01*
X93044183Y-98365714D01*
X93050912Y-98366853D01*
X93400143Y-98406643D01*
X93406933Y-98407046D01*
X93758419Y-98408886D01*
X93765220Y-98408554D01*
X94114853Y-98372423D01*
X94121581Y-98371357D01*
X94465274Y-98297676D01*
X94471822Y-98295897D01*
X94805549Y-98185527D01*
X94811891Y-98183041D01*
X95131718Y-98037288D01*
X95137777Y-98034121D01*
X95439995Y-97854676D01*
X95445659Y-97850884D01*
X95726732Y-97639849D01*
X95731958Y-97635464D01*
X95741613Y-97626428D01*
X95749682Y-97612750D01*
X95749654Y-97612024D01*
X95744512Y-97603723D01*
X93612810Y-95472020D01*
X93598869Y-95464408D01*
X93597034Y-95464539D01*
X93590420Y-95468790D01*
X91456774Y-97602437D01*
X91449160Y-97616381D01*
X88770102Y-97616381D01*
X88762220Y-95091832D01*
X90287333Y-95091832D01*
X90305117Y-95442893D01*
X90305827Y-95449649D01*
X90361420Y-95796723D01*
X90362859Y-95803378D01*
X90455608Y-96142410D01*
X90457757Y-96148871D01*
X90586581Y-96475912D01*
X90589412Y-96482095D01*
X90752803Y-96793310D01*
X90756286Y-96799152D01*
X90952330Y-97090896D01*
X90956433Y-97096340D01*
X91076425Y-97238836D01*
X91089164Y-97247279D01*
X91099608Y-97241181D01*
X93227980Y-95112810D01*
X93234357Y-95101131D01*
X93964408Y-95101131D01*
X93964539Y-95102966D01*
X93968790Y-95109580D01*
X96099009Y-97239798D01*
X96112605Y-97247223D01*
X96122218Y-97240522D01*
X96222518Y-97123912D01*
X96226676Y-97118514D01*
X96425762Y-96828840D01*
X96429310Y-96823029D01*
X96595942Y-96513559D01*
X96598849Y-96507381D01*
X96731090Y-96181713D01*
X96733304Y-96175283D01*
X96829598Y-95837237D01*
X96831105Y-95830607D01*
X96890332Y-95484118D01*
X96891112Y-95477378D01*
X96912668Y-95124925D01*
X96912784Y-95121323D01*
X96912853Y-95101819D01*
X96912761Y-95098194D01*
X96893666Y-94745615D01*
X96892931Y-94738849D01*
X96836130Y-94391985D01*
X96834663Y-94385313D01*
X96740736Y-94046627D01*
X96738562Y-94040163D01*
X96608598Y-93713578D01*
X96605742Y-93707398D01*
X96441269Y-93396763D01*
X96437769Y-93390937D01*
X96240697Y-93099862D01*
X96236590Y-93094453D01*
X96123565Y-92961179D01*
X96110740Y-92952743D01*
X96100416Y-92958795D01*
X93972020Y-95087190D01*
X93964408Y-95101131D01*
X93234357Y-95101131D01*
X93235592Y-95098869D01*
X93235461Y-95097034D01*
X93231210Y-95090420D01*
X91100992Y-92960203D01*
X91087455Y-92952811D01*
X91077753Y-92959599D01*
X90970430Y-93085257D01*
X90966296Y-93090664D01*
X90768215Y-93381041D01*
X90764697Y-93386851D01*
X90599134Y-93696922D01*
X90596259Y-93703087D01*
X90465155Y-94029218D01*
X90462962Y-94035658D01*
X90367846Y-94374044D01*
X90366363Y-94380679D01*
X90308350Y-94727354D01*
X90307591Y-94734126D01*
X90287357Y-95085037D01*
X90287333Y-95091832D01*
X88762220Y-95091832D01*
X88757828Y-93685257D01*
X88754398Y-92586862D01*
X91449950Y-92586862D01*
X91449986Y-92587704D01*
X91455037Y-92595826D01*
X92688449Y-93829239D01*
X93587190Y-94727980D01*
X93601131Y-94735592D01*
X93602966Y-94735461D01*
X93609580Y-94731210D01*
X95742798Y-92597991D01*
X95750412Y-92584047D01*
X95750344Y-92583089D01*
X95745836Y-92576272D01*
X95744418Y-92575065D01*
X95464813Y-92362064D01*
X95459187Y-92358240D01*
X95158214Y-92176681D01*
X95152202Y-92173484D01*
X94833370Y-92025487D01*
X94827070Y-92022967D01*
X94494129Y-91910273D01*
X94487551Y-91908437D01*
X94144417Y-91832367D01*
X94137678Y-91831251D01*
X93788310Y-91792680D01*
X93781529Y-91792301D01*
X93430015Y-91791687D01*
X93423242Y-91792042D01*
X93073720Y-91829395D01*
X93067010Y-91830482D01*
X92723586Y-91905361D01*
X92717011Y-91907172D01*
X92383683Y-92018702D01*
X92377361Y-92021205D01*
X92058034Y-92168079D01*
X92051991Y-92171265D01*
X91750401Y-92351763D01*
X91744755Y-92355571D01*
X91464408Y-92567596D01*
X91459211Y-92571987D01*
X91457972Y-92573155D01*
X91449950Y-92586862D01*
X88754398Y-92586862D01*
X88742725Y-88848134D01*
X106516500Y-88848134D01*
X106523255Y-88910316D01*
X106574385Y-89046705D01*
X106661739Y-89163261D01*
X106778295Y-89250615D01*
X106914684Y-89301745D01*
X106976866Y-89308500D01*
X108873134Y-89308500D01*
X108935316Y-89301745D01*
X109071705Y-89250615D01*
X109188261Y-89163261D01*
X109275615Y-89046705D01*
X109300180Y-88981178D01*
X109342822Y-88924414D01*
X109409383Y-88899714D01*
X109478732Y-88914921D01*
X109498647Y-88928464D01*
X109563724Y-88982492D01*
X109654349Y-89057730D01*
X109854322Y-89174584D01*
X110070694Y-89257209D01*
X110075760Y-89258240D01*
X110075761Y-89258240D01*
X110128846Y-89269040D01*
X110297656Y-89303385D01*
X110427089Y-89308131D01*
X110523949Y-89311683D01*
X110523953Y-89311683D01*
X110529113Y-89311872D01*
X110534233Y-89311216D01*
X110534235Y-89311216D01*
X110608166Y-89301745D01*
X110758847Y-89282442D01*
X110763795Y-89280957D01*
X110763802Y-89280956D01*
X110975747Y-89217369D01*
X110980690Y-89215886D01*
X111040630Y-89186522D01*
X111184049Y-89116262D01*
X111184052Y-89116260D01*
X111188684Y-89113991D01*
X111377243Y-88979494D01*
X111541303Y-88816005D01*
X111676458Y-88627917D01*
X111703351Y-88573504D01*
X111776784Y-88424922D01*
X111776785Y-88424920D01*
X111779078Y-88420280D01*
X111846408Y-88198671D01*
X111876640Y-87969041D01*
X111877069Y-87951481D01*
X111878245Y-87903365D01*
X111878245Y-87903361D01*
X111878327Y-87900000D01*
X111875488Y-87865469D01*
X116847095Y-87865469D01*
X116847392Y-87870622D01*
X116847392Y-87870625D01*
X116853067Y-87969041D01*
X116860427Y-88096697D01*
X116861564Y-88101743D01*
X116861565Y-88101749D01*
X116886395Y-88211926D01*
X116911346Y-88322642D01*
X116913288Y-88327424D01*
X116913289Y-88327428D01*
X116985235Y-88504609D01*
X116998484Y-88537237D01*
X117119501Y-88734719D01*
X117271147Y-88909784D01*
X117449349Y-89057730D01*
X117649322Y-89174584D01*
X117865694Y-89257209D01*
X117870760Y-89258240D01*
X117870761Y-89258240D01*
X117923846Y-89269040D01*
X118092656Y-89303385D01*
X118222089Y-89308131D01*
X118318949Y-89311683D01*
X118318953Y-89311683D01*
X118324113Y-89311872D01*
X118329233Y-89311216D01*
X118329235Y-89311216D01*
X118403166Y-89301745D01*
X118553847Y-89282442D01*
X118558795Y-89280957D01*
X118558802Y-89280956D01*
X118770747Y-89217369D01*
X118775690Y-89215886D01*
X118835630Y-89186522D01*
X118979049Y-89116262D01*
X118979052Y-89116260D01*
X118983684Y-89113991D01*
X119172243Y-88979494D01*
X119217309Y-88934585D01*
X119279681Y-88900669D01*
X119350487Y-88905857D01*
X119407249Y-88948503D01*
X119424231Y-88979607D01*
X119441948Y-89026866D01*
X119449385Y-89046705D01*
X119536739Y-89163261D01*
X119653295Y-89250615D01*
X119789684Y-89301745D01*
X119851866Y-89308500D01*
X121748134Y-89308500D01*
X121810316Y-89301745D01*
X121946705Y-89250615D01*
X122063261Y-89163261D01*
X122150615Y-89046705D01*
X122201745Y-88910316D01*
X122208500Y-88848134D01*
X122208500Y-86951866D01*
X122201745Y-86889684D01*
X122150615Y-86753295D01*
X122063261Y-86636739D01*
X121946705Y-86549385D01*
X121810316Y-86498255D01*
X121748134Y-86491500D01*
X119851866Y-86491500D01*
X119789684Y-86498255D01*
X119653295Y-86549385D01*
X119536739Y-86636739D01*
X119449385Y-86753295D01*
X119446233Y-86761703D01*
X119446232Y-86761705D01*
X119425538Y-86816906D01*
X119382897Y-86873671D01*
X119316335Y-86898371D01*
X119246986Y-86883164D01*
X119224167Y-86866666D01*
X119223887Y-86866358D01*
X119139863Y-86800000D01*
X119046177Y-86726011D01*
X119046172Y-86726008D01*
X119042123Y-86722810D01*
X119037607Y-86720317D01*
X119037604Y-86720315D01*
X118843879Y-86613373D01*
X118843875Y-86613371D01*
X118839355Y-86610876D01*
X118834486Y-86609152D01*
X118834482Y-86609150D01*
X118625903Y-86535288D01*
X118625899Y-86535287D01*
X118621028Y-86533562D01*
X118615935Y-86532655D01*
X118615932Y-86532654D01*
X118398095Y-86493851D01*
X118398089Y-86493850D01*
X118393006Y-86492945D01*
X118320096Y-86492054D01*
X118166581Y-86490179D01*
X118166579Y-86490179D01*
X118161411Y-86490116D01*
X117932464Y-86525150D01*
X117712314Y-86597106D01*
X117707726Y-86599494D01*
X117707722Y-86599496D01*
X117514206Y-86700234D01*
X117506872Y-86704052D01*
X117502739Y-86707155D01*
X117502736Y-86707157D01*
X117354319Y-86818592D01*
X117321655Y-86843117D01*
X117161639Y-87010564D01*
X117158725Y-87014836D01*
X117158724Y-87014837D01*
X117143152Y-87037665D01*
X117031119Y-87201899D01*
X116933602Y-87411981D01*
X116871707Y-87635169D01*
X116847095Y-87865469D01*
X111875488Y-87865469D01*
X111870590Y-87805889D01*
X111859773Y-87674318D01*
X111859772Y-87674312D01*
X111859349Y-87669167D01*
X111811549Y-87478866D01*
X111804184Y-87449544D01*
X111804183Y-87449540D01*
X111802925Y-87444533D01*
X111794774Y-87425786D01*
X111712630Y-87236868D01*
X111712628Y-87236865D01*
X111710570Y-87232131D01*
X111584764Y-87037665D01*
X111564920Y-87015856D01*
X111503602Y-86948469D01*
X111428887Y-86866358D01*
X111424836Y-86863159D01*
X111424832Y-86863155D01*
X111251177Y-86726011D01*
X111251172Y-86726008D01*
X111247123Y-86722810D01*
X111242607Y-86720317D01*
X111242604Y-86720315D01*
X111048879Y-86613373D01*
X111048875Y-86613371D01*
X111044355Y-86610876D01*
X111039486Y-86609152D01*
X111039482Y-86609150D01*
X110830903Y-86535288D01*
X110830899Y-86535287D01*
X110826028Y-86533562D01*
X110820935Y-86532655D01*
X110820932Y-86532654D01*
X110603095Y-86493851D01*
X110603089Y-86493850D01*
X110598006Y-86492945D01*
X110525096Y-86492054D01*
X110371581Y-86490179D01*
X110371579Y-86490179D01*
X110366411Y-86490116D01*
X110137464Y-86525150D01*
X109917314Y-86597106D01*
X109912726Y-86599494D01*
X109912722Y-86599496D01*
X109719206Y-86700234D01*
X109711872Y-86704052D01*
X109707739Y-86707155D01*
X109707736Y-86707157D01*
X109559319Y-86818592D01*
X109526655Y-86843117D01*
X109509170Y-86861414D01*
X109447646Y-86896844D01*
X109376733Y-86893387D01*
X109318947Y-86852141D01*
X109300094Y-86818592D01*
X109278768Y-86761705D01*
X109278767Y-86761703D01*
X109275615Y-86753295D01*
X109188261Y-86636739D01*
X109071705Y-86549385D01*
X108935316Y-86498255D01*
X108873134Y-86491500D01*
X106976866Y-86491500D01*
X106914684Y-86498255D01*
X106778295Y-86549385D01*
X106661739Y-86636739D01*
X106574385Y-86753295D01*
X106523255Y-86889684D01*
X106516500Y-86951866D01*
X106516500Y-88848134D01*
X88742725Y-88848134D01*
X88736102Y-86726976D01*
X88755891Y-86658795D01*
X88809401Y-86612134D01*
X88879643Y-86601811D01*
X88934372Y-86623371D01*
X88947443Y-86632523D01*
X88958531Y-86638720D01*
X89124495Y-86710540D01*
X89136607Y-86714382D01*
X89315134Y-86751677D01*
X89324666Y-86752915D01*
X89327889Y-86753000D01*
X89477885Y-86753000D01*
X89493124Y-86748525D01*
X89494329Y-86747135D01*
X89496000Y-86739452D01*
X89496000Y-86734885D01*
X90004000Y-86734885D01*
X90008475Y-86750124D01*
X90009865Y-86751329D01*
X90017548Y-86753000D01*
X90125192Y-86753000D01*
X90131567Y-86752677D01*
X90266267Y-86738995D01*
X90278707Y-86736441D01*
X90451264Y-86682365D01*
X90462952Y-86677356D01*
X90621111Y-86589686D01*
X90631544Y-86582435D01*
X90768843Y-86464756D01*
X90777612Y-86455547D01*
X90888442Y-86312667D01*
X90895178Y-86301887D01*
X90975019Y-86139626D01*
X90979445Y-86127727D01*
X90994082Y-86071531D01*
X90993648Y-86057436D01*
X90985467Y-86054000D01*
X90022115Y-86054000D01*
X90006876Y-86058475D01*
X90005671Y-86059865D01*
X90004000Y-86067548D01*
X90004000Y-86734885D01*
X89496000Y-86734885D01*
X89496000Y-85527885D01*
X90004000Y-85527885D01*
X90008475Y-85543124D01*
X90009865Y-85544329D01*
X90017548Y-85546000D01*
X90983901Y-85546000D01*
X90997432Y-85542027D01*
X90998309Y-85535925D01*
X90943170Y-85386064D01*
X90937608Y-85374658D01*
X90842309Y-85220956D01*
X90834560Y-85210895D01*
X90710310Y-85079504D01*
X90700690Y-85071201D01*
X90699967Y-85070695D01*
X91474191Y-85070695D01*
X91481467Y-85142331D01*
X91484021Y-85154770D01*
X91539920Y-85333143D01*
X91544929Y-85344831D01*
X91635553Y-85508320D01*
X91642804Y-85518753D01*
X91764456Y-85660688D01*
X91773647Y-85669441D01*
X91921364Y-85784021D01*
X91932124Y-85790745D01*
X92099860Y-85873281D01*
X92111767Y-85877709D01*
X92178469Y-85895083D01*
X92192564Y-85894649D01*
X92196000Y-85886468D01*
X92196000Y-85885867D01*
X92704000Y-85885867D01*
X92707973Y-85899398D01*
X92714075Y-85900275D01*
X92877145Y-85840277D01*
X92888573Y-85834703D01*
X93047440Y-85736201D01*
X93057504Y-85728451D01*
X93193322Y-85600014D01*
X93201625Y-85590394D01*
X93308845Y-85437269D01*
X93315042Y-85426180D01*
X93389284Y-85254618D01*
X93393123Y-85242515D01*
X93428801Y-85071736D01*
X93427678Y-85057675D01*
X93417571Y-85054000D01*
X92722115Y-85054000D01*
X92706876Y-85058475D01*
X92705671Y-85059865D01*
X92704000Y-85067548D01*
X92704000Y-85885867D01*
X92196000Y-85885867D01*
X92196000Y-85072115D01*
X92191525Y-85056876D01*
X92190135Y-85055671D01*
X92182452Y-85054000D01*
X91490610Y-85054000D01*
X91476250Y-85058216D01*
X91474191Y-85070695D01*
X90699967Y-85070695D01*
X90552557Y-84967477D01*
X90541469Y-84961280D01*
X90375505Y-84889460D01*
X90363393Y-84885618D01*
X90184866Y-84848323D01*
X90175334Y-84847085D01*
X90172111Y-84847000D01*
X90022115Y-84847000D01*
X90006876Y-84851475D01*
X90005671Y-84852865D01*
X90004000Y-84860548D01*
X90004000Y-85527885D01*
X89496000Y-85527885D01*
X89496000Y-84865115D01*
X89491525Y-84849876D01*
X89490135Y-84848671D01*
X89482452Y-84847000D01*
X89374808Y-84847000D01*
X89368433Y-84847323D01*
X89233733Y-84861005D01*
X89221293Y-84863559D01*
X89048736Y-84917635D01*
X89037048Y-84922644D01*
X88917418Y-84988956D01*
X88848141Y-85004487D01*
X88781465Y-84980099D01*
X88738558Y-84923535D01*
X88730333Y-84879147D01*
X88729237Y-84528264D01*
X91471199Y-84528264D01*
X91472322Y-84542325D01*
X91482429Y-84546000D01*
X92177885Y-84546000D01*
X92193124Y-84541525D01*
X92194329Y-84540135D01*
X92196000Y-84532452D01*
X92196000Y-84527885D01*
X92704000Y-84527885D01*
X92708475Y-84543124D01*
X92709865Y-84544329D01*
X92717548Y-84546000D01*
X93409390Y-84546000D01*
X93423750Y-84541784D01*
X93425809Y-84529305D01*
X93418533Y-84457669D01*
X93415979Y-84445230D01*
X93360080Y-84266857D01*
X93355071Y-84255169D01*
X93264447Y-84091680D01*
X93257196Y-84081247D01*
X93135544Y-83939312D01*
X93126353Y-83930559D01*
X92978636Y-83815979D01*
X92967876Y-83809255D01*
X92800140Y-83726719D01*
X92788233Y-83722291D01*
X92721531Y-83704917D01*
X92707436Y-83705351D01*
X92704000Y-83713532D01*
X92704000Y-84527885D01*
X92196000Y-84527885D01*
X92196000Y-83714133D01*
X92192027Y-83700602D01*
X92185925Y-83699725D01*
X92022855Y-83759723D01*
X92011427Y-83765297D01*
X91852560Y-83863799D01*
X91842496Y-83871549D01*
X91706678Y-83999986D01*
X91698375Y-84009606D01*
X91591155Y-84162731D01*
X91584958Y-84173820D01*
X91510716Y-84345382D01*
X91506877Y-84357485D01*
X91471199Y-84528264D01*
X88729237Y-84528264D01*
X88715320Y-80070695D01*
X91474191Y-80070695D01*
X91481467Y-80142331D01*
X91484021Y-80154770D01*
X91539920Y-80333143D01*
X91544929Y-80344831D01*
X91635553Y-80508320D01*
X91642804Y-80518753D01*
X91764456Y-80660688D01*
X91773647Y-80669441D01*
X91921364Y-80784021D01*
X91932124Y-80790745D01*
X92099860Y-80873281D01*
X92111767Y-80877709D01*
X92178469Y-80895083D01*
X92192564Y-80894649D01*
X92196000Y-80886468D01*
X92196000Y-80885867D01*
X92704000Y-80885867D01*
X92707973Y-80899398D01*
X92714075Y-80900275D01*
X92877145Y-80840277D01*
X92888573Y-80834703D01*
X93047440Y-80736201D01*
X93057504Y-80728451D01*
X93193322Y-80600014D01*
X93201625Y-80590394D01*
X93308845Y-80437269D01*
X93315042Y-80426180D01*
X93389284Y-80254618D01*
X93393123Y-80242515D01*
X93428801Y-80071736D01*
X93427678Y-80057675D01*
X93417571Y-80054000D01*
X92722115Y-80054000D01*
X92706876Y-80058475D01*
X92705671Y-80059865D01*
X92704000Y-80067548D01*
X92704000Y-80885867D01*
X92196000Y-80885867D01*
X92196000Y-80072115D01*
X92191525Y-80056876D01*
X92190135Y-80055671D01*
X92182452Y-80054000D01*
X91490610Y-80054000D01*
X91476250Y-80058216D01*
X91474191Y-80070695D01*
X88715320Y-80070695D01*
X88714199Y-79711640D01*
X88733988Y-79643458D01*
X88787498Y-79596797D01*
X88857740Y-79586474D01*
X88912470Y-79608035D01*
X88947441Y-79632522D01*
X88958531Y-79638720D01*
X89124495Y-79710540D01*
X89136607Y-79714382D01*
X89315134Y-79751677D01*
X89324666Y-79752915D01*
X89327889Y-79753000D01*
X89477885Y-79753000D01*
X89493124Y-79748525D01*
X89494329Y-79747135D01*
X89496000Y-79739452D01*
X89496000Y-79734885D01*
X90004000Y-79734885D01*
X90008475Y-79750124D01*
X90009865Y-79751329D01*
X90017548Y-79753000D01*
X90125192Y-79753000D01*
X90131567Y-79752677D01*
X90266267Y-79738995D01*
X90278707Y-79736441D01*
X90451264Y-79682365D01*
X90462952Y-79677356D01*
X90621111Y-79589686D01*
X90631544Y-79582435D01*
X90694747Y-79528264D01*
X91471199Y-79528264D01*
X91472322Y-79542325D01*
X91482429Y-79546000D01*
X92177885Y-79546000D01*
X92193124Y-79541525D01*
X92194329Y-79540135D01*
X92196000Y-79532452D01*
X92196000Y-79527885D01*
X92704000Y-79527885D01*
X92708475Y-79543124D01*
X92709865Y-79544329D01*
X92717548Y-79546000D01*
X93409390Y-79546000D01*
X93423750Y-79541784D01*
X93425809Y-79529305D01*
X93418533Y-79457669D01*
X93415979Y-79445230D01*
X93360080Y-79266857D01*
X93355071Y-79255169D01*
X93264447Y-79091680D01*
X93257196Y-79081247D01*
X93135544Y-78939312D01*
X93126353Y-78930559D01*
X92978636Y-78815979D01*
X92967876Y-78809255D01*
X92800140Y-78726719D01*
X92788233Y-78722291D01*
X92721531Y-78704917D01*
X92707436Y-78705351D01*
X92704000Y-78713532D01*
X92704000Y-79527885D01*
X92196000Y-79527885D01*
X92196000Y-78714133D01*
X92192027Y-78700602D01*
X92185925Y-78699725D01*
X92022855Y-78759723D01*
X92011427Y-78765297D01*
X91852560Y-78863799D01*
X91842496Y-78871549D01*
X91706678Y-78999986D01*
X91698375Y-79009606D01*
X91591155Y-79162731D01*
X91584958Y-79173820D01*
X91510716Y-79345382D01*
X91506877Y-79357485D01*
X91471199Y-79528264D01*
X90694747Y-79528264D01*
X90768843Y-79464756D01*
X90777612Y-79455547D01*
X90888442Y-79312667D01*
X90895178Y-79301887D01*
X90975019Y-79139626D01*
X90979445Y-79127727D01*
X90994082Y-79071531D01*
X90993648Y-79057436D01*
X90985467Y-79054000D01*
X90022115Y-79054000D01*
X90006876Y-79058475D01*
X90005671Y-79059865D01*
X90004000Y-79067548D01*
X90004000Y-79734885D01*
X89496000Y-79734885D01*
X89496000Y-78527885D01*
X90004000Y-78527885D01*
X90008475Y-78543124D01*
X90009865Y-78544329D01*
X90017548Y-78546000D01*
X90983901Y-78546000D01*
X90997432Y-78542027D01*
X90998309Y-78535925D01*
X90943170Y-78386064D01*
X90937608Y-78374658D01*
X90842309Y-78220956D01*
X90834560Y-78210895D01*
X90710310Y-78079504D01*
X90700690Y-78071201D01*
X90552557Y-77967477D01*
X90541469Y-77961280D01*
X90375505Y-77889460D01*
X90363393Y-77885618D01*
X90184866Y-77848323D01*
X90175334Y-77847085D01*
X90172111Y-77847000D01*
X90022115Y-77847000D01*
X90006876Y-77851475D01*
X90005671Y-77852865D01*
X90004000Y-77860548D01*
X90004000Y-78527885D01*
X89496000Y-78527885D01*
X89496000Y-77865115D01*
X89491525Y-77849876D01*
X89490135Y-77848671D01*
X89482452Y-77847000D01*
X89374808Y-77847000D01*
X89368433Y-77847323D01*
X89233733Y-77861005D01*
X89221293Y-77863559D01*
X89048736Y-77917635D01*
X89037053Y-77922642D01*
X88895601Y-78001051D01*
X88826324Y-78016583D01*
X88759647Y-77992195D01*
X88716740Y-77935631D01*
X88708515Y-77891242D01*
X88686057Y-70698134D01*
X91991500Y-70698134D01*
X91998255Y-70760316D01*
X92049385Y-70896705D01*
X92136739Y-71013261D01*
X92253295Y-71100615D01*
X92389684Y-71151745D01*
X92451866Y-71158500D01*
X92615500Y-71158500D01*
X92683621Y-71178502D01*
X92730114Y-71232158D01*
X92741500Y-71284500D01*
X92741500Y-72901864D01*
X92740422Y-72918307D01*
X92736250Y-72950000D01*
X92741500Y-72989880D01*
X92741500Y-72989885D01*
X92751585Y-73066480D01*
X92753213Y-73078848D01*
X92753213Y-73078851D01*
X92755846Y-73098851D01*
X92757162Y-73108851D01*
X92760321Y-73116477D01*
X92760321Y-73116478D01*
X92764464Y-73126479D01*
X92818476Y-73256876D01*
X92823503Y-73263427D01*
X92823504Y-73263429D01*
X92891520Y-73352069D01*
X92891526Y-73352075D01*
X92916013Y-73383987D01*
X92922568Y-73389017D01*
X92941379Y-73403452D01*
X92953770Y-73414319D01*
X98685685Y-79146234D01*
X98696552Y-79158625D01*
X98716013Y-79183987D01*
X98722563Y-79189013D01*
X98747921Y-79208471D01*
X98747937Y-79208485D01*
X98797305Y-79246366D01*
X98843124Y-79281524D01*
X98991149Y-79342838D01*
X98999337Y-79343916D01*
X99070574Y-79353294D01*
X99150000Y-79363751D01*
X99181699Y-79359578D01*
X99198144Y-79358500D01*
X128551645Y-79358500D01*
X128619766Y-79378502D01*
X128640740Y-79395405D01*
X129454595Y-80209260D01*
X129488621Y-80271572D01*
X129491500Y-80298355D01*
X129491500Y-85714608D01*
X129490422Y-85731051D01*
X129486250Y-85762744D01*
X129491500Y-85802624D01*
X129491500Y-85802629D01*
X129501612Y-85879437D01*
X129507162Y-85921595D01*
X129568476Y-86069620D01*
X129573503Y-86076171D01*
X129573504Y-86076173D01*
X129641520Y-86164813D01*
X129641526Y-86164819D01*
X129666013Y-86196731D01*
X129672568Y-86201761D01*
X129691379Y-86216196D01*
X129703770Y-86227063D01*
X133872937Y-90396229D01*
X133883804Y-90408620D01*
X133898240Y-90427434D01*
X133898243Y-90427437D01*
X133903269Y-90433987D01*
X133909819Y-90439013D01*
X133909823Y-90439017D01*
X133935183Y-90458476D01*
X133935185Y-90458477D01*
X134030380Y-90531524D01*
X134038006Y-90534683D01*
X134038008Y-90534684D01*
X134133462Y-90574222D01*
X134178405Y-90592838D01*
X134178150Y-90593455D01*
X134233499Y-90627189D01*
X134241095Y-90636383D01*
X134261239Y-90663261D01*
X134377795Y-90750615D01*
X134514184Y-90801745D01*
X134576366Y-90808500D01*
X136147634Y-90808500D01*
X136153236Y-90807891D01*
X136153750Y-90807984D01*
X136154428Y-90807947D01*
X136154437Y-90808107D01*
X136223116Y-90820417D01*
X136275134Y-90868736D01*
X136292771Y-90937507D01*
X136292110Y-90946746D01*
X136291500Y-90952366D01*
X136291500Y-92523634D01*
X136298255Y-92585816D01*
X136349385Y-92722205D01*
X136436739Y-92838761D01*
X136443919Y-92844142D01*
X136450269Y-92850492D01*
X136448634Y-92852127D01*
X136483579Y-92898859D01*
X136491500Y-92942829D01*
X136491500Y-96195735D01*
X136490422Y-96212178D01*
X136486250Y-96243871D01*
X136487328Y-96252060D01*
X136491500Y-96283751D01*
X136491503Y-96283786D01*
X136492301Y-96289839D01*
X136492303Y-96289852D01*
X136506014Y-96393998D01*
X136507162Y-96402722D01*
X136510322Y-96410351D01*
X136511986Y-96414369D01*
X136568476Y-96550747D01*
X136573503Y-96557298D01*
X136573504Y-96557300D01*
X136641520Y-96645940D01*
X136641526Y-96645946D01*
X136666013Y-96677858D01*
X136672568Y-96682888D01*
X136691379Y-96697323D01*
X136703770Y-96708190D01*
X139591814Y-99596234D01*
X139602681Y-99608625D01*
X139622142Y-99633987D01*
X139628692Y-99639013D01*
X139654050Y-99658471D01*
X139654066Y-99658485D01*
X139703434Y-99696366D01*
X139749253Y-99731524D01*
X139897278Y-99792838D01*
X139905465Y-99793916D01*
X139905466Y-99793916D01*
X139916671Y-99795391D01*
X139947867Y-99799498D01*
X140016244Y-99808500D01*
X140016247Y-99808500D01*
X140016255Y-99808501D01*
X140047940Y-99812672D01*
X140056129Y-99813750D01*
X140064318Y-99812672D01*
X140087822Y-99809578D01*
X140104267Y-99808500D01*
X173548921Y-99808500D01*
X173565364Y-99809578D01*
X173597057Y-99813750D01*
X173605246Y-99812672D01*
X173636931Y-99808501D01*
X173636941Y-99808500D01*
X173636942Y-99808500D01*
X173636958Y-99808498D01*
X173736514Y-99795391D01*
X173747721Y-99793916D01*
X173747723Y-99793915D01*
X173755908Y-99792838D01*
X173903933Y-99731524D01*
X173999119Y-99658485D01*
X173999126Y-99658480D01*
X173999132Y-99658474D01*
X174024491Y-99639015D01*
X174031044Y-99633987D01*
X174036074Y-99627432D01*
X174050509Y-99608621D01*
X174061376Y-99596230D01*
X175441225Y-98216381D01*
X185449160Y-98216381D01*
X185449237Y-98217470D01*
X185451698Y-98221206D01*
X185725632Y-98431404D01*
X185731262Y-98435259D01*
X186031591Y-98617862D01*
X186037593Y-98621080D01*
X186355897Y-98770184D01*
X186362202Y-98772732D01*
X186694743Y-98886587D01*
X186701313Y-98888446D01*
X187044183Y-98965714D01*
X187050912Y-98966853D01*
X187400143Y-99006643D01*
X187406933Y-99007046D01*
X187758419Y-99008886D01*
X187765220Y-99008554D01*
X188114853Y-98972423D01*
X188121581Y-98971357D01*
X188465274Y-98897676D01*
X188471822Y-98895897D01*
X188805549Y-98785527D01*
X188811891Y-98783041D01*
X189131718Y-98637288D01*
X189137777Y-98634121D01*
X189439995Y-98454676D01*
X189445659Y-98450884D01*
X189726732Y-98239849D01*
X189731958Y-98235464D01*
X189741613Y-98226428D01*
X189749682Y-98212750D01*
X189749654Y-98212024D01*
X189744512Y-98203723D01*
X187612810Y-96072020D01*
X187598869Y-96064408D01*
X187597034Y-96064539D01*
X187590420Y-96068790D01*
X185456774Y-98202437D01*
X185449160Y-98216381D01*
X175441225Y-98216381D01*
X177965774Y-95691832D01*
X184287333Y-95691832D01*
X184305117Y-96042893D01*
X184305827Y-96049649D01*
X184361420Y-96396723D01*
X184362859Y-96403378D01*
X184455608Y-96742410D01*
X184457757Y-96748871D01*
X184586581Y-97075912D01*
X184589412Y-97082095D01*
X184752803Y-97393310D01*
X184756286Y-97399152D01*
X184952330Y-97690896D01*
X184956433Y-97696340D01*
X185076425Y-97838836D01*
X185089164Y-97847279D01*
X185099608Y-97841181D01*
X187227980Y-95712810D01*
X187234357Y-95701131D01*
X187964408Y-95701131D01*
X187964539Y-95702966D01*
X187968790Y-95709580D01*
X190099009Y-97839798D01*
X190112605Y-97847223D01*
X190122218Y-97840522D01*
X190222518Y-97723912D01*
X190226676Y-97718514D01*
X190425762Y-97428840D01*
X190429310Y-97423029D01*
X190595942Y-97113559D01*
X190598849Y-97107381D01*
X190731090Y-96781713D01*
X190733304Y-96775283D01*
X190829598Y-96437237D01*
X190831105Y-96430607D01*
X190890332Y-96084118D01*
X190891112Y-96077378D01*
X190912668Y-95724925D01*
X190912784Y-95721323D01*
X190912853Y-95701819D01*
X190912761Y-95698194D01*
X190893666Y-95345615D01*
X190892931Y-95338849D01*
X190836130Y-94991985D01*
X190834663Y-94985313D01*
X190740736Y-94646627D01*
X190738562Y-94640163D01*
X190608598Y-94313578D01*
X190605742Y-94307398D01*
X190441269Y-93996763D01*
X190437769Y-93990937D01*
X190240697Y-93699862D01*
X190236590Y-93694453D01*
X190123565Y-93561179D01*
X190110740Y-93552743D01*
X190100416Y-93558795D01*
X187972020Y-95687190D01*
X187964408Y-95701131D01*
X187234357Y-95701131D01*
X187235592Y-95698869D01*
X187235461Y-95697034D01*
X187231210Y-95690420D01*
X185100992Y-93560203D01*
X185087455Y-93552811D01*
X185077753Y-93559599D01*
X184970430Y-93685257D01*
X184966296Y-93690664D01*
X184768215Y-93981041D01*
X184764697Y-93986851D01*
X184599134Y-94296922D01*
X184596259Y-94303087D01*
X184465155Y-94629218D01*
X184462962Y-94635658D01*
X184367846Y-94974044D01*
X184366363Y-94980679D01*
X184308350Y-95327354D01*
X184307591Y-95334126D01*
X184287357Y-95685037D01*
X184287333Y-95691832D01*
X177965774Y-95691832D01*
X180470744Y-93186862D01*
X185449950Y-93186862D01*
X185449986Y-93187704D01*
X185455037Y-93195826D01*
X186891589Y-94632379D01*
X187587190Y-95327980D01*
X187601131Y-95335592D01*
X187602966Y-95335461D01*
X187609580Y-95331210D01*
X188308411Y-94632379D01*
X189742798Y-93197991D01*
X189750412Y-93184047D01*
X189750344Y-93183090D01*
X189745834Y-93176271D01*
X189744418Y-93175065D01*
X189464813Y-92962064D01*
X189459187Y-92958240D01*
X189158214Y-92776681D01*
X189152202Y-92773484D01*
X188833370Y-92625487D01*
X188827070Y-92622967D01*
X188494129Y-92510273D01*
X188487551Y-92508437D01*
X188144417Y-92432367D01*
X188137678Y-92431251D01*
X187788310Y-92392680D01*
X187781529Y-92392301D01*
X187430015Y-92391687D01*
X187423242Y-92392042D01*
X187073720Y-92429395D01*
X187067010Y-92430482D01*
X186723586Y-92505361D01*
X186717011Y-92507172D01*
X186383683Y-92618702D01*
X186377361Y-92621205D01*
X186058034Y-92768079D01*
X186051991Y-92771265D01*
X185750401Y-92951763D01*
X185744755Y-92955571D01*
X185464408Y-93167596D01*
X185459211Y-93171987D01*
X185457972Y-93173155D01*
X185449950Y-93186862D01*
X180470744Y-93186862D01*
X183912201Y-89745405D01*
X183974513Y-89711379D01*
X184001296Y-89708500D01*
X187744364Y-89708500D01*
X187760807Y-89709578D01*
X187792500Y-89713750D01*
X187800689Y-89712672D01*
X187832374Y-89708501D01*
X187832384Y-89708500D01*
X187832385Y-89708500D01*
X187931957Y-89695391D01*
X187943164Y-89693916D01*
X187943166Y-89693915D01*
X187951351Y-89692838D01*
X188099376Y-89631524D01*
X188158192Y-89586393D01*
X188194572Y-89558477D01*
X188194575Y-89558474D01*
X188219937Y-89539013D01*
X188226487Y-89533987D01*
X188245958Y-89508613D01*
X188256816Y-89496233D01*
X188558868Y-89194181D01*
X188621180Y-89160155D01*
X188680574Y-89161569D01*
X188766598Y-89184619D01*
X188766600Y-89184619D01*
X188771913Y-89186043D01*
X189000000Y-89205998D01*
X189228087Y-89186043D01*
X189233400Y-89184619D01*
X189233402Y-89184619D01*
X189443933Y-89128207D01*
X189443935Y-89128206D01*
X189449243Y-89126784D01*
X189476678Y-89113991D01*
X189651762Y-89032349D01*
X189651767Y-89032346D01*
X189656749Y-89030023D01*
X189817141Y-88917715D01*
X189839789Y-88901857D01*
X189839792Y-88901855D01*
X189844300Y-88898698D01*
X190006198Y-88736800D01*
X190016057Y-88722721D01*
X190124060Y-88568476D01*
X190137523Y-88549249D01*
X190139846Y-88544267D01*
X190139849Y-88544262D01*
X190231961Y-88346725D01*
X190231961Y-88346724D01*
X190234284Y-88341743D01*
X190236458Y-88333632D01*
X190292119Y-88125902D01*
X190292120Y-88125899D01*
X190293543Y-88120587D01*
X190313498Y-87892500D01*
X190293543Y-87664413D01*
X190289516Y-87649385D01*
X190235707Y-87448567D01*
X190235706Y-87448565D01*
X190234284Y-87443257D01*
X190191543Y-87351597D01*
X190139849Y-87240738D01*
X190139846Y-87240733D01*
X190137523Y-87235751D01*
X190006198Y-87048200D01*
X189844300Y-86886302D01*
X189839792Y-86883145D01*
X189839789Y-86883143D01*
X189721048Y-86800000D01*
X189656749Y-86754977D01*
X189651765Y-86752653D01*
X189649472Y-86751329D01*
X189600479Y-86699947D01*
X189587043Y-86630233D01*
X189613429Y-86564322D01*
X189649472Y-86533091D01*
X189661002Y-86526434D01*
X189713048Y-86489991D01*
X189721424Y-86479512D01*
X189714356Y-86466066D01*
X189012812Y-85764522D01*
X188998868Y-85756908D01*
X188997035Y-85757039D01*
X188990420Y-85761290D01*
X188284923Y-86466787D01*
X188278493Y-86478562D01*
X188287789Y-86490577D01*
X188338998Y-86526434D01*
X188350528Y-86533091D01*
X188399521Y-86584473D01*
X188412958Y-86654187D01*
X188386571Y-86720098D01*
X188350528Y-86751329D01*
X188348235Y-86752653D01*
X188343251Y-86754977D01*
X188278952Y-86800000D01*
X188160211Y-86883143D01*
X188160208Y-86883145D01*
X188155700Y-86886302D01*
X187993802Y-87048200D01*
X187862477Y-87235751D01*
X187860154Y-87240733D01*
X187860151Y-87240738D01*
X187808457Y-87351597D01*
X187765716Y-87443257D01*
X187764294Y-87448565D01*
X187764293Y-87448567D01*
X187710484Y-87649385D01*
X187706457Y-87664413D01*
X187686502Y-87892500D01*
X187706457Y-88120587D01*
X187707880Y-88125899D01*
X187707881Y-88125902D01*
X187730931Y-88211926D01*
X187729241Y-88282903D01*
X187698319Y-88333632D01*
X187577356Y-88454595D01*
X187515044Y-88488621D01*
X187488261Y-88491500D01*
X187158363Y-88491500D01*
X187090242Y-88471498D01*
X187043749Y-88417842D01*
X187033645Y-88347568D01*
X187036654Y-88332899D01*
X187093543Y-88120587D01*
X187113498Y-87892500D01*
X187093543Y-87664413D01*
X187089516Y-87649385D01*
X187035707Y-87448567D01*
X187035706Y-87448565D01*
X187034284Y-87443257D01*
X186991543Y-87351597D01*
X186939849Y-87240738D01*
X186939846Y-87240733D01*
X186937523Y-87235751D01*
X186806198Y-87048200D01*
X186644300Y-86886302D01*
X186639792Y-86883145D01*
X186639789Y-86883143D01*
X186521048Y-86800000D01*
X186456749Y-86754977D01*
X186451767Y-86752654D01*
X186449973Y-86751618D01*
X186400981Y-86700234D01*
X186387546Y-86630521D01*
X186413934Y-86564610D01*
X186449973Y-86533382D01*
X186451767Y-86532346D01*
X186456749Y-86530023D01*
X186558927Y-86458477D01*
X186639789Y-86401857D01*
X186639792Y-86401855D01*
X186644300Y-86398698D01*
X186806198Y-86236800D01*
X186937523Y-86049249D01*
X186939846Y-86044267D01*
X186939849Y-86044262D01*
X187031961Y-85846725D01*
X187031961Y-85846724D01*
X187034284Y-85841743D01*
X187036171Y-85834703D01*
X187092119Y-85625902D01*
X187092119Y-85625900D01*
X187093543Y-85620587D01*
X187113019Y-85397975D01*
X187687483Y-85397975D01*
X187706472Y-85615019D01*
X187708375Y-85625812D01*
X187764764Y-85836261D01*
X187768510Y-85846553D01*
X187860586Y-86044011D01*
X187866069Y-86053506D01*
X187902509Y-86105548D01*
X187912988Y-86113924D01*
X187926434Y-86106856D01*
X188627978Y-85405312D01*
X188634356Y-85393632D01*
X189364408Y-85393632D01*
X189364539Y-85395465D01*
X189368790Y-85402080D01*
X190074287Y-86107577D01*
X190086062Y-86114007D01*
X190098077Y-86104711D01*
X190133931Y-86053506D01*
X190139414Y-86044011D01*
X190231490Y-85846553D01*
X190235236Y-85836261D01*
X190291625Y-85625812D01*
X190293528Y-85615019D01*
X190312517Y-85397975D01*
X190312517Y-85387025D01*
X190293528Y-85169981D01*
X190291625Y-85159188D01*
X190235236Y-84948739D01*
X190231490Y-84938447D01*
X190139414Y-84740989D01*
X190133931Y-84731494D01*
X190097491Y-84679452D01*
X190087012Y-84671076D01*
X190073566Y-84678144D01*
X189372022Y-85379688D01*
X189364408Y-85393632D01*
X188634356Y-85393632D01*
X188635592Y-85391368D01*
X188635461Y-85389535D01*
X188631210Y-85382920D01*
X187925713Y-84677423D01*
X187913938Y-84670993D01*
X187901923Y-84680289D01*
X187866069Y-84731494D01*
X187860586Y-84740989D01*
X187768510Y-84938447D01*
X187764764Y-84948739D01*
X187708375Y-85159188D01*
X187706472Y-85169981D01*
X187687483Y-85387025D01*
X187687483Y-85397975D01*
X187113019Y-85397975D01*
X187113498Y-85392500D01*
X187093543Y-85164413D01*
X187065157Y-85058475D01*
X187035707Y-84948567D01*
X187035706Y-84948565D01*
X187034284Y-84943257D01*
X187024672Y-84922644D01*
X186939849Y-84740738D01*
X186939846Y-84740733D01*
X186937523Y-84735751D01*
X186839812Y-84596206D01*
X186809357Y-84552711D01*
X186809355Y-84552708D01*
X186806198Y-84548200D01*
X186644300Y-84386302D01*
X186639792Y-84383145D01*
X186639789Y-84383143D01*
X186493549Y-84280745D01*
X186456749Y-84254977D01*
X186451767Y-84252654D01*
X186449973Y-84251618D01*
X186400981Y-84200234D01*
X186387546Y-84130521D01*
X186413934Y-84064610D01*
X186449973Y-84033382D01*
X186451767Y-84032346D01*
X186456749Y-84030023D01*
X186576188Y-83946391D01*
X186639789Y-83901857D01*
X186639792Y-83901855D01*
X186644300Y-83898698D01*
X186802364Y-83740634D01*
X187691500Y-83740634D01*
X187698255Y-83802816D01*
X187749385Y-83939205D01*
X187836739Y-84055761D01*
X187953295Y-84143115D01*
X188089684Y-84194245D01*
X188133252Y-84198978D01*
X188148486Y-84200633D01*
X188148489Y-84200633D01*
X188151866Y-84201000D01*
X188155185Y-84201000D01*
X188222110Y-84224653D01*
X188257804Y-84270656D01*
X188259734Y-84269641D01*
X188265442Y-84280500D01*
X188265632Y-84280745D01*
X188265653Y-84280903D01*
X188285644Y-84318934D01*
X188987188Y-85020478D01*
X189001132Y-85028092D01*
X189002965Y-85027961D01*
X189009580Y-85023710D01*
X189715077Y-84318213D01*
X189737871Y-84276471D01*
X189740047Y-84266471D01*
X189790253Y-84216273D01*
X189843814Y-84201049D01*
X189844719Y-84201000D01*
X189848134Y-84201000D01*
X189851530Y-84200631D01*
X189851532Y-84200631D01*
X189863879Y-84199290D01*
X189910316Y-84194245D01*
X190046705Y-84143115D01*
X190163261Y-84055761D01*
X190250615Y-83939205D01*
X190301745Y-83802816D01*
X190308500Y-83740634D01*
X190308500Y-82044366D01*
X190301745Y-81982184D01*
X190250615Y-81845795D01*
X190163261Y-81729239D01*
X190046705Y-81641885D01*
X189910316Y-81590755D01*
X189848134Y-81584000D01*
X188151866Y-81584000D01*
X188089684Y-81590755D01*
X187953295Y-81641885D01*
X187836739Y-81729239D01*
X187749385Y-81845795D01*
X187698255Y-81982184D01*
X187691500Y-82044366D01*
X187691500Y-83740634D01*
X186802364Y-83740634D01*
X186806198Y-83736800D01*
X186816358Y-83722291D01*
X186897647Y-83606197D01*
X186937523Y-83549249D01*
X186939846Y-83544267D01*
X186939849Y-83544262D01*
X187031961Y-83346725D01*
X187031961Y-83346724D01*
X187034284Y-83341743D01*
X187059278Y-83248467D01*
X187092119Y-83125902D01*
X187092119Y-83125900D01*
X187093543Y-83120587D01*
X187113498Y-82892500D01*
X187093543Y-82664413D01*
X187091312Y-82656085D01*
X187035707Y-82448567D01*
X187035706Y-82448565D01*
X187034284Y-82443257D01*
X187021543Y-82415933D01*
X186939849Y-82240738D01*
X186939846Y-82240733D01*
X186937523Y-82235751D01*
X186806198Y-82048200D01*
X186644300Y-81886302D01*
X186639792Y-81883145D01*
X186639789Y-81883143D01*
X186549123Y-81819658D01*
X186456749Y-81754977D01*
X186451767Y-81752654D01*
X186451762Y-81752651D01*
X186254225Y-81660539D01*
X186254224Y-81660539D01*
X186249243Y-81658216D01*
X186243935Y-81656794D01*
X186243933Y-81656793D01*
X186033402Y-81600381D01*
X186033400Y-81600381D01*
X186028087Y-81598957D01*
X185800000Y-81579002D01*
X185571913Y-81598957D01*
X185566600Y-81600381D01*
X185566598Y-81600381D01*
X185356067Y-81656793D01*
X185356065Y-81656794D01*
X185350757Y-81658216D01*
X185345776Y-81660539D01*
X185345775Y-81660539D01*
X185148238Y-81752651D01*
X185148233Y-81752654D01*
X185143251Y-81754977D01*
X185050877Y-81819658D01*
X184960211Y-81883143D01*
X184960208Y-81883145D01*
X184955700Y-81886302D01*
X184793802Y-82048200D01*
X184662477Y-82235751D01*
X184660154Y-82240733D01*
X184660151Y-82240738D01*
X184578457Y-82415933D01*
X184565716Y-82443257D01*
X184564294Y-82448565D01*
X184564293Y-82448567D01*
X184508688Y-82656085D01*
X184506457Y-82664413D01*
X184486502Y-82892500D01*
X184506457Y-83120587D01*
X184507881Y-83125900D01*
X184507881Y-83125902D01*
X184540723Y-83248467D01*
X184565716Y-83341743D01*
X184568039Y-83346724D01*
X184568039Y-83346725D01*
X184660151Y-83544262D01*
X184660154Y-83544267D01*
X184662477Y-83549249D01*
X184702353Y-83606197D01*
X184783643Y-83722291D01*
X184793802Y-83736800D01*
X184955700Y-83898698D01*
X184960208Y-83901855D01*
X184960211Y-83901857D01*
X185023812Y-83946391D01*
X185143251Y-84030023D01*
X185148233Y-84032346D01*
X185150027Y-84033382D01*
X185199019Y-84084766D01*
X185212454Y-84154479D01*
X185186066Y-84220390D01*
X185150027Y-84251618D01*
X185148233Y-84252654D01*
X185143251Y-84254977D01*
X185106451Y-84280745D01*
X184960211Y-84383143D01*
X184960208Y-84383145D01*
X184955700Y-84386302D01*
X184793802Y-84548200D01*
X184790645Y-84552708D01*
X184790643Y-84552711D01*
X184760188Y-84596206D01*
X184662477Y-84735751D01*
X184660154Y-84740733D01*
X184660151Y-84740738D01*
X184575328Y-84922644D01*
X184565716Y-84943257D01*
X184564294Y-84948565D01*
X184564293Y-84948567D01*
X184534843Y-85058475D01*
X184506457Y-85164413D01*
X184486502Y-85392500D01*
X184506457Y-85620587D01*
X184507881Y-85625900D01*
X184507881Y-85625902D01*
X184563830Y-85834703D01*
X184565716Y-85841743D01*
X184568039Y-85846724D01*
X184568039Y-85846725D01*
X184660151Y-86044262D01*
X184660154Y-86044267D01*
X184662477Y-86049249D01*
X184793802Y-86236800D01*
X184955700Y-86398698D01*
X184960208Y-86401855D01*
X184960211Y-86401857D01*
X185041073Y-86458477D01*
X185143251Y-86530023D01*
X185148233Y-86532346D01*
X185150027Y-86533382D01*
X185199019Y-86584766D01*
X185212454Y-86654479D01*
X185186066Y-86720390D01*
X185150027Y-86751618D01*
X185148233Y-86752654D01*
X185143251Y-86754977D01*
X185078952Y-86800000D01*
X184960211Y-86883143D01*
X184960208Y-86883145D01*
X184955700Y-86886302D01*
X184793802Y-87048200D01*
X184662477Y-87235751D01*
X184660154Y-87240733D01*
X184660151Y-87240738D01*
X184608457Y-87351597D01*
X184565716Y-87443257D01*
X184564294Y-87448565D01*
X184564293Y-87448567D01*
X184510484Y-87649385D01*
X184506457Y-87664413D01*
X184486502Y-87892500D01*
X184506457Y-88120587D01*
X184563344Y-88332890D01*
X184561654Y-88403865D01*
X184521860Y-88462661D01*
X184456596Y-88490609D01*
X184441637Y-88491500D01*
X183745193Y-88491500D01*
X183728750Y-88490422D01*
X183697057Y-88486250D01*
X183688868Y-88487328D01*
X183657183Y-88491499D01*
X183657174Y-88491500D01*
X183657172Y-88491500D01*
X183657166Y-88491501D01*
X183657164Y-88491501D01*
X183557600Y-88504609D01*
X183546393Y-88506084D01*
X183546391Y-88506085D01*
X183538206Y-88507162D01*
X183390181Y-88568476D01*
X183383630Y-88573503D01*
X183383628Y-88573504D01*
X183307244Y-88632116D01*
X183294985Y-88641523D01*
X183294982Y-88641526D01*
X183263070Y-88666013D01*
X183258040Y-88672568D01*
X183243605Y-88691379D01*
X183232738Y-88703770D01*
X179823595Y-92112913D01*
X179761283Y-92146939D01*
X179690468Y-92141874D01*
X179633632Y-92099327D01*
X179608821Y-92032807D01*
X179608500Y-92023818D01*
X179608500Y-89129399D01*
X179628502Y-89061278D01*
X179662229Y-89026186D01*
X179839789Y-88901857D01*
X179839792Y-88901855D01*
X179844300Y-88898698D01*
X180006198Y-88736800D01*
X180016057Y-88722721D01*
X180124060Y-88568476D01*
X180137523Y-88549249D01*
X180139846Y-88544267D01*
X180139849Y-88544262D01*
X180231961Y-88346725D01*
X180231961Y-88346724D01*
X180234284Y-88341743D01*
X180236458Y-88333632D01*
X180292119Y-88125902D01*
X180292120Y-88125899D01*
X180293543Y-88120587D01*
X180313498Y-87892500D01*
X180293543Y-87664413D01*
X180289516Y-87649385D01*
X180235707Y-87448567D01*
X180235706Y-87448565D01*
X180234284Y-87443257D01*
X180191543Y-87351597D01*
X180139849Y-87240738D01*
X180139846Y-87240733D01*
X180137523Y-87235751D01*
X180006198Y-87048200D01*
X179844300Y-86886302D01*
X179839792Y-86883145D01*
X179839789Y-86883143D01*
X179721048Y-86800000D01*
X179656749Y-86754977D01*
X179651765Y-86752653D01*
X179649472Y-86751329D01*
X179600479Y-86699947D01*
X179587043Y-86630233D01*
X179613429Y-86564322D01*
X179649472Y-86533091D01*
X179661002Y-86526434D01*
X179713048Y-86489991D01*
X179721424Y-86479512D01*
X179714356Y-86466066D01*
X179012812Y-85764522D01*
X178998868Y-85756908D01*
X178997035Y-85757039D01*
X178990420Y-85761290D01*
X178284923Y-86466787D01*
X178278493Y-86478562D01*
X178287789Y-86490577D01*
X178338998Y-86526434D01*
X178350528Y-86533091D01*
X178399521Y-86584473D01*
X178412958Y-86654187D01*
X178386571Y-86720098D01*
X178350528Y-86751329D01*
X178348235Y-86752653D01*
X178343251Y-86754977D01*
X178278952Y-86800000D01*
X178160211Y-86883143D01*
X178160208Y-86883145D01*
X178155700Y-86886302D01*
X177993802Y-87048200D01*
X177862477Y-87235751D01*
X177860154Y-87240733D01*
X177860151Y-87240738D01*
X177808457Y-87351597D01*
X177765716Y-87443257D01*
X177764294Y-87448565D01*
X177764293Y-87448567D01*
X177710484Y-87649385D01*
X177706457Y-87664413D01*
X177686502Y-87892500D01*
X177706457Y-88120587D01*
X177707880Y-88125899D01*
X177707881Y-88125902D01*
X177763543Y-88333632D01*
X177765716Y-88341743D01*
X177768039Y-88346724D01*
X177768039Y-88346725D01*
X177860151Y-88544262D01*
X177860154Y-88544267D01*
X177862477Y-88549249D01*
X177875940Y-88568476D01*
X177983944Y-88722721D01*
X177993802Y-88736800D01*
X178155700Y-88898698D01*
X178160208Y-88901855D01*
X178160211Y-88901857D01*
X178337771Y-89026186D01*
X178382099Y-89081643D01*
X178391500Y-89129399D01*
X178391500Y-92927132D01*
X178371498Y-92995253D01*
X178354595Y-93016227D01*
X173216227Y-98154595D01*
X173153915Y-98188621D01*
X173127132Y-98191500D01*
X164873239Y-98191500D01*
X164805118Y-98171498D01*
X164758625Y-98117842D01*
X164748521Y-98047568D01*
X164778015Y-97982988D01*
X164784144Y-97976405D01*
X169396234Y-93364315D01*
X169408625Y-93353448D01*
X169427437Y-93339013D01*
X169433987Y-93333987D01*
X169458474Y-93302075D01*
X169458478Y-93302071D01*
X169531524Y-93206876D01*
X169592838Y-93058851D01*
X169613751Y-92900000D01*
X169609578Y-92868301D01*
X169608500Y-92851856D01*
X169608500Y-89129399D01*
X169628502Y-89061278D01*
X169662229Y-89026186D01*
X169839789Y-88901857D01*
X169839792Y-88901855D01*
X169844300Y-88898698D01*
X170006198Y-88736800D01*
X170016057Y-88722721D01*
X170124060Y-88568476D01*
X170137523Y-88549249D01*
X170139846Y-88544267D01*
X170139849Y-88544262D01*
X170231961Y-88346725D01*
X170231961Y-88346724D01*
X170234284Y-88341743D01*
X170236458Y-88333632D01*
X170292119Y-88125902D01*
X170292120Y-88125899D01*
X170293543Y-88120587D01*
X170313498Y-87892500D01*
X174486502Y-87892500D01*
X174506457Y-88120587D01*
X174507880Y-88125899D01*
X174507881Y-88125902D01*
X174563543Y-88333632D01*
X174565716Y-88341743D01*
X174568039Y-88346724D01*
X174568039Y-88346725D01*
X174660151Y-88544262D01*
X174660154Y-88544267D01*
X174662477Y-88549249D01*
X174675940Y-88568476D01*
X174783944Y-88722721D01*
X174793802Y-88736800D01*
X174955700Y-88898698D01*
X174960208Y-88901855D01*
X174960211Y-88901857D01*
X174982859Y-88917715D01*
X175143251Y-89030023D01*
X175148233Y-89032346D01*
X175148238Y-89032349D01*
X175323322Y-89113991D01*
X175350757Y-89126784D01*
X175356065Y-89128206D01*
X175356067Y-89128207D01*
X175566598Y-89184619D01*
X175566600Y-89184619D01*
X175571913Y-89186043D01*
X175800000Y-89205998D01*
X176028087Y-89186043D01*
X176033400Y-89184619D01*
X176033402Y-89184619D01*
X176243933Y-89128207D01*
X176243935Y-89128206D01*
X176249243Y-89126784D01*
X176276678Y-89113991D01*
X176451762Y-89032349D01*
X176451767Y-89032346D01*
X176456749Y-89030023D01*
X176617141Y-88917715D01*
X176639789Y-88901857D01*
X176639792Y-88901855D01*
X176644300Y-88898698D01*
X176806198Y-88736800D01*
X176816057Y-88722721D01*
X176924060Y-88568476D01*
X176937523Y-88549249D01*
X176939846Y-88544267D01*
X176939849Y-88544262D01*
X177031961Y-88346725D01*
X177031961Y-88346724D01*
X177034284Y-88341743D01*
X177036458Y-88333632D01*
X177092119Y-88125902D01*
X177092120Y-88125899D01*
X177093543Y-88120587D01*
X177113498Y-87892500D01*
X177093543Y-87664413D01*
X177089516Y-87649385D01*
X177035707Y-87448567D01*
X177035706Y-87448565D01*
X177034284Y-87443257D01*
X176991543Y-87351597D01*
X176939849Y-87240738D01*
X176939846Y-87240733D01*
X176937523Y-87235751D01*
X176806198Y-87048200D01*
X176644300Y-86886302D01*
X176639792Y-86883145D01*
X176639789Y-86883143D01*
X176521048Y-86800000D01*
X176456749Y-86754977D01*
X176451767Y-86752654D01*
X176449973Y-86751618D01*
X176400981Y-86700234D01*
X176387546Y-86630521D01*
X176413934Y-86564610D01*
X176449973Y-86533382D01*
X176451767Y-86532346D01*
X176456749Y-86530023D01*
X176558927Y-86458477D01*
X176639789Y-86401857D01*
X176639792Y-86401855D01*
X176644300Y-86398698D01*
X176806198Y-86236800D01*
X176937523Y-86049249D01*
X176939846Y-86044267D01*
X176939849Y-86044262D01*
X177031961Y-85846725D01*
X177031961Y-85846724D01*
X177034284Y-85841743D01*
X177036171Y-85834703D01*
X177092119Y-85625902D01*
X177092119Y-85625900D01*
X177093543Y-85620587D01*
X177113019Y-85397975D01*
X177687483Y-85397975D01*
X177706472Y-85615019D01*
X177708375Y-85625812D01*
X177764764Y-85836261D01*
X177768510Y-85846553D01*
X177860586Y-86044011D01*
X177866069Y-86053506D01*
X177902509Y-86105548D01*
X177912988Y-86113924D01*
X177926434Y-86106856D01*
X178627978Y-85405312D01*
X178634356Y-85393632D01*
X179364408Y-85393632D01*
X179364539Y-85395465D01*
X179368790Y-85402080D01*
X180074287Y-86107577D01*
X180086062Y-86114007D01*
X180098077Y-86104711D01*
X180133931Y-86053506D01*
X180139414Y-86044011D01*
X180231490Y-85846553D01*
X180235236Y-85836261D01*
X180291625Y-85625812D01*
X180293528Y-85615019D01*
X180312517Y-85397975D01*
X180312517Y-85387025D01*
X180293528Y-85169981D01*
X180291625Y-85159188D01*
X180235236Y-84948739D01*
X180231490Y-84938447D01*
X180139414Y-84740989D01*
X180133931Y-84731494D01*
X180097491Y-84679452D01*
X180087012Y-84671076D01*
X180073566Y-84678144D01*
X179372022Y-85379688D01*
X179364408Y-85393632D01*
X178634356Y-85393632D01*
X178635592Y-85391368D01*
X178635461Y-85389535D01*
X178631210Y-85382920D01*
X177925713Y-84677423D01*
X177913938Y-84670993D01*
X177901923Y-84680289D01*
X177866069Y-84731494D01*
X177860586Y-84740989D01*
X177768510Y-84938447D01*
X177764764Y-84948739D01*
X177708375Y-85159188D01*
X177706472Y-85169981D01*
X177687483Y-85387025D01*
X177687483Y-85397975D01*
X177113019Y-85397975D01*
X177113498Y-85392500D01*
X177093543Y-85164413D01*
X177065157Y-85058475D01*
X177035707Y-84948567D01*
X177035706Y-84948565D01*
X177034284Y-84943257D01*
X177024672Y-84922644D01*
X176939849Y-84740738D01*
X176939846Y-84740733D01*
X176937523Y-84735751D01*
X176839812Y-84596206D01*
X176809357Y-84552711D01*
X176809355Y-84552708D01*
X176806198Y-84548200D01*
X176644300Y-84386302D01*
X176639792Y-84383145D01*
X176639789Y-84383143D01*
X176493549Y-84280745D01*
X176456749Y-84254977D01*
X176451767Y-84252654D01*
X176449973Y-84251618D01*
X176400981Y-84200234D01*
X176387546Y-84130521D01*
X176413934Y-84064610D01*
X176449973Y-84033382D01*
X176451767Y-84032346D01*
X176456749Y-84030023D01*
X176576188Y-83946391D01*
X176639789Y-83901857D01*
X176639792Y-83901855D01*
X176644300Y-83898698D01*
X176802364Y-83740634D01*
X177691500Y-83740634D01*
X177698255Y-83802816D01*
X177749385Y-83939205D01*
X177836739Y-84055761D01*
X177953295Y-84143115D01*
X178089684Y-84194245D01*
X178133252Y-84198978D01*
X178148486Y-84200633D01*
X178148489Y-84200633D01*
X178151866Y-84201000D01*
X178155185Y-84201000D01*
X178222110Y-84224653D01*
X178257804Y-84270656D01*
X178259734Y-84269641D01*
X178265442Y-84280500D01*
X178265632Y-84280745D01*
X178265653Y-84280903D01*
X178285644Y-84318934D01*
X178987188Y-85020478D01*
X179001132Y-85028092D01*
X179002965Y-85027961D01*
X179009580Y-85023710D01*
X179715077Y-84318213D01*
X179737871Y-84276471D01*
X179740047Y-84266471D01*
X179790253Y-84216273D01*
X179843814Y-84201049D01*
X179844719Y-84201000D01*
X179848134Y-84201000D01*
X179851530Y-84200631D01*
X179851532Y-84200631D01*
X179863879Y-84199290D01*
X179910316Y-84194245D01*
X180046705Y-84143115D01*
X180163261Y-84055761D01*
X180250615Y-83939205D01*
X180301745Y-83802816D01*
X180308500Y-83740634D01*
X180308500Y-82044366D01*
X180301745Y-81982184D01*
X180250615Y-81845795D01*
X180163261Y-81729239D01*
X180046705Y-81641885D01*
X179910316Y-81590755D01*
X179848134Y-81584000D01*
X178151866Y-81584000D01*
X178089684Y-81590755D01*
X177953295Y-81641885D01*
X177836739Y-81729239D01*
X177749385Y-81845795D01*
X177698255Y-81982184D01*
X177691500Y-82044366D01*
X177691500Y-83740634D01*
X176802364Y-83740634D01*
X176806198Y-83736800D01*
X176816358Y-83722291D01*
X176897647Y-83606197D01*
X176937523Y-83549249D01*
X176939846Y-83544267D01*
X176939849Y-83544262D01*
X177031961Y-83346725D01*
X177031961Y-83346724D01*
X177034284Y-83341743D01*
X177059278Y-83248467D01*
X177092119Y-83125902D01*
X177092119Y-83125900D01*
X177093543Y-83120587D01*
X177113498Y-82892500D01*
X177093543Y-82664413D01*
X177091312Y-82656085D01*
X177035707Y-82448567D01*
X177035706Y-82448565D01*
X177034284Y-82443257D01*
X177021543Y-82415933D01*
X176939849Y-82240738D01*
X176939846Y-82240733D01*
X176937523Y-82235751D01*
X176806198Y-82048200D01*
X176644300Y-81886302D01*
X176639792Y-81883145D01*
X176639789Y-81883143D01*
X176549123Y-81819658D01*
X176456749Y-81754977D01*
X176451767Y-81752654D01*
X176451762Y-81752651D01*
X176254225Y-81660539D01*
X176254224Y-81660539D01*
X176249243Y-81658216D01*
X176243935Y-81656794D01*
X176243933Y-81656793D01*
X176033402Y-81600381D01*
X176033400Y-81600381D01*
X176028087Y-81598957D01*
X175800000Y-81579002D01*
X175571913Y-81598957D01*
X175566600Y-81600381D01*
X175566598Y-81600381D01*
X175356067Y-81656793D01*
X175356065Y-81656794D01*
X175350757Y-81658216D01*
X175345776Y-81660539D01*
X175345775Y-81660539D01*
X175148238Y-81752651D01*
X175148233Y-81752654D01*
X175143251Y-81754977D01*
X175050877Y-81819658D01*
X174960211Y-81883143D01*
X174960208Y-81883145D01*
X174955700Y-81886302D01*
X174793802Y-82048200D01*
X174662477Y-82235751D01*
X174660154Y-82240733D01*
X174660151Y-82240738D01*
X174578457Y-82415933D01*
X174565716Y-82443257D01*
X174564294Y-82448565D01*
X174564293Y-82448567D01*
X174508688Y-82656085D01*
X174506457Y-82664413D01*
X174486502Y-82892500D01*
X174506457Y-83120587D01*
X174507881Y-83125900D01*
X174507881Y-83125902D01*
X174540723Y-83248467D01*
X174565716Y-83341743D01*
X174568039Y-83346724D01*
X174568039Y-83346725D01*
X174660151Y-83544262D01*
X174660154Y-83544267D01*
X174662477Y-83549249D01*
X174702353Y-83606197D01*
X174783643Y-83722291D01*
X174793802Y-83736800D01*
X174955700Y-83898698D01*
X174960208Y-83901855D01*
X174960211Y-83901857D01*
X175023812Y-83946391D01*
X175143251Y-84030023D01*
X175148233Y-84032346D01*
X175150027Y-84033382D01*
X175199019Y-84084766D01*
X175212454Y-84154479D01*
X175186066Y-84220390D01*
X175150027Y-84251618D01*
X175148233Y-84252654D01*
X175143251Y-84254977D01*
X175106451Y-84280745D01*
X174960211Y-84383143D01*
X174960208Y-84383145D01*
X174955700Y-84386302D01*
X174793802Y-84548200D01*
X174790645Y-84552708D01*
X174790643Y-84552711D01*
X174760188Y-84596206D01*
X174662477Y-84735751D01*
X174660154Y-84740733D01*
X174660151Y-84740738D01*
X174575328Y-84922644D01*
X174565716Y-84943257D01*
X174564294Y-84948565D01*
X174564293Y-84948567D01*
X174534843Y-85058475D01*
X174506457Y-85164413D01*
X174486502Y-85392500D01*
X174506457Y-85620587D01*
X174507881Y-85625900D01*
X174507881Y-85625902D01*
X174563830Y-85834703D01*
X174565716Y-85841743D01*
X174568039Y-85846724D01*
X174568039Y-85846725D01*
X174660151Y-86044262D01*
X174660154Y-86044267D01*
X174662477Y-86049249D01*
X174793802Y-86236800D01*
X174955700Y-86398698D01*
X174960208Y-86401855D01*
X174960211Y-86401857D01*
X175041073Y-86458477D01*
X175143251Y-86530023D01*
X175148233Y-86532346D01*
X175150027Y-86533382D01*
X175199019Y-86584766D01*
X175212454Y-86654479D01*
X175186066Y-86720390D01*
X175150027Y-86751618D01*
X175148233Y-86752654D01*
X175143251Y-86754977D01*
X175078952Y-86800000D01*
X174960211Y-86883143D01*
X174960208Y-86883145D01*
X174955700Y-86886302D01*
X174793802Y-87048200D01*
X174662477Y-87235751D01*
X174660154Y-87240733D01*
X174660151Y-87240738D01*
X174608457Y-87351597D01*
X174565716Y-87443257D01*
X174564294Y-87448565D01*
X174564293Y-87448567D01*
X174510484Y-87649385D01*
X174506457Y-87664413D01*
X174486502Y-87892500D01*
X170313498Y-87892500D01*
X170293543Y-87664413D01*
X170289516Y-87649385D01*
X170235707Y-87448567D01*
X170235706Y-87448565D01*
X170234284Y-87443257D01*
X170191543Y-87351597D01*
X170139849Y-87240738D01*
X170139846Y-87240733D01*
X170137523Y-87235751D01*
X170006198Y-87048200D01*
X169844300Y-86886302D01*
X169839792Y-86883145D01*
X169839789Y-86883143D01*
X169721048Y-86800000D01*
X169656749Y-86754977D01*
X169651765Y-86752653D01*
X169649472Y-86751329D01*
X169600479Y-86699947D01*
X169587043Y-86630233D01*
X169613429Y-86564322D01*
X169649472Y-86533091D01*
X169661002Y-86526434D01*
X169713048Y-86489991D01*
X169721424Y-86479512D01*
X169714356Y-86466066D01*
X169012812Y-85764522D01*
X168998868Y-85756908D01*
X168997035Y-85757039D01*
X168990420Y-85761290D01*
X168284923Y-86466787D01*
X168278493Y-86478562D01*
X168287789Y-86490577D01*
X168338998Y-86526434D01*
X168350528Y-86533091D01*
X168399521Y-86584473D01*
X168412958Y-86654187D01*
X168386571Y-86720098D01*
X168350528Y-86751329D01*
X168348235Y-86752653D01*
X168343251Y-86754977D01*
X168278952Y-86800000D01*
X168160211Y-86883143D01*
X168160208Y-86883145D01*
X168155700Y-86886302D01*
X167993802Y-87048200D01*
X167862477Y-87235751D01*
X167860154Y-87240733D01*
X167860151Y-87240738D01*
X167808457Y-87351597D01*
X167765716Y-87443257D01*
X167764294Y-87448565D01*
X167764293Y-87448567D01*
X167710484Y-87649385D01*
X167706457Y-87664413D01*
X167686502Y-87892500D01*
X167706457Y-88120587D01*
X167707880Y-88125899D01*
X167707881Y-88125902D01*
X167763543Y-88333632D01*
X167765716Y-88341743D01*
X167768039Y-88346724D01*
X167768039Y-88346725D01*
X167860151Y-88544262D01*
X167860154Y-88544267D01*
X167862477Y-88549249D01*
X167875940Y-88568476D01*
X167983944Y-88722721D01*
X167993802Y-88736800D01*
X168155700Y-88898698D01*
X168160208Y-88901855D01*
X168160211Y-88901857D01*
X168337771Y-89026186D01*
X168382099Y-89081643D01*
X168391500Y-89129399D01*
X168391500Y-92595761D01*
X168371498Y-92663882D01*
X168354595Y-92684856D01*
X163284856Y-97754595D01*
X163222544Y-97788621D01*
X163195761Y-97791500D01*
X146208442Y-97791500D01*
X146140321Y-97771498D01*
X146093828Y-97717842D01*
X146083511Y-97655173D01*
X146083008Y-97655147D01*
X146083126Y-97652833D01*
X146083098Y-97652662D01*
X146083172Y-97651943D01*
X146083173Y-97651924D01*
X146083500Y-97648732D01*
X146083500Y-97101268D01*
X146072887Y-96998981D01*
X146018756Y-96836732D01*
X145928752Y-96691287D01*
X145923570Y-96686114D01*
X145919023Y-96680377D01*
X145920830Y-96678945D01*
X145892098Y-96626425D01*
X145897108Y-96555605D01*
X145920499Y-96519147D01*
X145919448Y-96518317D01*
X145932998Y-96501160D01*
X146015004Y-96368120D01*
X146021151Y-96354939D01*
X146070491Y-96206186D01*
X146073358Y-96192810D01*
X146082672Y-96101903D01*
X146082929Y-96096874D01*
X146078525Y-96081876D01*
X146077135Y-96080671D01*
X146069452Y-96079000D01*
X144135115Y-96079000D01*
X144119876Y-96083475D01*
X144118671Y-96084865D01*
X144117000Y-96092548D01*
X144117000Y-96095438D01*
X144117337Y-96101953D01*
X144126894Y-96194057D01*
X144129788Y-96207456D01*
X144179381Y-96356107D01*
X144185554Y-96369283D01*
X144202518Y-96396698D01*
X144221355Y-96465150D01*
X144200193Y-96532919D01*
X144145752Y-96578490D01*
X144095373Y-96589000D01*
X143683413Y-96589000D01*
X143615292Y-96568998D01*
X143603380Y-96559398D01*
X143603261Y-96559239D01*
X143598413Y-96555605D01*
X143500328Y-96482095D01*
X143486705Y-96471885D01*
X143350316Y-96420755D01*
X143288134Y-96414000D01*
X142738871Y-96414000D01*
X142670750Y-96393998D01*
X142649776Y-96377095D01*
X142256270Y-95983589D01*
X142243884Y-95969177D01*
X142235351Y-95957582D01*
X142235346Y-95957577D01*
X142231008Y-95951682D01*
X142225430Y-95946943D01*
X142225427Y-95946940D01*
X142190732Y-95917465D01*
X142183216Y-95910535D01*
X142177521Y-95904840D01*
X142171380Y-95899982D01*
X142155249Y-95887219D01*
X142151845Y-95884428D01*
X142101797Y-95841909D01*
X142101795Y-95841908D01*
X142096215Y-95837167D01*
X142089699Y-95833839D01*
X142084650Y-95830472D01*
X142079521Y-95827305D01*
X142073784Y-95822766D01*
X142007625Y-95791845D01*
X142003723Y-95789938D01*
X141992735Y-95784327D01*
X141941163Y-95735533D01*
X141924158Y-95666603D01*
X141947119Y-95599421D01*
X142002756Y-95555319D01*
X142018519Y-95553126D01*
X144117071Y-95553126D01*
X144121475Y-95568124D01*
X144122865Y-95569329D01*
X144130548Y-95571000D01*
X144827885Y-95571000D01*
X144843124Y-95566525D01*
X144844329Y-95565135D01*
X144846000Y-95557452D01*
X144846000Y-95552885D01*
X145354000Y-95552885D01*
X145358475Y-95568124D01*
X145359865Y-95569329D01*
X145367548Y-95571000D01*
X146064885Y-95571000D01*
X146080124Y-95566525D01*
X146081329Y-95565135D01*
X146083000Y-95557452D01*
X146083000Y-95554562D01*
X146082663Y-95548047D01*
X146073106Y-95455943D01*
X146070212Y-95442544D01*
X146020619Y-95293893D01*
X146014445Y-95280714D01*
X145932212Y-95147827D01*
X145923176Y-95136426D01*
X145812571Y-95026014D01*
X145801160Y-95017002D01*
X145668120Y-94934996D01*
X145654939Y-94928849D01*
X145506186Y-94879509D01*
X145492810Y-94876642D01*
X145401903Y-94867328D01*
X145395486Y-94867000D01*
X145372115Y-94867000D01*
X145356876Y-94871475D01*
X145355671Y-94872865D01*
X145354000Y-94880548D01*
X145354000Y-95552885D01*
X144846000Y-95552885D01*
X144846000Y-94885115D01*
X144841525Y-94869876D01*
X144840135Y-94868671D01*
X144832452Y-94867000D01*
X144804562Y-94867000D01*
X144798047Y-94867337D01*
X144705943Y-94876894D01*
X144692544Y-94879788D01*
X144543893Y-94929381D01*
X144530714Y-94935555D01*
X144397827Y-95017788D01*
X144386426Y-95026824D01*
X144276014Y-95137429D01*
X144267002Y-95148840D01*
X144184996Y-95281880D01*
X144178849Y-95295061D01*
X144129509Y-95443814D01*
X144126642Y-95457190D01*
X144117328Y-95548097D01*
X144117071Y-95553126D01*
X142018519Y-95553126D01*
X142063646Y-95546848D01*
X142101866Y-95551000D01*
X143288134Y-95551000D01*
X143350316Y-95544245D01*
X143486705Y-95493115D01*
X143603261Y-95405761D01*
X143690615Y-95289205D01*
X143741745Y-95152816D01*
X143748500Y-95090634D01*
X143748500Y-94144366D01*
X143741745Y-94082184D01*
X143690615Y-93945795D01*
X143603261Y-93829239D01*
X143486705Y-93741885D01*
X143478296Y-93738733D01*
X143478295Y-93738732D01*
X143385271Y-93703859D01*
X143328506Y-93661218D01*
X143303806Y-93594656D01*
X143303500Y-93585877D01*
X143303500Y-92946577D01*
X143323502Y-92878456D01*
X143353938Y-92845748D01*
X143356080Y-92844143D01*
X143356081Y-92844142D01*
X143363261Y-92838761D01*
X143399176Y-92790840D01*
X143456033Y-92748327D01*
X143526851Y-92743301D01*
X143589145Y-92777361D01*
X143600817Y-92790830D01*
X143636739Y-92838761D01*
X143643919Y-92844142D01*
X143650269Y-92850492D01*
X143648634Y-92852127D01*
X143683579Y-92898859D01*
X143691500Y-92942829D01*
X143691500Y-93251864D01*
X143690422Y-93268307D01*
X143686250Y-93300000D01*
X143691500Y-93339880D01*
X143691500Y-93339885D01*
X143704609Y-93439457D01*
X143707162Y-93458851D01*
X143768476Y-93606876D01*
X143773503Y-93613427D01*
X143773504Y-93613429D01*
X143841520Y-93702069D01*
X143841526Y-93702075D01*
X143866013Y-93733987D01*
X143872568Y-93739017D01*
X143891379Y-93753452D01*
X143903770Y-93764319D01*
X144235685Y-94096234D01*
X144246552Y-94108625D01*
X144266013Y-94133987D01*
X144272563Y-94139013D01*
X144297925Y-94158474D01*
X144297928Y-94158477D01*
X144367318Y-94211722D01*
X144386570Y-94226495D01*
X144386572Y-94226496D01*
X144393125Y-94231524D01*
X144541150Y-94292838D01*
X144660115Y-94308500D01*
X144660120Y-94308500D01*
X144660129Y-94308501D01*
X144691812Y-94312672D01*
X144700000Y-94313750D01*
X144731693Y-94309578D01*
X144748136Y-94308500D01*
X156683235Y-94308500D01*
X156699678Y-94309578D01*
X156731371Y-94313750D01*
X156739560Y-94312672D01*
X156771245Y-94308501D01*
X156771255Y-94308500D01*
X156771256Y-94308500D01*
X156771272Y-94308498D01*
X156870828Y-94295391D01*
X156882035Y-94293916D01*
X156882037Y-94293915D01*
X156890222Y-94292838D01*
X157038247Y-94231524D01*
X157064054Y-94211722D01*
X157133443Y-94158477D01*
X157133446Y-94158474D01*
X157158805Y-94139015D01*
X157165358Y-94133987D01*
X157170388Y-94127432D01*
X157184823Y-94108621D01*
X157195690Y-94096230D01*
X159396234Y-91895686D01*
X159408625Y-91884819D01*
X159427437Y-91870384D01*
X159433987Y-91865358D01*
X159458474Y-91833446D01*
X159458478Y-91833442D01*
X159531524Y-91738247D01*
X159592838Y-91590222D01*
X159596511Y-91562319D01*
X159608500Y-91471256D01*
X159608500Y-91471251D01*
X159613750Y-91431371D01*
X159609578Y-91399678D01*
X159608500Y-91383235D01*
X159608500Y-89129399D01*
X159628502Y-89061278D01*
X159662229Y-89026186D01*
X159839789Y-88901857D01*
X159839792Y-88901855D01*
X159844300Y-88898698D01*
X160006198Y-88736800D01*
X160016057Y-88722721D01*
X160124060Y-88568476D01*
X160137523Y-88549249D01*
X160139846Y-88544267D01*
X160139849Y-88544262D01*
X160231961Y-88346725D01*
X160231961Y-88346724D01*
X160234284Y-88341743D01*
X160236458Y-88333632D01*
X160292119Y-88125902D01*
X160292120Y-88125899D01*
X160293543Y-88120587D01*
X160313498Y-87892500D01*
X164486502Y-87892500D01*
X164506457Y-88120587D01*
X164507880Y-88125899D01*
X164507881Y-88125902D01*
X164563543Y-88333632D01*
X164565716Y-88341743D01*
X164568039Y-88346724D01*
X164568039Y-88346725D01*
X164660151Y-88544262D01*
X164660154Y-88544267D01*
X164662477Y-88549249D01*
X164675940Y-88568476D01*
X164783944Y-88722721D01*
X164793802Y-88736800D01*
X164955700Y-88898698D01*
X164960208Y-88901855D01*
X164960211Y-88901857D01*
X164982859Y-88917715D01*
X165143251Y-89030023D01*
X165148233Y-89032346D01*
X165148238Y-89032349D01*
X165323322Y-89113991D01*
X165350757Y-89126784D01*
X165356065Y-89128206D01*
X165356067Y-89128207D01*
X165566598Y-89184619D01*
X165566600Y-89184619D01*
X165571913Y-89186043D01*
X165800000Y-89205998D01*
X166028087Y-89186043D01*
X166033400Y-89184619D01*
X166033402Y-89184619D01*
X166243933Y-89128207D01*
X166243935Y-89128206D01*
X166249243Y-89126784D01*
X166276678Y-89113991D01*
X166451762Y-89032349D01*
X166451767Y-89032346D01*
X166456749Y-89030023D01*
X166617141Y-88917715D01*
X166639789Y-88901857D01*
X166639792Y-88901855D01*
X166644300Y-88898698D01*
X166806198Y-88736800D01*
X166816057Y-88722721D01*
X166924060Y-88568476D01*
X166937523Y-88549249D01*
X166939846Y-88544267D01*
X166939849Y-88544262D01*
X167031961Y-88346725D01*
X167031961Y-88346724D01*
X167034284Y-88341743D01*
X167036458Y-88333632D01*
X167092119Y-88125902D01*
X167092120Y-88125899D01*
X167093543Y-88120587D01*
X167113498Y-87892500D01*
X167093543Y-87664413D01*
X167089516Y-87649385D01*
X167035707Y-87448567D01*
X167035706Y-87448565D01*
X167034284Y-87443257D01*
X166991543Y-87351597D01*
X166939849Y-87240738D01*
X166939846Y-87240733D01*
X166937523Y-87235751D01*
X166806198Y-87048200D01*
X166644300Y-86886302D01*
X166639792Y-86883145D01*
X166639789Y-86883143D01*
X166521048Y-86800000D01*
X166456749Y-86754977D01*
X166451767Y-86752654D01*
X166449973Y-86751618D01*
X166400981Y-86700234D01*
X166387546Y-86630521D01*
X166413934Y-86564610D01*
X166449973Y-86533382D01*
X166451767Y-86532346D01*
X166456749Y-86530023D01*
X166558927Y-86458477D01*
X166639789Y-86401857D01*
X166639792Y-86401855D01*
X166644300Y-86398698D01*
X166806198Y-86236800D01*
X166937523Y-86049249D01*
X166939846Y-86044267D01*
X166939849Y-86044262D01*
X167031961Y-85846725D01*
X167031961Y-85846724D01*
X167034284Y-85841743D01*
X167036171Y-85834703D01*
X167092119Y-85625902D01*
X167092119Y-85625900D01*
X167093543Y-85620587D01*
X167113019Y-85397975D01*
X167687483Y-85397975D01*
X167706472Y-85615019D01*
X167708375Y-85625812D01*
X167764764Y-85836261D01*
X167768510Y-85846553D01*
X167860586Y-86044011D01*
X167866069Y-86053506D01*
X167902509Y-86105548D01*
X167912988Y-86113924D01*
X167926434Y-86106856D01*
X168627978Y-85405312D01*
X168634356Y-85393632D01*
X169364408Y-85393632D01*
X169364539Y-85395465D01*
X169368790Y-85402080D01*
X170074287Y-86107577D01*
X170086062Y-86114007D01*
X170098077Y-86104711D01*
X170133931Y-86053506D01*
X170139414Y-86044011D01*
X170231490Y-85846553D01*
X170235236Y-85836261D01*
X170291625Y-85625812D01*
X170293528Y-85615019D01*
X170312517Y-85397975D01*
X170312517Y-85387025D01*
X170293528Y-85169981D01*
X170291625Y-85159188D01*
X170235236Y-84948739D01*
X170231490Y-84938447D01*
X170139414Y-84740989D01*
X170133931Y-84731494D01*
X170097491Y-84679452D01*
X170087012Y-84671076D01*
X170073566Y-84678144D01*
X169372022Y-85379688D01*
X169364408Y-85393632D01*
X168634356Y-85393632D01*
X168635592Y-85391368D01*
X168635461Y-85389535D01*
X168631210Y-85382920D01*
X167925713Y-84677423D01*
X167913938Y-84670993D01*
X167901923Y-84680289D01*
X167866069Y-84731494D01*
X167860586Y-84740989D01*
X167768510Y-84938447D01*
X167764764Y-84948739D01*
X167708375Y-85159188D01*
X167706472Y-85169981D01*
X167687483Y-85387025D01*
X167687483Y-85397975D01*
X167113019Y-85397975D01*
X167113498Y-85392500D01*
X167093543Y-85164413D01*
X167065157Y-85058475D01*
X167035707Y-84948567D01*
X167035706Y-84948565D01*
X167034284Y-84943257D01*
X167024672Y-84922644D01*
X166939849Y-84740738D01*
X166939846Y-84740733D01*
X166937523Y-84735751D01*
X166839812Y-84596206D01*
X166809357Y-84552711D01*
X166809355Y-84552708D01*
X166806198Y-84548200D01*
X166644300Y-84386302D01*
X166639792Y-84383145D01*
X166639789Y-84383143D01*
X166493549Y-84280745D01*
X166456749Y-84254977D01*
X166451767Y-84252654D01*
X166449973Y-84251618D01*
X166400981Y-84200234D01*
X166387546Y-84130521D01*
X166413934Y-84064610D01*
X166449973Y-84033382D01*
X166451767Y-84032346D01*
X166456749Y-84030023D01*
X166576188Y-83946391D01*
X166639789Y-83901857D01*
X166639792Y-83901855D01*
X166644300Y-83898698D01*
X166802364Y-83740634D01*
X167691500Y-83740634D01*
X167698255Y-83802816D01*
X167749385Y-83939205D01*
X167836739Y-84055761D01*
X167953295Y-84143115D01*
X168089684Y-84194245D01*
X168133252Y-84198978D01*
X168148486Y-84200633D01*
X168148489Y-84200633D01*
X168151866Y-84201000D01*
X168155185Y-84201000D01*
X168222110Y-84224653D01*
X168257804Y-84270656D01*
X168259734Y-84269641D01*
X168265442Y-84280500D01*
X168265632Y-84280745D01*
X168265653Y-84280903D01*
X168285644Y-84318934D01*
X168987188Y-85020478D01*
X169001132Y-85028092D01*
X169002965Y-85027961D01*
X169009580Y-85023710D01*
X169715077Y-84318213D01*
X169737871Y-84276471D01*
X169740047Y-84266471D01*
X169790253Y-84216273D01*
X169843814Y-84201049D01*
X169844719Y-84201000D01*
X169848134Y-84201000D01*
X169851530Y-84200631D01*
X169851532Y-84200631D01*
X169863879Y-84199290D01*
X169910316Y-84194245D01*
X170046705Y-84143115D01*
X170163261Y-84055761D01*
X170250615Y-83939205D01*
X170301745Y-83802816D01*
X170308500Y-83740634D01*
X170308500Y-82044366D01*
X170301745Y-81982184D01*
X170250615Y-81845795D01*
X170163261Y-81729239D01*
X170046705Y-81641885D01*
X169910316Y-81590755D01*
X169848134Y-81584000D01*
X168151866Y-81584000D01*
X168089684Y-81590755D01*
X167953295Y-81641885D01*
X167836739Y-81729239D01*
X167749385Y-81845795D01*
X167698255Y-81982184D01*
X167691500Y-82044366D01*
X167691500Y-83740634D01*
X166802364Y-83740634D01*
X166806198Y-83736800D01*
X166816358Y-83722291D01*
X166897647Y-83606197D01*
X166937523Y-83549249D01*
X166939846Y-83544267D01*
X166939849Y-83544262D01*
X167031961Y-83346725D01*
X167031961Y-83346724D01*
X167034284Y-83341743D01*
X167059278Y-83248467D01*
X167092119Y-83125902D01*
X167092119Y-83125900D01*
X167093543Y-83120587D01*
X167113498Y-82892500D01*
X167093543Y-82664413D01*
X167091312Y-82656085D01*
X167035707Y-82448567D01*
X167035706Y-82448565D01*
X167034284Y-82443257D01*
X167021543Y-82415933D01*
X166939849Y-82240738D01*
X166939846Y-82240733D01*
X166937523Y-82235751D01*
X166806198Y-82048200D01*
X166644300Y-81886302D01*
X166639792Y-81883145D01*
X166639789Y-81883143D01*
X166549123Y-81819658D01*
X166456749Y-81754977D01*
X166451767Y-81752654D01*
X166451762Y-81752651D01*
X166254225Y-81660539D01*
X166254224Y-81660539D01*
X166249243Y-81658216D01*
X166243935Y-81656794D01*
X166243933Y-81656793D01*
X166033402Y-81600381D01*
X166033400Y-81600381D01*
X166028087Y-81598957D01*
X165800000Y-81579002D01*
X165571913Y-81598957D01*
X165566600Y-81600381D01*
X165566598Y-81600381D01*
X165356067Y-81656793D01*
X165356065Y-81656794D01*
X165350757Y-81658216D01*
X165345776Y-81660539D01*
X165345775Y-81660539D01*
X165148238Y-81752651D01*
X165148233Y-81752654D01*
X165143251Y-81754977D01*
X165050877Y-81819658D01*
X164960211Y-81883143D01*
X164960208Y-81883145D01*
X164955700Y-81886302D01*
X164793802Y-82048200D01*
X164662477Y-82235751D01*
X164660154Y-82240733D01*
X164660151Y-82240738D01*
X164578457Y-82415933D01*
X164565716Y-82443257D01*
X164564294Y-82448565D01*
X164564293Y-82448567D01*
X164508688Y-82656085D01*
X164506457Y-82664413D01*
X164486502Y-82892500D01*
X164506457Y-83120587D01*
X164507881Y-83125900D01*
X164507881Y-83125902D01*
X164540723Y-83248467D01*
X164565716Y-83341743D01*
X164568039Y-83346724D01*
X164568039Y-83346725D01*
X164660151Y-83544262D01*
X164660154Y-83544267D01*
X164662477Y-83549249D01*
X164702353Y-83606197D01*
X164783643Y-83722291D01*
X164793802Y-83736800D01*
X164955700Y-83898698D01*
X164960208Y-83901855D01*
X164960211Y-83901857D01*
X165023812Y-83946391D01*
X165143251Y-84030023D01*
X165148233Y-84032346D01*
X165150027Y-84033382D01*
X165199019Y-84084766D01*
X165212454Y-84154479D01*
X165186066Y-84220390D01*
X165150027Y-84251618D01*
X165148233Y-84252654D01*
X165143251Y-84254977D01*
X165106451Y-84280745D01*
X164960211Y-84383143D01*
X164960208Y-84383145D01*
X164955700Y-84386302D01*
X164793802Y-84548200D01*
X164790645Y-84552708D01*
X164790643Y-84552711D01*
X164760188Y-84596206D01*
X164662477Y-84735751D01*
X164660154Y-84740733D01*
X164660151Y-84740738D01*
X164575328Y-84922644D01*
X164565716Y-84943257D01*
X164564294Y-84948565D01*
X164564293Y-84948567D01*
X164534843Y-85058475D01*
X164506457Y-85164413D01*
X164486502Y-85392500D01*
X164506457Y-85620587D01*
X164507881Y-85625900D01*
X164507881Y-85625902D01*
X164563830Y-85834703D01*
X164565716Y-85841743D01*
X164568039Y-85846724D01*
X164568039Y-85846725D01*
X164660151Y-86044262D01*
X164660154Y-86044267D01*
X164662477Y-86049249D01*
X164793802Y-86236800D01*
X164955700Y-86398698D01*
X164960208Y-86401855D01*
X164960211Y-86401857D01*
X165041073Y-86458477D01*
X165143251Y-86530023D01*
X165148233Y-86532346D01*
X165150027Y-86533382D01*
X165199019Y-86584766D01*
X165212454Y-86654479D01*
X165186066Y-86720390D01*
X165150027Y-86751618D01*
X165148233Y-86752654D01*
X165143251Y-86754977D01*
X165078952Y-86800000D01*
X164960211Y-86883143D01*
X164960208Y-86883145D01*
X164955700Y-86886302D01*
X164793802Y-87048200D01*
X164662477Y-87235751D01*
X164660154Y-87240733D01*
X164660151Y-87240738D01*
X164608457Y-87351597D01*
X164565716Y-87443257D01*
X164564294Y-87448565D01*
X164564293Y-87448567D01*
X164510484Y-87649385D01*
X164506457Y-87664413D01*
X164486502Y-87892500D01*
X160313498Y-87892500D01*
X160293543Y-87664413D01*
X160289516Y-87649385D01*
X160235707Y-87448567D01*
X160235706Y-87448565D01*
X160234284Y-87443257D01*
X160191543Y-87351597D01*
X160139849Y-87240738D01*
X160139846Y-87240733D01*
X160137523Y-87235751D01*
X160006198Y-87048200D01*
X159844300Y-86886302D01*
X159839792Y-86883145D01*
X159839789Y-86883143D01*
X159721048Y-86800000D01*
X159656749Y-86754977D01*
X159651765Y-86752653D01*
X159649472Y-86751329D01*
X159600479Y-86699947D01*
X159587043Y-86630233D01*
X159613429Y-86564322D01*
X159649472Y-86533091D01*
X159661002Y-86526434D01*
X159713048Y-86489991D01*
X159721424Y-86479512D01*
X159714356Y-86466066D01*
X159012812Y-85764522D01*
X158998868Y-85756908D01*
X158997035Y-85757039D01*
X158990420Y-85761290D01*
X158284923Y-86466787D01*
X158278493Y-86478562D01*
X158287789Y-86490577D01*
X158338998Y-86526434D01*
X158350528Y-86533091D01*
X158399521Y-86584473D01*
X158412958Y-86654187D01*
X158386571Y-86720098D01*
X158350528Y-86751329D01*
X158348235Y-86752653D01*
X158343251Y-86754977D01*
X158278952Y-86800000D01*
X158160211Y-86883143D01*
X158160208Y-86883145D01*
X158155700Y-86886302D01*
X157993802Y-87048200D01*
X157862477Y-87235751D01*
X157860154Y-87240733D01*
X157860151Y-87240738D01*
X157808457Y-87351597D01*
X157765716Y-87443257D01*
X157764294Y-87448565D01*
X157764293Y-87448567D01*
X157710484Y-87649385D01*
X157706457Y-87664413D01*
X157686502Y-87892500D01*
X157706457Y-88120587D01*
X157707880Y-88125899D01*
X157707881Y-88125902D01*
X157763543Y-88333632D01*
X157765716Y-88341743D01*
X157768039Y-88346724D01*
X157768039Y-88346725D01*
X157860151Y-88544262D01*
X157860154Y-88544267D01*
X157862477Y-88549249D01*
X157875940Y-88568476D01*
X157983944Y-88722721D01*
X157993802Y-88736800D01*
X158155700Y-88898698D01*
X158160208Y-88901855D01*
X158160211Y-88901857D01*
X158337771Y-89026186D01*
X158382099Y-89081643D01*
X158391500Y-89129399D01*
X158391500Y-91127132D01*
X158371498Y-91195253D01*
X158354595Y-91216227D01*
X156516227Y-93054595D01*
X156453915Y-93088621D01*
X156427132Y-93091500D01*
X145804250Y-93091500D01*
X145736129Y-93071498D01*
X145689636Y-93017842D01*
X145679532Y-92947568D01*
X145709026Y-92882988D01*
X145728678Y-92864680D01*
X145763261Y-92838761D01*
X145850615Y-92722205D01*
X145901745Y-92585816D01*
X145908500Y-92523634D01*
X145908500Y-91334500D01*
X145928502Y-91266379D01*
X145982158Y-91219886D01*
X146034500Y-91208500D01*
X147778404Y-91208500D01*
X147794847Y-91209578D01*
X147826540Y-91213750D01*
X147834729Y-91212672D01*
X147866414Y-91208501D01*
X147866424Y-91208500D01*
X147866425Y-91208500D01*
X147965997Y-91195391D01*
X147977204Y-91193916D01*
X147977206Y-91193915D01*
X147985391Y-91192838D01*
X148133416Y-91131524D01*
X148228612Y-91058477D01*
X148228615Y-91058474D01*
X148260527Y-91033987D01*
X148279998Y-91008613D01*
X148290856Y-90996233D01*
X151394589Y-87892500D01*
X154486502Y-87892500D01*
X154506457Y-88120587D01*
X154507880Y-88125899D01*
X154507881Y-88125902D01*
X154563543Y-88333632D01*
X154565716Y-88341743D01*
X154568039Y-88346724D01*
X154568039Y-88346725D01*
X154660151Y-88544262D01*
X154660154Y-88544267D01*
X154662477Y-88549249D01*
X154675940Y-88568476D01*
X154783944Y-88722721D01*
X154793802Y-88736800D01*
X154955700Y-88898698D01*
X154960208Y-88901855D01*
X154960211Y-88901857D01*
X154982859Y-88917715D01*
X155143251Y-89030023D01*
X155148233Y-89032346D01*
X155148238Y-89032349D01*
X155323322Y-89113991D01*
X155350757Y-89126784D01*
X155356065Y-89128206D01*
X155356067Y-89128207D01*
X155566598Y-89184619D01*
X155566600Y-89184619D01*
X155571913Y-89186043D01*
X155800000Y-89205998D01*
X156028087Y-89186043D01*
X156033400Y-89184619D01*
X156033402Y-89184619D01*
X156243933Y-89128207D01*
X156243935Y-89128206D01*
X156249243Y-89126784D01*
X156276678Y-89113991D01*
X156451762Y-89032349D01*
X156451767Y-89032346D01*
X156456749Y-89030023D01*
X156617141Y-88917715D01*
X156639789Y-88901857D01*
X156639792Y-88901855D01*
X156644300Y-88898698D01*
X156806198Y-88736800D01*
X156816057Y-88722721D01*
X156924060Y-88568476D01*
X156937523Y-88549249D01*
X156939846Y-88544267D01*
X156939849Y-88544262D01*
X157031961Y-88346725D01*
X157031961Y-88346724D01*
X157034284Y-88341743D01*
X157036458Y-88333632D01*
X157092119Y-88125902D01*
X157092120Y-88125899D01*
X157093543Y-88120587D01*
X157113498Y-87892500D01*
X157093543Y-87664413D01*
X157089516Y-87649385D01*
X157035707Y-87448567D01*
X157035706Y-87448565D01*
X157034284Y-87443257D01*
X156991543Y-87351597D01*
X156939849Y-87240738D01*
X156939846Y-87240733D01*
X156937523Y-87235751D01*
X156806198Y-87048200D01*
X156644300Y-86886302D01*
X156639792Y-86883145D01*
X156639789Y-86883143D01*
X156521048Y-86800000D01*
X156456749Y-86754977D01*
X156451767Y-86752654D01*
X156449973Y-86751618D01*
X156400981Y-86700234D01*
X156387546Y-86630521D01*
X156413934Y-86564610D01*
X156449973Y-86533382D01*
X156451767Y-86532346D01*
X156456749Y-86530023D01*
X156558927Y-86458477D01*
X156639789Y-86401857D01*
X156639792Y-86401855D01*
X156644300Y-86398698D01*
X156806198Y-86236800D01*
X156937523Y-86049249D01*
X156939846Y-86044267D01*
X156939849Y-86044262D01*
X157031961Y-85846725D01*
X157031961Y-85846724D01*
X157034284Y-85841743D01*
X157036171Y-85834703D01*
X157092119Y-85625902D01*
X157092119Y-85625900D01*
X157093543Y-85620587D01*
X157113019Y-85397975D01*
X157687483Y-85397975D01*
X157706472Y-85615019D01*
X157708375Y-85625812D01*
X157764764Y-85836261D01*
X157768510Y-85846553D01*
X157860586Y-86044011D01*
X157866069Y-86053506D01*
X157902509Y-86105548D01*
X157912988Y-86113924D01*
X157926434Y-86106856D01*
X158627978Y-85405312D01*
X158634356Y-85393632D01*
X159364408Y-85393632D01*
X159364539Y-85395465D01*
X159368790Y-85402080D01*
X160074287Y-86107577D01*
X160086062Y-86114007D01*
X160098077Y-86104711D01*
X160133931Y-86053506D01*
X160139414Y-86044011D01*
X160231490Y-85846553D01*
X160235236Y-85836261D01*
X160291625Y-85625812D01*
X160293528Y-85615019D01*
X160312517Y-85397975D01*
X160312517Y-85387025D01*
X160293528Y-85169981D01*
X160291625Y-85159188D01*
X160235236Y-84948739D01*
X160231490Y-84938447D01*
X160139414Y-84740989D01*
X160133931Y-84731494D01*
X160097491Y-84679452D01*
X160087012Y-84671076D01*
X160073566Y-84678144D01*
X159372022Y-85379688D01*
X159364408Y-85393632D01*
X158634356Y-85393632D01*
X158635592Y-85391368D01*
X158635461Y-85389535D01*
X158631210Y-85382920D01*
X157925713Y-84677423D01*
X157913938Y-84670993D01*
X157901923Y-84680289D01*
X157866069Y-84731494D01*
X157860586Y-84740989D01*
X157768510Y-84938447D01*
X157764764Y-84948739D01*
X157708375Y-85159188D01*
X157706472Y-85169981D01*
X157687483Y-85387025D01*
X157687483Y-85397975D01*
X157113019Y-85397975D01*
X157113498Y-85392500D01*
X157093543Y-85164413D01*
X157065157Y-85058475D01*
X157035707Y-84948567D01*
X157035706Y-84948565D01*
X157034284Y-84943257D01*
X157024672Y-84922644D01*
X156939849Y-84740738D01*
X156939846Y-84740733D01*
X156937523Y-84735751D01*
X156839812Y-84596206D01*
X156809357Y-84552711D01*
X156809355Y-84552708D01*
X156806198Y-84548200D01*
X156644300Y-84386302D01*
X156639792Y-84383145D01*
X156639789Y-84383143D01*
X156493549Y-84280745D01*
X156456749Y-84254977D01*
X156451767Y-84252654D01*
X156449973Y-84251618D01*
X156400981Y-84200234D01*
X156387546Y-84130521D01*
X156413934Y-84064610D01*
X156449973Y-84033382D01*
X156451767Y-84032346D01*
X156456749Y-84030023D01*
X156576188Y-83946391D01*
X156639789Y-83901857D01*
X156639792Y-83901855D01*
X156644300Y-83898698D01*
X156802364Y-83740634D01*
X157691500Y-83740634D01*
X157698255Y-83802816D01*
X157749385Y-83939205D01*
X157836739Y-84055761D01*
X157953295Y-84143115D01*
X158089684Y-84194245D01*
X158133252Y-84198978D01*
X158148486Y-84200633D01*
X158148489Y-84200633D01*
X158151866Y-84201000D01*
X158155185Y-84201000D01*
X158222110Y-84224653D01*
X158257804Y-84270656D01*
X158259734Y-84269641D01*
X158265442Y-84280500D01*
X158265632Y-84280745D01*
X158265653Y-84280903D01*
X158285644Y-84318934D01*
X158987188Y-85020478D01*
X159001132Y-85028092D01*
X159002965Y-85027961D01*
X159009580Y-85023710D01*
X159715077Y-84318213D01*
X159737871Y-84276471D01*
X159740047Y-84266471D01*
X159790253Y-84216273D01*
X159843814Y-84201049D01*
X159844719Y-84201000D01*
X159848134Y-84201000D01*
X159851530Y-84200631D01*
X159851532Y-84200631D01*
X159863879Y-84199290D01*
X159910316Y-84194245D01*
X160046705Y-84143115D01*
X160163261Y-84055761D01*
X160250615Y-83939205D01*
X160301745Y-83802816D01*
X160308500Y-83740634D01*
X160308500Y-82044366D01*
X160301745Y-81982184D01*
X160250615Y-81845795D01*
X160163261Y-81729239D01*
X160046705Y-81641885D01*
X159910316Y-81590755D01*
X159848134Y-81584000D01*
X158151866Y-81584000D01*
X158089684Y-81590755D01*
X157953295Y-81641885D01*
X157836739Y-81729239D01*
X157749385Y-81845795D01*
X157698255Y-81982184D01*
X157691500Y-82044366D01*
X157691500Y-83740634D01*
X156802364Y-83740634D01*
X156806198Y-83736800D01*
X156816358Y-83722291D01*
X156897647Y-83606197D01*
X156937523Y-83549249D01*
X156939846Y-83544267D01*
X156939849Y-83544262D01*
X157031961Y-83346725D01*
X157031961Y-83346724D01*
X157034284Y-83341743D01*
X157059278Y-83248467D01*
X157092119Y-83125902D01*
X157092119Y-83125900D01*
X157093543Y-83120587D01*
X157113498Y-82892500D01*
X157093543Y-82664413D01*
X157091312Y-82656085D01*
X157035707Y-82448567D01*
X157035706Y-82448565D01*
X157034284Y-82443257D01*
X157021543Y-82415933D01*
X156939849Y-82240738D01*
X156939846Y-82240733D01*
X156937523Y-82235751D01*
X156806198Y-82048200D01*
X156644300Y-81886302D01*
X156639792Y-81883145D01*
X156639789Y-81883143D01*
X156549123Y-81819658D01*
X156456749Y-81754977D01*
X156451767Y-81752654D01*
X156451762Y-81752651D01*
X156254225Y-81660539D01*
X156254224Y-81660539D01*
X156249243Y-81658216D01*
X156243935Y-81656794D01*
X156243933Y-81656793D01*
X156033402Y-81600381D01*
X156033400Y-81600381D01*
X156028087Y-81598957D01*
X155800000Y-81579002D01*
X155571913Y-81598957D01*
X155566600Y-81600381D01*
X155566598Y-81600381D01*
X155356067Y-81656793D01*
X155356065Y-81656794D01*
X155350757Y-81658216D01*
X155345776Y-81660539D01*
X155345775Y-81660539D01*
X155148238Y-81752651D01*
X155148233Y-81752654D01*
X155143251Y-81754977D01*
X155050877Y-81819658D01*
X154960211Y-81883143D01*
X154960208Y-81883145D01*
X154955700Y-81886302D01*
X154793802Y-82048200D01*
X154662477Y-82235751D01*
X154660154Y-82240733D01*
X154660151Y-82240738D01*
X154578457Y-82415933D01*
X154565716Y-82443257D01*
X154564294Y-82448565D01*
X154564293Y-82448567D01*
X154508688Y-82656085D01*
X154506457Y-82664413D01*
X154486502Y-82892500D01*
X154506457Y-83120587D01*
X154507881Y-83125900D01*
X154507881Y-83125902D01*
X154540723Y-83248467D01*
X154565716Y-83341743D01*
X154568039Y-83346724D01*
X154568039Y-83346725D01*
X154660151Y-83544262D01*
X154660154Y-83544267D01*
X154662477Y-83549249D01*
X154702353Y-83606197D01*
X154783643Y-83722291D01*
X154793802Y-83736800D01*
X154955700Y-83898698D01*
X154960208Y-83901855D01*
X154960211Y-83901857D01*
X155023812Y-83946391D01*
X155143251Y-84030023D01*
X155148233Y-84032346D01*
X155150027Y-84033382D01*
X155199019Y-84084766D01*
X155212454Y-84154479D01*
X155186066Y-84220390D01*
X155150027Y-84251618D01*
X155148233Y-84252654D01*
X155143251Y-84254977D01*
X155106451Y-84280745D01*
X154960211Y-84383143D01*
X154960208Y-84383145D01*
X154955700Y-84386302D01*
X154793802Y-84548200D01*
X154790645Y-84552708D01*
X154790643Y-84552711D01*
X154760188Y-84596206D01*
X154662477Y-84735751D01*
X154660154Y-84740733D01*
X154660151Y-84740738D01*
X154575328Y-84922644D01*
X154565716Y-84943257D01*
X154564294Y-84948565D01*
X154564293Y-84948567D01*
X154534843Y-85058475D01*
X154506457Y-85164413D01*
X154486502Y-85392500D01*
X154506457Y-85620587D01*
X154507881Y-85625900D01*
X154507881Y-85625902D01*
X154563830Y-85834703D01*
X154565716Y-85841743D01*
X154568039Y-85846724D01*
X154568039Y-85846725D01*
X154660151Y-86044262D01*
X154660154Y-86044267D01*
X154662477Y-86049249D01*
X154793802Y-86236800D01*
X154955700Y-86398698D01*
X154960208Y-86401855D01*
X154960211Y-86401857D01*
X155041073Y-86458477D01*
X155143251Y-86530023D01*
X155148233Y-86532346D01*
X155150027Y-86533382D01*
X155199019Y-86584766D01*
X155212454Y-86654479D01*
X155186066Y-86720390D01*
X155150027Y-86751618D01*
X155148233Y-86752654D01*
X155143251Y-86754977D01*
X155078952Y-86800000D01*
X154960211Y-86883143D01*
X154960208Y-86883145D01*
X154955700Y-86886302D01*
X154793802Y-87048200D01*
X154662477Y-87235751D01*
X154660154Y-87240733D01*
X154660151Y-87240738D01*
X154608457Y-87351597D01*
X154565716Y-87443257D01*
X154564294Y-87448565D01*
X154564293Y-87448567D01*
X154510484Y-87649385D01*
X154506457Y-87664413D01*
X154486502Y-87892500D01*
X151394589Y-87892500D01*
X151696234Y-87590855D01*
X151708625Y-87579988D01*
X151727437Y-87565553D01*
X151733987Y-87560527D01*
X151758474Y-87528615D01*
X151758480Y-87528609D01*
X151826496Y-87439969D01*
X151826497Y-87439967D01*
X151831524Y-87433416D01*
X151868770Y-87343495D01*
X151892838Y-87285390D01*
X151908500Y-87166425D01*
X151908500Y-87166418D01*
X151913750Y-87126540D01*
X151909578Y-87094847D01*
X151908500Y-87078404D01*
X151908500Y-79612436D01*
X151928502Y-79544315D01*
X151982158Y-79497822D01*
X152034500Y-79486436D01*
X175273928Y-79486436D01*
X175290371Y-79487514D01*
X175322064Y-79491686D01*
X175330253Y-79490608D01*
X175361938Y-79486437D01*
X175361948Y-79486436D01*
X175361949Y-79486436D01*
X175467333Y-79472562D01*
X175472727Y-79471852D01*
X175472728Y-79471852D01*
X175480915Y-79470774D01*
X175628940Y-79409460D01*
X175712448Y-79345382D01*
X175724136Y-79336413D01*
X175724139Y-79336410D01*
X175749501Y-79316949D01*
X175756051Y-79311923D01*
X175775522Y-79286549D01*
X175786380Y-79274169D01*
X181676234Y-73384315D01*
X181688625Y-73373448D01*
X181707437Y-73359013D01*
X181713987Y-73353987D01*
X181738474Y-73322075D01*
X181738478Y-73322071D01*
X181811524Y-73226876D01*
X181872838Y-73078851D01*
X181873963Y-73070310D01*
X181881917Y-73009886D01*
X181881917Y-73009885D01*
X181888500Y-72959885D01*
X181888501Y-72959873D01*
X181892672Y-72928189D01*
X181892672Y-72928188D01*
X181893750Y-72920000D01*
X181889578Y-72888307D01*
X181888500Y-72871864D01*
X181888500Y-71093319D01*
X181908502Y-71025198D01*
X181959068Y-70980168D01*
X181965754Y-70976893D01*
X181973353Y-70973170D01*
X181973357Y-70973168D01*
X181977994Y-70970896D01*
X181982198Y-70967898D01*
X181982202Y-70967895D01*
X182071932Y-70903891D01*
X182159860Y-70841173D01*
X182318096Y-70683489D01*
X182448453Y-70502077D01*
X182449776Y-70503028D01*
X182496645Y-70459857D01*
X182566580Y-70447625D01*
X182632026Y-70475144D01*
X182659875Y-70506994D01*
X182719987Y-70605088D01*
X182866250Y-70773938D01*
X183038126Y-70916632D01*
X183231000Y-71029338D01*
X183235825Y-71031180D01*
X183235826Y-71031181D01*
X183308612Y-71058975D01*
X183439692Y-71109030D01*
X183444760Y-71110061D01*
X183444763Y-71110062D01*
X183552017Y-71131883D01*
X183658597Y-71153567D01*
X183663772Y-71153757D01*
X183663774Y-71153757D01*
X183876673Y-71161564D01*
X183876677Y-71161564D01*
X183881837Y-71161753D01*
X183886957Y-71161097D01*
X183886959Y-71161097D01*
X184098288Y-71134025D01*
X184098289Y-71134025D01*
X184103416Y-71133368D01*
X184108366Y-71131883D01*
X184312429Y-71070661D01*
X184312434Y-71070659D01*
X184317384Y-71069174D01*
X184517994Y-70970896D01*
X184699860Y-70841173D01*
X184858096Y-70683489D01*
X184988453Y-70502077D01*
X184989776Y-70503028D01*
X185036645Y-70459857D01*
X185106580Y-70447625D01*
X185172026Y-70475144D01*
X185199875Y-70506994D01*
X185259987Y-70605088D01*
X185406250Y-70773938D01*
X185578126Y-70916632D01*
X185771000Y-71029338D01*
X185775825Y-71031180D01*
X185775826Y-71031181D01*
X185848612Y-71058975D01*
X185979692Y-71109030D01*
X185984760Y-71110061D01*
X185984763Y-71110062D01*
X186092017Y-71131883D01*
X186198597Y-71153567D01*
X186203772Y-71153757D01*
X186203774Y-71153757D01*
X186416673Y-71161564D01*
X186416677Y-71161564D01*
X186421837Y-71161753D01*
X186426957Y-71161097D01*
X186426959Y-71161097D01*
X186638288Y-71134025D01*
X186638289Y-71134025D01*
X186643416Y-71133368D01*
X186648366Y-71131883D01*
X186852429Y-71070661D01*
X186852434Y-71070659D01*
X186857384Y-71069174D01*
X187057994Y-70970896D01*
X187239860Y-70841173D01*
X187398096Y-70683489D01*
X187528453Y-70502077D01*
X187529776Y-70503028D01*
X187576645Y-70459857D01*
X187646580Y-70447625D01*
X187712026Y-70475144D01*
X187739875Y-70506994D01*
X187799987Y-70605088D01*
X187946250Y-70773938D01*
X188118126Y-70916632D01*
X188311000Y-71029338D01*
X188315825Y-71031180D01*
X188315826Y-71031181D01*
X188388612Y-71058975D01*
X188519692Y-71109030D01*
X188524760Y-71110061D01*
X188524763Y-71110062D01*
X188632017Y-71131883D01*
X188738597Y-71153567D01*
X188743772Y-71153757D01*
X188743774Y-71153757D01*
X188956673Y-71161564D01*
X188956677Y-71161564D01*
X188961837Y-71161753D01*
X188966957Y-71161097D01*
X188966959Y-71161097D01*
X189178288Y-71134025D01*
X189178289Y-71134025D01*
X189183416Y-71133368D01*
X189188366Y-71131883D01*
X189392429Y-71070661D01*
X189392434Y-71070659D01*
X189397384Y-71069174D01*
X189597994Y-70970896D01*
X189779860Y-70841173D01*
X189938096Y-70683489D01*
X190068453Y-70502077D01*
X190089320Y-70459857D01*
X190165136Y-70306453D01*
X190165137Y-70306451D01*
X190167430Y-70301811D01*
X190232370Y-70088069D01*
X190261529Y-69866590D01*
X190261611Y-69863240D01*
X190263074Y-69803365D01*
X190263074Y-69803361D01*
X190263156Y-69800000D01*
X190244852Y-69577361D01*
X190190431Y-69360702D01*
X190101354Y-69155840D01*
X189980014Y-68968277D01*
X189829670Y-68803051D01*
X189825619Y-68799852D01*
X189825615Y-68799848D01*
X189658414Y-68667800D01*
X189658410Y-68667798D01*
X189654359Y-68664598D01*
X189612569Y-68641529D01*
X189562598Y-68591097D01*
X189547826Y-68521654D01*
X189572942Y-68455248D01*
X189600294Y-68428641D01*
X189775328Y-68303792D01*
X189783200Y-68297139D01*
X189934052Y-68146812D01*
X189940730Y-68138965D01*
X190065003Y-67966020D01*
X190070313Y-67957183D01*
X190164670Y-67766267D01*
X190168469Y-67756672D01*
X190230377Y-67552910D01*
X190232555Y-67542837D01*
X190233986Y-67531962D01*
X190231775Y-67517778D01*
X190218617Y-67514000D01*
X149483225Y-67514000D01*
X149469694Y-67517973D01*
X149468257Y-67527966D01*
X149498565Y-67662446D01*
X149501644Y-67672275D01*
X149560856Y-67818096D01*
X149567952Y-67888737D01*
X149535730Y-67952000D01*
X149474420Y-67987801D01*
X149444113Y-67991500D01*
X149348136Y-67991500D01*
X149331693Y-67990422D01*
X149300000Y-67986250D01*
X149291811Y-67987328D01*
X149260126Y-67991499D01*
X149260117Y-67991500D01*
X149260115Y-67991500D01*
X149260109Y-67991501D01*
X149260107Y-67991501D01*
X149249686Y-67992873D01*
X149179920Y-68002058D01*
X149137276Y-68000382D01*
X149101951Y-67992873D01*
X149101942Y-67992872D01*
X149095487Y-67991500D01*
X148904513Y-67991500D01*
X148898061Y-67992872D01*
X148898056Y-67992872D01*
X148827235Y-68007926D01*
X148717712Y-68031206D01*
X148711682Y-68033891D01*
X148711681Y-68033891D01*
X148549278Y-68106197D01*
X148549276Y-68106198D01*
X148543248Y-68108882D01*
X148388747Y-68221134D01*
X148384326Y-68226044D01*
X148384325Y-68226045D01*
X148374567Y-68236883D01*
X148260960Y-68363056D01*
X148165473Y-68528444D01*
X148106458Y-68710072D01*
X148105768Y-68716633D01*
X148105768Y-68716635D01*
X148098649Y-68784373D01*
X148086496Y-68900000D01*
X148087186Y-68906565D01*
X148092608Y-68958148D01*
X148106458Y-69089928D01*
X148165473Y-69271556D01*
X148260960Y-69436944D01*
X148388747Y-69578866D01*
X148543248Y-69691118D01*
X148549276Y-69693802D01*
X148549278Y-69693803D01*
X148711681Y-69766109D01*
X148717712Y-69768794D01*
X148811113Y-69788647D01*
X148898056Y-69807128D01*
X148898061Y-69807128D01*
X148904513Y-69808500D01*
X149095487Y-69808500D01*
X149101939Y-69807128D01*
X149101944Y-69807128D01*
X149275833Y-69770166D01*
X149275832Y-69770166D01*
X149282288Y-69768794D01*
X149282493Y-69769758D01*
X149347536Y-69767903D01*
X149408333Y-69804568D01*
X149439655Y-69868281D01*
X149441500Y-69889762D01*
X149441500Y-70698134D01*
X149448255Y-70760316D01*
X149499385Y-70896705D01*
X149586739Y-71013261D01*
X149703295Y-71100615D01*
X149839684Y-71151745D01*
X149901866Y-71158500D01*
X150065500Y-71158500D01*
X150133621Y-71178502D01*
X150180114Y-71232158D01*
X150191500Y-71284500D01*
X150191500Y-72595761D01*
X150171498Y-72663882D01*
X150154595Y-72684856D01*
X149584856Y-73254595D01*
X149522544Y-73288621D01*
X149495761Y-73291500D01*
X148272636Y-73291500D01*
X148256193Y-73290422D01*
X148224500Y-73286250D01*
X148216311Y-73287328D01*
X148184626Y-73291499D01*
X148184617Y-73291500D01*
X148184615Y-73291500D01*
X148184609Y-73291501D01*
X148184607Y-73291501D01*
X148085043Y-73304609D01*
X148073836Y-73306084D01*
X148073834Y-73306085D01*
X148065649Y-73307162D01*
X147917624Y-73368476D01*
X147878530Y-73398474D01*
X147822437Y-73441515D01*
X147822421Y-73441529D01*
X147797066Y-73460984D01*
X147797063Y-73460987D01*
X147790513Y-73466013D01*
X147785483Y-73472568D01*
X147771048Y-73491379D01*
X147760181Y-73503770D01*
X142439095Y-78824856D01*
X142376783Y-78858882D01*
X142305968Y-78853817D01*
X142260905Y-78824856D01*
X136939815Y-73503766D01*
X136928948Y-73491375D01*
X136914513Y-73472563D01*
X136909487Y-73466013D01*
X136877575Y-73441526D01*
X136877569Y-73441520D01*
X136788929Y-73373504D01*
X136788927Y-73373503D01*
X136782376Y-73368476D01*
X136634351Y-73307162D01*
X136626164Y-73306084D01*
X136626163Y-73306084D01*
X136614958Y-73304609D01*
X136556219Y-73296876D01*
X136515385Y-73291500D01*
X136515382Y-73291500D01*
X136515374Y-73291499D01*
X136483689Y-73287328D01*
X136475500Y-73286250D01*
X136443807Y-73290422D01*
X136427364Y-73291500D01*
X125004239Y-73291500D01*
X124936118Y-73271498D01*
X124915144Y-73254595D01*
X124475405Y-72814856D01*
X124441379Y-72752544D01*
X124438500Y-72725761D01*
X124438500Y-71093319D01*
X124458502Y-71025198D01*
X124509068Y-70980168D01*
X124515754Y-70976893D01*
X124523353Y-70973170D01*
X124523357Y-70973168D01*
X124527994Y-70970896D01*
X124532198Y-70967898D01*
X124532202Y-70967895D01*
X124621932Y-70903891D01*
X124709860Y-70841173D01*
X124868096Y-70683489D01*
X124998453Y-70502077D01*
X124999776Y-70503028D01*
X125046645Y-70459857D01*
X125116580Y-70447625D01*
X125182026Y-70475144D01*
X125209875Y-70506994D01*
X125269987Y-70605088D01*
X125416250Y-70773938D01*
X125588126Y-70916632D01*
X125781000Y-71029338D01*
X125785825Y-71031180D01*
X125785826Y-71031181D01*
X125858612Y-71058975D01*
X125989692Y-71109030D01*
X125994760Y-71110061D01*
X125994763Y-71110062D01*
X126102017Y-71131883D01*
X126208597Y-71153567D01*
X126213772Y-71153757D01*
X126213774Y-71153757D01*
X126426673Y-71161564D01*
X126426677Y-71161564D01*
X126431837Y-71161753D01*
X126436957Y-71161097D01*
X126436959Y-71161097D01*
X126648288Y-71134025D01*
X126648289Y-71134025D01*
X126653416Y-71133368D01*
X126658366Y-71131883D01*
X126862429Y-71070661D01*
X126862434Y-71070659D01*
X126867384Y-71069174D01*
X127067994Y-70970896D01*
X127249860Y-70841173D01*
X127408096Y-70683489D01*
X127538453Y-70502077D01*
X127539776Y-70503028D01*
X127586645Y-70459857D01*
X127656580Y-70447625D01*
X127722026Y-70475144D01*
X127749875Y-70506994D01*
X127809987Y-70605088D01*
X127956250Y-70773938D01*
X128128126Y-70916632D01*
X128321000Y-71029338D01*
X128325825Y-71031180D01*
X128325826Y-71031181D01*
X128398612Y-71058975D01*
X128529692Y-71109030D01*
X128534760Y-71110061D01*
X128534763Y-71110062D01*
X128642017Y-71131883D01*
X128748597Y-71153567D01*
X128753772Y-71153757D01*
X128753774Y-71153757D01*
X128966673Y-71161564D01*
X128966677Y-71161564D01*
X128971837Y-71161753D01*
X128976957Y-71161097D01*
X128976959Y-71161097D01*
X129188288Y-71134025D01*
X129188289Y-71134025D01*
X129193416Y-71133368D01*
X129198366Y-71131883D01*
X129402429Y-71070661D01*
X129402434Y-71070659D01*
X129407384Y-71069174D01*
X129607994Y-70970896D01*
X129789860Y-70841173D01*
X129948096Y-70683489D01*
X130078453Y-70502077D01*
X130079776Y-70503028D01*
X130126645Y-70459857D01*
X130196580Y-70447625D01*
X130262026Y-70475144D01*
X130289875Y-70506994D01*
X130349987Y-70605088D01*
X130496250Y-70773938D01*
X130668126Y-70916632D01*
X130861000Y-71029338D01*
X130865825Y-71031180D01*
X130865826Y-71031181D01*
X130938612Y-71058975D01*
X131069692Y-71109030D01*
X131074760Y-71110061D01*
X131074763Y-71110062D01*
X131182017Y-71131883D01*
X131288597Y-71153567D01*
X131293772Y-71153757D01*
X131293774Y-71153757D01*
X131506673Y-71161564D01*
X131506677Y-71161564D01*
X131511837Y-71161753D01*
X131516957Y-71161097D01*
X131516959Y-71161097D01*
X131728288Y-71134025D01*
X131728289Y-71134025D01*
X131733416Y-71133368D01*
X131738366Y-71131883D01*
X131942429Y-71070661D01*
X131942434Y-71070659D01*
X131947384Y-71069174D01*
X132147994Y-70970896D01*
X132329860Y-70841173D01*
X132488096Y-70683489D01*
X132618453Y-70502077D01*
X132634611Y-70469384D01*
X132682725Y-70417177D01*
X132751426Y-70399270D01*
X132773766Y-70401965D01*
X132798049Y-70407127D01*
X132798058Y-70407128D01*
X132804513Y-70408500D01*
X132995487Y-70408500D01*
X133001939Y-70407128D01*
X133001944Y-70407128D01*
X133088887Y-70388647D01*
X133182288Y-70368794D01*
X133322309Y-70306453D01*
X133350722Y-70293803D01*
X133350724Y-70293802D01*
X133356752Y-70291118D01*
X133511253Y-70178866D01*
X133639040Y-70036944D01*
X133734527Y-69871556D01*
X133793542Y-69689928D01*
X133813504Y-69500000D01*
X133812814Y-69493435D01*
X133794232Y-69316635D01*
X133794232Y-69316633D01*
X133793542Y-69310072D01*
X133734527Y-69128444D01*
X133639040Y-68963056D01*
X133620206Y-68942138D01*
X133515675Y-68826045D01*
X133515674Y-68826044D01*
X133511253Y-68821134D01*
X133356752Y-68708882D01*
X133350724Y-68706198D01*
X133350722Y-68706197D01*
X133188319Y-68633891D01*
X133188318Y-68633891D01*
X133182288Y-68631206D01*
X133065567Y-68606396D01*
X133001944Y-68592872D01*
X133001939Y-68592872D01*
X132995487Y-68591500D01*
X132904239Y-68591500D01*
X132836118Y-68571498D01*
X132815144Y-68554595D01*
X132528282Y-68267733D01*
X132494256Y-68205421D01*
X132499321Y-68134606D01*
X132515055Y-68105112D01*
X132615004Y-67966020D01*
X132620313Y-67957183D01*
X132714670Y-67766267D01*
X132718469Y-67756672D01*
X132780377Y-67552910D01*
X132782555Y-67542837D01*
X132783986Y-67531962D01*
X132781775Y-67517778D01*
X132768617Y-67514000D01*
X92033225Y-67514000D01*
X92019694Y-67517973D01*
X92018257Y-67527966D01*
X92048565Y-67662446D01*
X92051645Y-67672275D01*
X92131770Y-67869603D01*
X92136413Y-67878794D01*
X92247694Y-68060388D01*
X92253777Y-68068699D01*
X92393213Y-68229667D01*
X92400577Y-68236879D01*
X92405522Y-68240985D01*
X92445156Y-68299889D01*
X92446653Y-68370870D01*
X92409537Y-68431392D01*
X92369264Y-68455910D01*
X92261705Y-68496232D01*
X92261704Y-68496233D01*
X92253295Y-68499385D01*
X92136739Y-68586739D01*
X92049385Y-68703295D01*
X91998255Y-68839684D01*
X91991500Y-68901866D01*
X91991500Y-70698134D01*
X88686057Y-70698134D01*
X88674492Y-66994183D01*
X92014389Y-66994183D01*
X92015912Y-67002607D01*
X92028292Y-67006000D01*
X93077885Y-67006000D01*
X93093124Y-67001525D01*
X93094329Y-67000135D01*
X93096000Y-66992452D01*
X93096000Y-66987885D01*
X93604000Y-66987885D01*
X93608475Y-67003124D01*
X93609865Y-67004329D01*
X93617548Y-67006000D01*
X95617885Y-67006000D01*
X95633124Y-67001525D01*
X95634329Y-67000135D01*
X95636000Y-66992452D01*
X95636000Y-66987885D01*
X96144000Y-66987885D01*
X96148475Y-67003124D01*
X96149865Y-67004329D01*
X96157548Y-67006000D01*
X98157885Y-67006000D01*
X98173124Y-67001525D01*
X98174329Y-67000135D01*
X98176000Y-66992452D01*
X98176000Y-66987885D01*
X98684000Y-66987885D01*
X98688475Y-67003124D01*
X98689865Y-67004329D01*
X98697548Y-67006000D01*
X100697885Y-67006000D01*
X100713124Y-67001525D01*
X100714329Y-67000135D01*
X100716000Y-66992452D01*
X100716000Y-66987885D01*
X101224000Y-66987885D01*
X101228475Y-67003124D01*
X101229865Y-67004329D01*
X101237548Y-67006000D01*
X103237885Y-67006000D01*
X103253124Y-67001525D01*
X103254329Y-67000135D01*
X103256000Y-66992452D01*
X103256000Y-66987885D01*
X103764000Y-66987885D01*
X103768475Y-67003124D01*
X103769865Y-67004329D01*
X103777548Y-67006000D01*
X105777885Y-67006000D01*
X105793124Y-67001525D01*
X105794329Y-67000135D01*
X105796000Y-66992452D01*
X105796000Y-66987885D01*
X106304000Y-66987885D01*
X106308475Y-67003124D01*
X106309865Y-67004329D01*
X106317548Y-67006000D01*
X108317885Y-67006000D01*
X108333124Y-67001525D01*
X108334329Y-67000135D01*
X108336000Y-66992452D01*
X108336000Y-66987885D01*
X108844000Y-66987885D01*
X108848475Y-67003124D01*
X108849865Y-67004329D01*
X108857548Y-67006000D01*
X110857885Y-67006000D01*
X110873124Y-67001525D01*
X110874329Y-67000135D01*
X110876000Y-66992452D01*
X110876000Y-66987885D01*
X111384000Y-66987885D01*
X111388475Y-67003124D01*
X111389865Y-67004329D01*
X111397548Y-67006000D01*
X113397885Y-67006000D01*
X113413124Y-67001525D01*
X113414329Y-67000135D01*
X113416000Y-66992452D01*
X113416000Y-66987885D01*
X113924000Y-66987885D01*
X113928475Y-67003124D01*
X113929865Y-67004329D01*
X113937548Y-67006000D01*
X115937885Y-67006000D01*
X115953124Y-67001525D01*
X115954329Y-67000135D01*
X115956000Y-66992452D01*
X115956000Y-66987885D01*
X116464000Y-66987885D01*
X116468475Y-67003124D01*
X116469865Y-67004329D01*
X116477548Y-67006000D01*
X118477885Y-67006000D01*
X118493124Y-67001525D01*
X118494329Y-67000135D01*
X118496000Y-66992452D01*
X118496000Y-66987885D01*
X119004000Y-66987885D01*
X119008475Y-67003124D01*
X119009865Y-67004329D01*
X119017548Y-67006000D01*
X121017885Y-67006000D01*
X121033124Y-67001525D01*
X121034329Y-67000135D01*
X121036000Y-66992452D01*
X121036000Y-66987885D01*
X121544000Y-66987885D01*
X121548475Y-67003124D01*
X121549865Y-67004329D01*
X121557548Y-67006000D01*
X123557885Y-67006000D01*
X123573124Y-67001525D01*
X123574329Y-67000135D01*
X123576000Y-66992452D01*
X123576000Y-66987885D01*
X124084000Y-66987885D01*
X124088475Y-67003124D01*
X124089865Y-67004329D01*
X124097548Y-67006000D01*
X126097885Y-67006000D01*
X126113124Y-67001525D01*
X126114329Y-67000135D01*
X126116000Y-66992452D01*
X126116000Y-66987885D01*
X126624000Y-66987885D01*
X126628475Y-67003124D01*
X126629865Y-67004329D01*
X126637548Y-67006000D01*
X128637885Y-67006000D01*
X128653124Y-67001525D01*
X128654329Y-67000135D01*
X128656000Y-66992452D01*
X128656000Y-66987885D01*
X129164000Y-66987885D01*
X129168475Y-67003124D01*
X129169865Y-67004329D01*
X129177548Y-67006000D01*
X131177885Y-67006000D01*
X131193124Y-67001525D01*
X131194329Y-67000135D01*
X131196000Y-66992452D01*
X131196000Y-66987885D01*
X131704000Y-66987885D01*
X131708475Y-67003124D01*
X131709865Y-67004329D01*
X131717548Y-67006000D01*
X132768344Y-67006000D01*
X132781875Y-67002027D01*
X132783002Y-66994183D01*
X149464389Y-66994183D01*
X149465912Y-67002607D01*
X149478292Y-67006000D01*
X150527885Y-67006000D01*
X150543124Y-67001525D01*
X150544329Y-67000135D01*
X150546000Y-66992452D01*
X150546000Y-66987885D01*
X151054000Y-66987885D01*
X151058475Y-67003124D01*
X151059865Y-67004329D01*
X151067548Y-67006000D01*
X153067885Y-67006000D01*
X153083124Y-67001525D01*
X153084329Y-67000135D01*
X153086000Y-66992452D01*
X153086000Y-66987885D01*
X153594000Y-66987885D01*
X153598475Y-67003124D01*
X153599865Y-67004329D01*
X153607548Y-67006000D01*
X155607885Y-67006000D01*
X155623124Y-67001525D01*
X155624329Y-67000135D01*
X155626000Y-66992452D01*
X155626000Y-66987885D01*
X156134000Y-66987885D01*
X156138475Y-67003124D01*
X156139865Y-67004329D01*
X156147548Y-67006000D01*
X158147885Y-67006000D01*
X158163124Y-67001525D01*
X158164329Y-67000135D01*
X158166000Y-66992452D01*
X158166000Y-66987885D01*
X158674000Y-66987885D01*
X158678475Y-67003124D01*
X158679865Y-67004329D01*
X158687548Y-67006000D01*
X160687885Y-67006000D01*
X160703124Y-67001525D01*
X160704329Y-67000135D01*
X160706000Y-66992452D01*
X160706000Y-66987885D01*
X161214000Y-66987885D01*
X161218475Y-67003124D01*
X161219865Y-67004329D01*
X161227548Y-67006000D01*
X163227885Y-67006000D01*
X163243124Y-67001525D01*
X163244329Y-67000135D01*
X163246000Y-66992452D01*
X163246000Y-66987885D01*
X163754000Y-66987885D01*
X163758475Y-67003124D01*
X163759865Y-67004329D01*
X163767548Y-67006000D01*
X165767885Y-67006000D01*
X165783124Y-67001525D01*
X165784329Y-67000135D01*
X165786000Y-66992452D01*
X165786000Y-66987885D01*
X166294000Y-66987885D01*
X166298475Y-67003124D01*
X166299865Y-67004329D01*
X166307548Y-67006000D01*
X168307885Y-67006000D01*
X168323124Y-67001525D01*
X168324329Y-67000135D01*
X168326000Y-66992452D01*
X168326000Y-66987885D01*
X168834000Y-66987885D01*
X168838475Y-67003124D01*
X168839865Y-67004329D01*
X168847548Y-67006000D01*
X170847885Y-67006000D01*
X170863124Y-67001525D01*
X170864329Y-67000135D01*
X170866000Y-66992452D01*
X170866000Y-66987885D01*
X171374000Y-66987885D01*
X171378475Y-67003124D01*
X171379865Y-67004329D01*
X171387548Y-67006000D01*
X173387885Y-67006000D01*
X173403124Y-67001525D01*
X173404329Y-67000135D01*
X173406000Y-66992452D01*
X173406000Y-66987885D01*
X173914000Y-66987885D01*
X173918475Y-67003124D01*
X173919865Y-67004329D01*
X173927548Y-67006000D01*
X175927885Y-67006000D01*
X175943124Y-67001525D01*
X175944329Y-67000135D01*
X175946000Y-66992452D01*
X175946000Y-66987885D01*
X176454000Y-66987885D01*
X176458475Y-67003124D01*
X176459865Y-67004329D01*
X176467548Y-67006000D01*
X178467885Y-67006000D01*
X178483124Y-67001525D01*
X178484329Y-67000135D01*
X178486000Y-66992452D01*
X178486000Y-66987885D01*
X178994000Y-66987885D01*
X178998475Y-67003124D01*
X178999865Y-67004329D01*
X179007548Y-67006000D01*
X181007885Y-67006000D01*
X181023124Y-67001525D01*
X181024329Y-67000135D01*
X181026000Y-66992452D01*
X181026000Y-66987885D01*
X181534000Y-66987885D01*
X181538475Y-67003124D01*
X181539865Y-67004329D01*
X181547548Y-67006000D01*
X183547885Y-67006000D01*
X183563124Y-67001525D01*
X183564329Y-67000135D01*
X183566000Y-66992452D01*
X183566000Y-66987885D01*
X184074000Y-66987885D01*
X184078475Y-67003124D01*
X184079865Y-67004329D01*
X184087548Y-67006000D01*
X186087885Y-67006000D01*
X186103124Y-67001525D01*
X186104329Y-67000135D01*
X186106000Y-66992452D01*
X186106000Y-66987885D01*
X186614000Y-66987885D01*
X186618475Y-67003124D01*
X186619865Y-67004329D01*
X186627548Y-67006000D01*
X188627885Y-67006000D01*
X188643124Y-67001525D01*
X188644329Y-67000135D01*
X188646000Y-66992452D01*
X188646000Y-66987885D01*
X189154000Y-66987885D01*
X189158475Y-67003124D01*
X189159865Y-67004329D01*
X189167548Y-67006000D01*
X190218344Y-67006000D01*
X190231875Y-67002027D01*
X190233180Y-66992947D01*
X190191214Y-66825875D01*
X190187894Y-66816124D01*
X190102972Y-66620814D01*
X190098105Y-66611739D01*
X189982426Y-66432926D01*
X189976136Y-66424757D01*
X189832806Y-66267240D01*
X189825273Y-66260215D01*
X189658139Y-66128222D01*
X189649552Y-66122517D01*
X189463117Y-66019599D01*
X189453705Y-66015369D01*
X189252959Y-65944280D01*
X189242988Y-65941646D01*
X189171837Y-65928972D01*
X189158540Y-65930432D01*
X189154000Y-65944989D01*
X189154000Y-66987885D01*
X188646000Y-66987885D01*
X188646000Y-65943102D01*
X188642082Y-65929758D01*
X188627806Y-65927771D01*
X188589324Y-65933660D01*
X188579288Y-65936051D01*
X188376868Y-66002212D01*
X188367359Y-66006209D01*
X188178463Y-66104542D01*
X188169738Y-66110036D01*
X187999433Y-66237905D01*
X187991726Y-66244748D01*
X187844590Y-66398717D01*
X187838104Y-66406727D01*
X187733193Y-66560521D01*
X187678282Y-66605524D01*
X187607757Y-66613695D01*
X187544010Y-66582441D01*
X187523313Y-66557957D01*
X187442427Y-66432926D01*
X187436136Y-66424757D01*
X187292806Y-66267240D01*
X187285273Y-66260215D01*
X187118139Y-66128222D01*
X187109552Y-66122517D01*
X186923117Y-66019599D01*
X186913705Y-66015369D01*
X186712959Y-65944280D01*
X186702988Y-65941646D01*
X186631837Y-65928972D01*
X186618540Y-65930432D01*
X186614000Y-65944989D01*
X186614000Y-66987885D01*
X186106000Y-66987885D01*
X186106000Y-65943102D01*
X186102082Y-65929758D01*
X186087806Y-65927771D01*
X186049324Y-65933660D01*
X186039288Y-65936051D01*
X185836868Y-66002212D01*
X185827359Y-66006209D01*
X185638463Y-66104542D01*
X185629738Y-66110036D01*
X185459433Y-66237905D01*
X185451726Y-66244748D01*
X185304590Y-66398717D01*
X185298104Y-66406727D01*
X185193193Y-66560521D01*
X185138282Y-66605524D01*
X185067757Y-66613695D01*
X185004010Y-66582441D01*
X184983313Y-66557957D01*
X184902427Y-66432926D01*
X184896136Y-66424757D01*
X184752806Y-66267240D01*
X184745273Y-66260215D01*
X184578139Y-66128222D01*
X184569552Y-66122517D01*
X184383117Y-66019599D01*
X184373705Y-66015369D01*
X184172959Y-65944280D01*
X184162988Y-65941646D01*
X184091837Y-65928972D01*
X184078540Y-65930432D01*
X184074000Y-65944989D01*
X184074000Y-66987885D01*
X183566000Y-66987885D01*
X183566000Y-65943102D01*
X183562082Y-65929758D01*
X183547806Y-65927771D01*
X183509324Y-65933660D01*
X183499288Y-65936051D01*
X183296868Y-66002212D01*
X183287359Y-66006209D01*
X183098463Y-66104542D01*
X183089738Y-66110036D01*
X182919433Y-66237905D01*
X182911726Y-66244748D01*
X182764590Y-66398717D01*
X182758104Y-66406727D01*
X182653193Y-66560521D01*
X182598282Y-66605524D01*
X182527757Y-66613695D01*
X182464010Y-66582441D01*
X182443313Y-66557957D01*
X182362427Y-66432926D01*
X182356136Y-66424757D01*
X182212806Y-66267240D01*
X182205273Y-66260215D01*
X182038139Y-66128222D01*
X182029552Y-66122517D01*
X181843117Y-66019599D01*
X181833705Y-66015369D01*
X181632959Y-65944280D01*
X181622988Y-65941646D01*
X181551837Y-65928972D01*
X181538540Y-65930432D01*
X181534000Y-65944989D01*
X181534000Y-66987885D01*
X181026000Y-66987885D01*
X181026000Y-65943102D01*
X181022082Y-65929758D01*
X181007806Y-65927771D01*
X180969324Y-65933660D01*
X180959288Y-65936051D01*
X180756868Y-66002212D01*
X180747359Y-66006209D01*
X180558463Y-66104542D01*
X180549738Y-66110036D01*
X180379433Y-66237905D01*
X180371726Y-66244748D01*
X180224590Y-66398717D01*
X180218104Y-66406727D01*
X180113193Y-66560521D01*
X180058282Y-66605524D01*
X179987757Y-66613695D01*
X179924010Y-66582441D01*
X179903313Y-66557957D01*
X179822427Y-66432926D01*
X179816136Y-66424757D01*
X179672806Y-66267240D01*
X179665273Y-66260215D01*
X179498139Y-66128222D01*
X179489552Y-66122517D01*
X179303117Y-66019599D01*
X179293705Y-66015369D01*
X179092959Y-65944280D01*
X179082988Y-65941646D01*
X179011837Y-65928972D01*
X178998540Y-65930432D01*
X178994000Y-65944989D01*
X178994000Y-66987885D01*
X178486000Y-66987885D01*
X178486000Y-65943102D01*
X178482082Y-65929758D01*
X178467806Y-65927771D01*
X178429324Y-65933660D01*
X178419288Y-65936051D01*
X178216868Y-66002212D01*
X178207359Y-66006209D01*
X178018463Y-66104542D01*
X178009738Y-66110036D01*
X177839433Y-66237905D01*
X177831726Y-66244748D01*
X177684590Y-66398717D01*
X177678104Y-66406727D01*
X177573193Y-66560521D01*
X177518282Y-66605524D01*
X177447757Y-66613695D01*
X177384010Y-66582441D01*
X177363313Y-66557957D01*
X177282427Y-66432926D01*
X177276136Y-66424757D01*
X177132806Y-66267240D01*
X177125273Y-66260215D01*
X176958139Y-66128222D01*
X176949552Y-66122517D01*
X176763117Y-66019599D01*
X176753705Y-66015369D01*
X176552959Y-65944280D01*
X176542988Y-65941646D01*
X176471837Y-65928972D01*
X176458540Y-65930432D01*
X176454000Y-65944989D01*
X176454000Y-66987885D01*
X175946000Y-66987885D01*
X175946000Y-65943102D01*
X175942082Y-65929758D01*
X175927806Y-65927771D01*
X175889324Y-65933660D01*
X175879288Y-65936051D01*
X175676868Y-66002212D01*
X175667359Y-66006209D01*
X175478463Y-66104542D01*
X175469738Y-66110036D01*
X175299433Y-66237905D01*
X175291726Y-66244748D01*
X175144590Y-66398717D01*
X175138104Y-66406727D01*
X175033193Y-66560521D01*
X174978282Y-66605524D01*
X174907757Y-66613695D01*
X174844010Y-66582441D01*
X174823313Y-66557957D01*
X174742427Y-66432926D01*
X174736136Y-66424757D01*
X174592806Y-66267240D01*
X174585273Y-66260215D01*
X174418139Y-66128222D01*
X174409552Y-66122517D01*
X174223117Y-66019599D01*
X174213705Y-66015369D01*
X174012959Y-65944280D01*
X174002988Y-65941646D01*
X173931837Y-65928972D01*
X173918540Y-65930432D01*
X173914000Y-65944989D01*
X173914000Y-66987885D01*
X173406000Y-66987885D01*
X173406000Y-65943102D01*
X173402082Y-65929758D01*
X173387806Y-65927771D01*
X173349324Y-65933660D01*
X173339288Y-65936051D01*
X173136868Y-66002212D01*
X173127359Y-66006209D01*
X172938463Y-66104542D01*
X172929738Y-66110036D01*
X172759433Y-66237905D01*
X172751726Y-66244748D01*
X172604590Y-66398717D01*
X172598104Y-66406727D01*
X172493193Y-66560521D01*
X172438282Y-66605524D01*
X172367757Y-66613695D01*
X172304010Y-66582441D01*
X172283313Y-66557957D01*
X172202427Y-66432926D01*
X172196136Y-66424757D01*
X172052806Y-66267240D01*
X172045273Y-66260215D01*
X171878139Y-66128222D01*
X171869552Y-66122517D01*
X171683117Y-66019599D01*
X171673705Y-66015369D01*
X171472959Y-65944280D01*
X171462988Y-65941646D01*
X171391837Y-65928972D01*
X171378540Y-65930432D01*
X171374000Y-65944989D01*
X171374000Y-66987885D01*
X170866000Y-66987885D01*
X170866000Y-65943102D01*
X170862082Y-65929758D01*
X170847806Y-65927771D01*
X170809324Y-65933660D01*
X170799288Y-65936051D01*
X170596868Y-66002212D01*
X170587359Y-66006209D01*
X170398463Y-66104542D01*
X170389738Y-66110036D01*
X170219433Y-66237905D01*
X170211726Y-66244748D01*
X170064590Y-66398717D01*
X170058104Y-66406727D01*
X169953193Y-66560521D01*
X169898282Y-66605524D01*
X169827757Y-66613695D01*
X169764010Y-66582441D01*
X169743313Y-66557957D01*
X169662427Y-66432926D01*
X169656136Y-66424757D01*
X169512806Y-66267240D01*
X169505273Y-66260215D01*
X169338139Y-66128222D01*
X169329552Y-66122517D01*
X169143117Y-66019599D01*
X169133705Y-66015369D01*
X168932959Y-65944280D01*
X168922988Y-65941646D01*
X168851837Y-65928972D01*
X168838540Y-65930432D01*
X168834000Y-65944989D01*
X168834000Y-66987885D01*
X168326000Y-66987885D01*
X168326000Y-65943102D01*
X168322082Y-65929758D01*
X168307806Y-65927771D01*
X168269324Y-65933660D01*
X168259288Y-65936051D01*
X168056868Y-66002212D01*
X168047359Y-66006209D01*
X167858463Y-66104542D01*
X167849738Y-66110036D01*
X167679433Y-66237905D01*
X167671726Y-66244748D01*
X167524590Y-66398717D01*
X167518104Y-66406727D01*
X167413193Y-66560521D01*
X167358282Y-66605524D01*
X167287757Y-66613695D01*
X167224010Y-66582441D01*
X167203313Y-66557957D01*
X167122427Y-66432926D01*
X167116136Y-66424757D01*
X166972806Y-66267240D01*
X166965273Y-66260215D01*
X166798139Y-66128222D01*
X166789552Y-66122517D01*
X166603117Y-66019599D01*
X166593705Y-66015369D01*
X166392959Y-65944280D01*
X166382988Y-65941646D01*
X166311837Y-65928972D01*
X166298540Y-65930432D01*
X166294000Y-65944989D01*
X166294000Y-66987885D01*
X165786000Y-66987885D01*
X165786000Y-65943102D01*
X165782082Y-65929758D01*
X165767806Y-65927771D01*
X165729324Y-65933660D01*
X165719288Y-65936051D01*
X165516868Y-66002212D01*
X165507359Y-66006209D01*
X165318463Y-66104542D01*
X165309738Y-66110036D01*
X165139433Y-66237905D01*
X165131726Y-66244748D01*
X164984590Y-66398717D01*
X164978104Y-66406727D01*
X164873193Y-66560521D01*
X164818282Y-66605524D01*
X164747757Y-66613695D01*
X164684010Y-66582441D01*
X164663313Y-66557957D01*
X164582427Y-66432926D01*
X164576136Y-66424757D01*
X164432806Y-66267240D01*
X164425273Y-66260215D01*
X164258139Y-66128222D01*
X164249552Y-66122517D01*
X164063117Y-66019599D01*
X164053705Y-66015369D01*
X163852959Y-65944280D01*
X163842988Y-65941646D01*
X163771837Y-65928972D01*
X163758540Y-65930432D01*
X163754000Y-65944989D01*
X163754000Y-66987885D01*
X163246000Y-66987885D01*
X163246000Y-65943102D01*
X163242082Y-65929758D01*
X163227806Y-65927771D01*
X163189324Y-65933660D01*
X163179288Y-65936051D01*
X162976868Y-66002212D01*
X162967359Y-66006209D01*
X162778463Y-66104542D01*
X162769738Y-66110036D01*
X162599433Y-66237905D01*
X162591726Y-66244748D01*
X162444590Y-66398717D01*
X162438104Y-66406727D01*
X162333193Y-66560521D01*
X162278282Y-66605524D01*
X162207757Y-66613695D01*
X162144010Y-66582441D01*
X162123313Y-66557957D01*
X162042427Y-66432926D01*
X162036136Y-66424757D01*
X161892806Y-66267240D01*
X161885273Y-66260215D01*
X161718139Y-66128222D01*
X161709552Y-66122517D01*
X161523117Y-66019599D01*
X161513705Y-66015369D01*
X161312959Y-65944280D01*
X161302988Y-65941646D01*
X161231837Y-65928972D01*
X161218540Y-65930432D01*
X161214000Y-65944989D01*
X161214000Y-66987885D01*
X160706000Y-66987885D01*
X160706000Y-65943102D01*
X160702082Y-65929758D01*
X160687806Y-65927771D01*
X160649324Y-65933660D01*
X160639288Y-65936051D01*
X160436868Y-66002212D01*
X160427359Y-66006209D01*
X160238463Y-66104542D01*
X160229738Y-66110036D01*
X160059433Y-66237905D01*
X160051726Y-66244748D01*
X159904590Y-66398717D01*
X159898104Y-66406727D01*
X159793193Y-66560521D01*
X159738282Y-66605524D01*
X159667757Y-66613695D01*
X159604010Y-66582441D01*
X159583313Y-66557957D01*
X159502427Y-66432926D01*
X159496136Y-66424757D01*
X159352806Y-66267240D01*
X159345273Y-66260215D01*
X159178139Y-66128222D01*
X159169552Y-66122517D01*
X158983117Y-66019599D01*
X158973705Y-66015369D01*
X158772959Y-65944280D01*
X158762988Y-65941646D01*
X158691837Y-65928972D01*
X158678540Y-65930432D01*
X158674000Y-65944989D01*
X158674000Y-66987885D01*
X158166000Y-66987885D01*
X158166000Y-65943102D01*
X158162082Y-65929758D01*
X158147806Y-65927771D01*
X158109324Y-65933660D01*
X158099288Y-65936051D01*
X157896868Y-66002212D01*
X157887359Y-66006209D01*
X157698463Y-66104542D01*
X157689738Y-66110036D01*
X157519433Y-66237905D01*
X157511726Y-66244748D01*
X157364590Y-66398717D01*
X157358104Y-66406727D01*
X157253193Y-66560521D01*
X157198282Y-66605524D01*
X157127757Y-66613695D01*
X157064010Y-66582441D01*
X157043313Y-66557957D01*
X156962427Y-66432926D01*
X156956136Y-66424757D01*
X156812806Y-66267240D01*
X156805273Y-66260215D01*
X156638139Y-66128222D01*
X156629552Y-66122517D01*
X156443117Y-66019599D01*
X156433705Y-66015369D01*
X156232959Y-65944280D01*
X156222988Y-65941646D01*
X156151837Y-65928972D01*
X156138540Y-65930432D01*
X156134000Y-65944989D01*
X156134000Y-66987885D01*
X155626000Y-66987885D01*
X155626000Y-65943102D01*
X155622082Y-65929758D01*
X155607806Y-65927771D01*
X155569324Y-65933660D01*
X155559288Y-65936051D01*
X155356868Y-66002212D01*
X155347359Y-66006209D01*
X155158463Y-66104542D01*
X155149738Y-66110036D01*
X154979433Y-66237905D01*
X154971726Y-66244748D01*
X154824590Y-66398717D01*
X154818104Y-66406727D01*
X154713193Y-66560521D01*
X154658282Y-66605524D01*
X154587757Y-66613695D01*
X154524010Y-66582441D01*
X154503313Y-66557957D01*
X154422427Y-66432926D01*
X154416136Y-66424757D01*
X154272806Y-66267240D01*
X154265273Y-66260215D01*
X154098139Y-66128222D01*
X154089552Y-66122517D01*
X153903117Y-66019599D01*
X153893705Y-66015369D01*
X153692959Y-65944280D01*
X153682988Y-65941646D01*
X153611837Y-65928972D01*
X153598540Y-65930432D01*
X153594000Y-65944989D01*
X153594000Y-66987885D01*
X153086000Y-66987885D01*
X153086000Y-65943102D01*
X153082082Y-65929758D01*
X153067806Y-65927771D01*
X153029324Y-65933660D01*
X153019288Y-65936051D01*
X152816868Y-66002212D01*
X152807359Y-66006209D01*
X152618463Y-66104542D01*
X152609738Y-66110036D01*
X152439433Y-66237905D01*
X152431726Y-66244748D01*
X152284590Y-66398717D01*
X152278104Y-66406727D01*
X152173193Y-66560521D01*
X152118282Y-66605524D01*
X152047757Y-66613695D01*
X151984010Y-66582441D01*
X151963313Y-66557957D01*
X151882427Y-66432926D01*
X151876136Y-66424757D01*
X151732806Y-66267240D01*
X151725273Y-66260215D01*
X151558139Y-66128222D01*
X151549552Y-66122517D01*
X151363117Y-66019599D01*
X151353705Y-66015369D01*
X151152959Y-65944280D01*
X151142988Y-65941646D01*
X151071837Y-65928972D01*
X151058540Y-65930432D01*
X151054000Y-65944989D01*
X151054000Y-66987885D01*
X150546000Y-66987885D01*
X150546000Y-65943102D01*
X150542082Y-65929758D01*
X150527806Y-65927771D01*
X150489324Y-65933660D01*
X150479288Y-65936051D01*
X150276868Y-66002212D01*
X150267359Y-66006209D01*
X150078463Y-66104542D01*
X150069738Y-66110036D01*
X149899433Y-66237905D01*
X149891726Y-66244748D01*
X149744590Y-66398717D01*
X149738104Y-66406727D01*
X149618098Y-66582649D01*
X149613000Y-66591623D01*
X149523338Y-66784783D01*
X149519775Y-66794470D01*
X149464389Y-66994183D01*
X132783002Y-66994183D01*
X132783180Y-66992947D01*
X132741214Y-66825875D01*
X132737894Y-66816124D01*
X132652972Y-66620814D01*
X132648105Y-66611739D01*
X132532426Y-66432926D01*
X132526136Y-66424757D01*
X132382806Y-66267240D01*
X132375273Y-66260215D01*
X132208139Y-66128222D01*
X132199552Y-66122517D01*
X132013117Y-66019599D01*
X132003705Y-66015369D01*
X131802959Y-65944280D01*
X131792988Y-65941646D01*
X131721837Y-65928972D01*
X131708540Y-65930432D01*
X131704000Y-65944989D01*
X131704000Y-66987885D01*
X131196000Y-66987885D01*
X131196000Y-65943102D01*
X131192082Y-65929758D01*
X131177806Y-65927771D01*
X131139324Y-65933660D01*
X131129288Y-65936051D01*
X130926868Y-66002212D01*
X130917359Y-66006209D01*
X130728463Y-66104542D01*
X130719738Y-66110036D01*
X130549433Y-66237905D01*
X130541726Y-66244748D01*
X130394590Y-66398717D01*
X130388104Y-66406727D01*
X130283193Y-66560521D01*
X130228282Y-66605524D01*
X130157757Y-66613695D01*
X130094010Y-66582441D01*
X130073313Y-66557957D01*
X129992427Y-66432926D01*
X129986136Y-66424757D01*
X129842806Y-66267240D01*
X129835273Y-66260215D01*
X129668139Y-66128222D01*
X129659552Y-66122517D01*
X129473117Y-66019599D01*
X129463705Y-66015369D01*
X129262959Y-65944280D01*
X129252988Y-65941646D01*
X129181837Y-65928972D01*
X129168540Y-65930432D01*
X129164000Y-65944989D01*
X129164000Y-66987885D01*
X128656000Y-66987885D01*
X128656000Y-65943102D01*
X128652082Y-65929758D01*
X128637806Y-65927771D01*
X128599324Y-65933660D01*
X128589288Y-65936051D01*
X128386868Y-66002212D01*
X128377359Y-66006209D01*
X128188463Y-66104542D01*
X128179738Y-66110036D01*
X128009433Y-66237905D01*
X128001726Y-66244748D01*
X127854590Y-66398717D01*
X127848104Y-66406727D01*
X127743193Y-66560521D01*
X127688282Y-66605524D01*
X127617757Y-66613695D01*
X127554010Y-66582441D01*
X127533313Y-66557957D01*
X127452427Y-66432926D01*
X127446136Y-66424757D01*
X127302806Y-66267240D01*
X127295273Y-66260215D01*
X127128139Y-66128222D01*
X127119552Y-66122517D01*
X126933117Y-66019599D01*
X126923705Y-66015369D01*
X126722959Y-65944280D01*
X126712988Y-65941646D01*
X126641837Y-65928972D01*
X126628540Y-65930432D01*
X126624000Y-65944989D01*
X126624000Y-66987885D01*
X126116000Y-66987885D01*
X126116000Y-65943102D01*
X126112082Y-65929758D01*
X126097806Y-65927771D01*
X126059324Y-65933660D01*
X126049288Y-65936051D01*
X125846868Y-66002212D01*
X125837359Y-66006209D01*
X125648463Y-66104542D01*
X125639738Y-66110036D01*
X125469433Y-66237905D01*
X125461726Y-66244748D01*
X125314590Y-66398717D01*
X125308104Y-66406727D01*
X125203193Y-66560521D01*
X125148282Y-66605524D01*
X125077757Y-66613695D01*
X125014010Y-66582441D01*
X124993313Y-66557957D01*
X124912427Y-66432926D01*
X124906136Y-66424757D01*
X124762806Y-66267240D01*
X124755273Y-66260215D01*
X124588139Y-66128222D01*
X124579552Y-66122517D01*
X124393117Y-66019599D01*
X124383705Y-66015369D01*
X124182959Y-65944280D01*
X124172988Y-65941646D01*
X124101837Y-65928972D01*
X124088540Y-65930432D01*
X124084000Y-65944989D01*
X124084000Y-66987885D01*
X123576000Y-66987885D01*
X123576000Y-65943102D01*
X123572082Y-65929758D01*
X123557806Y-65927771D01*
X123519324Y-65933660D01*
X123509288Y-65936051D01*
X123306868Y-66002212D01*
X123297359Y-66006209D01*
X123108463Y-66104542D01*
X123099738Y-66110036D01*
X122929433Y-66237905D01*
X122921726Y-66244748D01*
X122774590Y-66398717D01*
X122768104Y-66406727D01*
X122663193Y-66560521D01*
X122608282Y-66605524D01*
X122537757Y-66613695D01*
X122474010Y-66582441D01*
X122453313Y-66557957D01*
X122372427Y-66432926D01*
X122366136Y-66424757D01*
X122222806Y-66267240D01*
X122215273Y-66260215D01*
X122048139Y-66128222D01*
X122039552Y-66122517D01*
X121853117Y-66019599D01*
X121843705Y-66015369D01*
X121642959Y-65944280D01*
X121632988Y-65941646D01*
X121561837Y-65928972D01*
X121548540Y-65930432D01*
X121544000Y-65944989D01*
X121544000Y-66987885D01*
X121036000Y-66987885D01*
X121036000Y-65943102D01*
X121032082Y-65929758D01*
X121017806Y-65927771D01*
X120979324Y-65933660D01*
X120969288Y-65936051D01*
X120766868Y-66002212D01*
X120757359Y-66006209D01*
X120568463Y-66104542D01*
X120559738Y-66110036D01*
X120389433Y-66237905D01*
X120381726Y-66244748D01*
X120234590Y-66398717D01*
X120228104Y-66406727D01*
X120123193Y-66560521D01*
X120068282Y-66605524D01*
X119997757Y-66613695D01*
X119934010Y-66582441D01*
X119913313Y-66557957D01*
X119832427Y-66432926D01*
X119826136Y-66424757D01*
X119682806Y-66267240D01*
X119675273Y-66260215D01*
X119508139Y-66128222D01*
X119499552Y-66122517D01*
X119313117Y-66019599D01*
X119303705Y-66015369D01*
X119102959Y-65944280D01*
X119092988Y-65941646D01*
X119021837Y-65928972D01*
X119008540Y-65930432D01*
X119004000Y-65944989D01*
X119004000Y-66987885D01*
X118496000Y-66987885D01*
X118496000Y-65943102D01*
X118492082Y-65929758D01*
X118477806Y-65927771D01*
X118439324Y-65933660D01*
X118429288Y-65936051D01*
X118226868Y-66002212D01*
X118217359Y-66006209D01*
X118028463Y-66104542D01*
X118019738Y-66110036D01*
X117849433Y-66237905D01*
X117841726Y-66244748D01*
X117694590Y-66398717D01*
X117688104Y-66406727D01*
X117583193Y-66560521D01*
X117528282Y-66605524D01*
X117457757Y-66613695D01*
X117394010Y-66582441D01*
X117373313Y-66557957D01*
X117292427Y-66432926D01*
X117286136Y-66424757D01*
X117142806Y-66267240D01*
X117135273Y-66260215D01*
X116968139Y-66128222D01*
X116959552Y-66122517D01*
X116773117Y-66019599D01*
X116763705Y-66015369D01*
X116562959Y-65944280D01*
X116552988Y-65941646D01*
X116481837Y-65928972D01*
X116468540Y-65930432D01*
X116464000Y-65944989D01*
X116464000Y-66987885D01*
X115956000Y-66987885D01*
X115956000Y-65943102D01*
X115952082Y-65929758D01*
X115937806Y-65927771D01*
X115899324Y-65933660D01*
X115889288Y-65936051D01*
X115686868Y-66002212D01*
X115677359Y-66006209D01*
X115488463Y-66104542D01*
X115479738Y-66110036D01*
X115309433Y-66237905D01*
X115301726Y-66244748D01*
X115154590Y-66398717D01*
X115148104Y-66406727D01*
X115043193Y-66560521D01*
X114988282Y-66605524D01*
X114917757Y-66613695D01*
X114854010Y-66582441D01*
X114833313Y-66557957D01*
X114752427Y-66432926D01*
X114746136Y-66424757D01*
X114602806Y-66267240D01*
X114595273Y-66260215D01*
X114428139Y-66128222D01*
X114419552Y-66122517D01*
X114233117Y-66019599D01*
X114223705Y-66015369D01*
X114022959Y-65944280D01*
X114012988Y-65941646D01*
X113941837Y-65928972D01*
X113928540Y-65930432D01*
X113924000Y-65944989D01*
X113924000Y-66987885D01*
X113416000Y-66987885D01*
X113416000Y-65943102D01*
X113412082Y-65929758D01*
X113397806Y-65927771D01*
X113359324Y-65933660D01*
X113349288Y-65936051D01*
X113146868Y-66002212D01*
X113137359Y-66006209D01*
X112948463Y-66104542D01*
X112939738Y-66110036D01*
X112769433Y-66237905D01*
X112761726Y-66244748D01*
X112614590Y-66398717D01*
X112608104Y-66406727D01*
X112503193Y-66560521D01*
X112448282Y-66605524D01*
X112377757Y-66613695D01*
X112314010Y-66582441D01*
X112293313Y-66557957D01*
X112212427Y-66432926D01*
X112206136Y-66424757D01*
X112062806Y-66267240D01*
X112055273Y-66260215D01*
X111888139Y-66128222D01*
X111879552Y-66122517D01*
X111693117Y-66019599D01*
X111683705Y-66015369D01*
X111482959Y-65944280D01*
X111472988Y-65941646D01*
X111401837Y-65928972D01*
X111388540Y-65930432D01*
X111384000Y-65944989D01*
X111384000Y-66987885D01*
X110876000Y-66987885D01*
X110876000Y-65943102D01*
X110872082Y-65929758D01*
X110857806Y-65927771D01*
X110819324Y-65933660D01*
X110809288Y-65936051D01*
X110606868Y-66002212D01*
X110597359Y-66006209D01*
X110408463Y-66104542D01*
X110399738Y-66110036D01*
X110229433Y-66237905D01*
X110221726Y-66244748D01*
X110074590Y-66398717D01*
X110068104Y-66406727D01*
X109963193Y-66560521D01*
X109908282Y-66605524D01*
X109837757Y-66613695D01*
X109774010Y-66582441D01*
X109753313Y-66557957D01*
X109672427Y-66432926D01*
X109666136Y-66424757D01*
X109522806Y-66267240D01*
X109515273Y-66260215D01*
X109348139Y-66128222D01*
X109339552Y-66122517D01*
X109153117Y-66019599D01*
X109143705Y-66015369D01*
X108942959Y-65944280D01*
X108932988Y-65941646D01*
X108861837Y-65928972D01*
X108848540Y-65930432D01*
X108844000Y-65944989D01*
X108844000Y-66987885D01*
X108336000Y-66987885D01*
X108336000Y-65943102D01*
X108332082Y-65929758D01*
X108317806Y-65927771D01*
X108279324Y-65933660D01*
X108269288Y-65936051D01*
X108066868Y-66002212D01*
X108057359Y-66006209D01*
X107868463Y-66104542D01*
X107859738Y-66110036D01*
X107689433Y-66237905D01*
X107681726Y-66244748D01*
X107534590Y-66398717D01*
X107528104Y-66406727D01*
X107423193Y-66560521D01*
X107368282Y-66605524D01*
X107297757Y-66613695D01*
X107234010Y-66582441D01*
X107213313Y-66557957D01*
X107132427Y-66432926D01*
X107126136Y-66424757D01*
X106982806Y-66267240D01*
X106975273Y-66260215D01*
X106808139Y-66128222D01*
X106799552Y-66122517D01*
X106613117Y-66019599D01*
X106603705Y-66015369D01*
X106402959Y-65944280D01*
X106392988Y-65941646D01*
X106321837Y-65928972D01*
X106308540Y-65930432D01*
X106304000Y-65944989D01*
X106304000Y-66987885D01*
X105796000Y-66987885D01*
X105796000Y-65943102D01*
X105792082Y-65929758D01*
X105777806Y-65927771D01*
X105739324Y-65933660D01*
X105729288Y-65936051D01*
X105526868Y-66002212D01*
X105517359Y-66006209D01*
X105328463Y-66104542D01*
X105319738Y-66110036D01*
X105149433Y-66237905D01*
X105141726Y-66244748D01*
X104994590Y-66398717D01*
X104988104Y-66406727D01*
X104883193Y-66560521D01*
X104828282Y-66605524D01*
X104757757Y-66613695D01*
X104694010Y-66582441D01*
X104673313Y-66557957D01*
X104592427Y-66432926D01*
X104586136Y-66424757D01*
X104442806Y-66267240D01*
X104435273Y-66260215D01*
X104268139Y-66128222D01*
X104259552Y-66122517D01*
X104073117Y-66019599D01*
X104063705Y-66015369D01*
X103862959Y-65944280D01*
X103852988Y-65941646D01*
X103781837Y-65928972D01*
X103768540Y-65930432D01*
X103764000Y-65944989D01*
X103764000Y-66987885D01*
X103256000Y-66987885D01*
X103256000Y-65943102D01*
X103252082Y-65929758D01*
X103237806Y-65927771D01*
X103199324Y-65933660D01*
X103189288Y-65936051D01*
X102986868Y-66002212D01*
X102977359Y-66006209D01*
X102788463Y-66104542D01*
X102779738Y-66110036D01*
X102609433Y-66237905D01*
X102601726Y-66244748D01*
X102454590Y-66398717D01*
X102448104Y-66406727D01*
X102343193Y-66560521D01*
X102288282Y-66605524D01*
X102217757Y-66613695D01*
X102154010Y-66582441D01*
X102133313Y-66557957D01*
X102052427Y-66432926D01*
X102046136Y-66424757D01*
X101902806Y-66267240D01*
X101895273Y-66260215D01*
X101728139Y-66128222D01*
X101719552Y-66122517D01*
X101533117Y-66019599D01*
X101523705Y-66015369D01*
X101322959Y-65944280D01*
X101312988Y-65941646D01*
X101241837Y-65928972D01*
X101228540Y-65930432D01*
X101224000Y-65944989D01*
X101224000Y-66987885D01*
X100716000Y-66987885D01*
X100716000Y-65943102D01*
X100712082Y-65929758D01*
X100697806Y-65927771D01*
X100659324Y-65933660D01*
X100649288Y-65936051D01*
X100446868Y-66002212D01*
X100437359Y-66006209D01*
X100248463Y-66104542D01*
X100239738Y-66110036D01*
X100069433Y-66237905D01*
X100061726Y-66244748D01*
X99914590Y-66398717D01*
X99908104Y-66406727D01*
X99803193Y-66560521D01*
X99748282Y-66605524D01*
X99677757Y-66613695D01*
X99614010Y-66582441D01*
X99593313Y-66557957D01*
X99512427Y-66432926D01*
X99506136Y-66424757D01*
X99362806Y-66267240D01*
X99355273Y-66260215D01*
X99188139Y-66128222D01*
X99179552Y-66122517D01*
X98993117Y-66019599D01*
X98983705Y-66015369D01*
X98782959Y-65944280D01*
X98772988Y-65941646D01*
X98701837Y-65928972D01*
X98688540Y-65930432D01*
X98684000Y-65944989D01*
X98684000Y-66987885D01*
X98176000Y-66987885D01*
X98176000Y-65943102D01*
X98172082Y-65929758D01*
X98157806Y-65927771D01*
X98119324Y-65933660D01*
X98109288Y-65936051D01*
X97906868Y-66002212D01*
X97897359Y-66006209D01*
X97708463Y-66104542D01*
X97699738Y-66110036D01*
X97529433Y-66237905D01*
X97521726Y-66244748D01*
X97374590Y-66398717D01*
X97368104Y-66406727D01*
X97263193Y-66560521D01*
X97208282Y-66605524D01*
X97137757Y-66613695D01*
X97074010Y-66582441D01*
X97053313Y-66557957D01*
X96972427Y-66432926D01*
X96966136Y-66424757D01*
X96822806Y-66267240D01*
X96815273Y-66260215D01*
X96648139Y-66128222D01*
X96639552Y-66122517D01*
X96453117Y-66019599D01*
X96443705Y-66015369D01*
X96242959Y-65944280D01*
X96232988Y-65941646D01*
X96161837Y-65928972D01*
X96148540Y-65930432D01*
X96144000Y-65944989D01*
X96144000Y-66987885D01*
X95636000Y-66987885D01*
X95636000Y-65943102D01*
X95632082Y-65929758D01*
X95617806Y-65927771D01*
X95579324Y-65933660D01*
X95569288Y-65936051D01*
X95366868Y-66002212D01*
X95357359Y-66006209D01*
X95168463Y-66104542D01*
X95159738Y-66110036D01*
X94989433Y-66237905D01*
X94981726Y-66244748D01*
X94834590Y-66398717D01*
X94828104Y-66406727D01*
X94723193Y-66560521D01*
X94668282Y-66605524D01*
X94597757Y-66613695D01*
X94534010Y-66582441D01*
X94513313Y-66557957D01*
X94432427Y-66432926D01*
X94426136Y-66424757D01*
X94282806Y-66267240D01*
X94275273Y-66260215D01*
X94108139Y-66128222D01*
X94099552Y-66122517D01*
X93913117Y-66019599D01*
X93903705Y-66015369D01*
X93702959Y-65944280D01*
X93692988Y-65941646D01*
X93621837Y-65928972D01*
X93608540Y-65930432D01*
X93604000Y-65944989D01*
X93604000Y-66987885D01*
X93096000Y-66987885D01*
X93096000Y-65943102D01*
X93092082Y-65929758D01*
X93077806Y-65927771D01*
X93039324Y-65933660D01*
X93029288Y-65936051D01*
X92826868Y-66002212D01*
X92817359Y-66006209D01*
X92628463Y-66104542D01*
X92619738Y-66110036D01*
X92449433Y-66237905D01*
X92441726Y-66244748D01*
X92294590Y-66398717D01*
X92288104Y-66406727D01*
X92168098Y-66582649D01*
X92163000Y-66591623D01*
X92073338Y-66784783D01*
X92069775Y-66794470D01*
X92014389Y-66994183D01*
X88674492Y-66994183D01*
X88650578Y-59334893D01*
X88670367Y-59266711D01*
X88723877Y-59220050D01*
X88776577Y-59208500D01*
X129210000Y-59208500D01*
X192465682Y-59299735D01*
G37*
%TD.AperFunction*%
%TA.AperFunction,Conductor*%
G36*
X140722469Y-92980807D02*
G01*
X140748467Y-92983631D01*
X140748471Y-92983631D01*
X140751866Y-92984000D01*
X141448134Y-92984000D01*
X141451529Y-92983631D01*
X141451533Y-92983631D01*
X141477531Y-92980807D01*
X141486394Y-92979844D01*
X141513606Y-92979844D01*
X141522469Y-92980807D01*
X141548467Y-92983631D01*
X141548471Y-92983631D01*
X141551866Y-92984000D01*
X141960500Y-92984000D01*
X142028621Y-93004002D01*
X142075114Y-93057658D01*
X142086500Y-93110000D01*
X142086500Y-93585877D01*
X142066498Y-93653998D01*
X142012842Y-93700491D01*
X142004729Y-93703859D01*
X141911705Y-93738732D01*
X141911704Y-93738733D01*
X141903295Y-93741885D01*
X141881159Y-93758475D01*
X141875148Y-93762980D01*
X141808642Y-93787828D01*
X141739259Y-93772775D01*
X141724018Y-93762980D01*
X141703649Y-93747714D01*
X141688054Y-93739176D01*
X141567606Y-93694022D01*
X141552351Y-93690395D01*
X141501486Y-93684869D01*
X141494672Y-93684500D01*
X141177115Y-93684500D01*
X141161876Y-93688975D01*
X141160671Y-93690365D01*
X141159000Y-93698048D01*
X141159000Y-94745500D01*
X141138998Y-94813621D01*
X141085342Y-94860114D01*
X141033000Y-94871500D01*
X140777000Y-94871500D01*
X140708879Y-94851498D01*
X140662386Y-94797842D01*
X140651000Y-94745500D01*
X140651000Y-93702616D01*
X140646525Y-93687377D01*
X140645135Y-93686172D01*
X140637452Y-93684501D01*
X140384500Y-93684501D01*
X140316379Y-93664499D01*
X140269886Y-93610843D01*
X140258500Y-93558501D01*
X140258500Y-93110000D01*
X140278502Y-93041879D01*
X140332158Y-92995386D01*
X140384500Y-92984000D01*
X140648134Y-92984000D01*
X140651529Y-92983631D01*
X140651533Y-92983631D01*
X140677531Y-92980807D01*
X140686394Y-92979844D01*
X140713606Y-92979844D01*
X140722469Y-92980807D01*
G37*
%TD.AperFunction*%
%TA.AperFunction,Conductor*%
G36*
X140275825Y-81370448D02*
G01*
X140326054Y-81420623D01*
X140341500Y-81481069D01*
X140341500Y-81963001D01*
X140324619Y-82026000D01*
X140265473Y-82128444D01*
X140206458Y-82310072D01*
X140205768Y-82316633D01*
X140205768Y-82316635D01*
X140195922Y-82410316D01*
X140186496Y-82500000D01*
X140187186Y-82506565D01*
X140203218Y-82659098D01*
X140206458Y-82689928D01*
X140265473Y-82871556D01*
X140360960Y-83036944D01*
X140365378Y-83041851D01*
X140365379Y-83041852D01*
X140381598Y-83059865D01*
X140488747Y-83178866D01*
X140643248Y-83291118D01*
X140649276Y-83293802D01*
X140649278Y-83293803D01*
X140756954Y-83341743D01*
X140817712Y-83368794D01*
X140911113Y-83388647D01*
X140998056Y-83407128D01*
X140998061Y-83407128D01*
X141004513Y-83408500D01*
X141195487Y-83408500D01*
X141201939Y-83407128D01*
X141201944Y-83407128D01*
X141288887Y-83388647D01*
X141382288Y-83368794D01*
X141443046Y-83341743D01*
X141550722Y-83293803D01*
X141550724Y-83293802D01*
X141556752Y-83291118D01*
X141711253Y-83178866D01*
X141818402Y-83059865D01*
X141834621Y-83041852D01*
X141834622Y-83041851D01*
X141839040Y-83036944D01*
X141934527Y-82871556D01*
X141993542Y-82689928D01*
X141996783Y-82659098D01*
X142012814Y-82506565D01*
X142013504Y-82500000D01*
X142004078Y-82410316D01*
X141994232Y-82316635D01*
X141994232Y-82316633D01*
X141993542Y-82310072D01*
X141934527Y-82128444D01*
X141875381Y-82026000D01*
X141858500Y-81963001D01*
X141858500Y-81634000D01*
X141878502Y-81565879D01*
X141932158Y-81519386D01*
X141984500Y-81508000D01*
X142248134Y-81508000D01*
X142251529Y-81507631D01*
X142251533Y-81507631D01*
X142277531Y-81504807D01*
X142286394Y-81503844D01*
X142313606Y-81503844D01*
X142322469Y-81504807D01*
X142348467Y-81507631D01*
X142348471Y-81507631D01*
X142351866Y-81508000D01*
X143048134Y-81508000D01*
X143051529Y-81507631D01*
X143051533Y-81507631D01*
X143077531Y-81504807D01*
X143086394Y-81503844D01*
X143113606Y-81503844D01*
X143122469Y-81504807D01*
X143148467Y-81507631D01*
X143148471Y-81507631D01*
X143151866Y-81508000D01*
X143848134Y-81508000D01*
X143851529Y-81507631D01*
X143851533Y-81507631D01*
X143877531Y-81504807D01*
X143886394Y-81503844D01*
X143913606Y-81503844D01*
X143922469Y-81504807D01*
X143948467Y-81507631D01*
X143948471Y-81507631D01*
X143951866Y-81508000D01*
X144648134Y-81508000D01*
X144651529Y-81507631D01*
X144651533Y-81507631D01*
X144677531Y-81504807D01*
X144686394Y-81503844D01*
X144713606Y-81503844D01*
X144722469Y-81504807D01*
X144748467Y-81507631D01*
X144748471Y-81507631D01*
X144751866Y-81508000D01*
X145448134Y-81508000D01*
X145453736Y-81507391D01*
X145454250Y-81507484D01*
X145454928Y-81507447D01*
X145454937Y-81507607D01*
X145523616Y-81519917D01*
X145575634Y-81568236D01*
X145593271Y-81637007D01*
X145592610Y-81646246D01*
X145592000Y-81651866D01*
X145592000Y-82348134D01*
X145596409Y-82388720D01*
X145596409Y-82415933D01*
X145592869Y-82448517D01*
X145592500Y-82455328D01*
X145592500Y-82527885D01*
X145596975Y-82543124D01*
X145598365Y-82544329D01*
X145611910Y-82547275D01*
X145674222Y-82581299D01*
X145685944Y-82594818D01*
X145737239Y-82663261D01*
X145785160Y-82699176D01*
X145827673Y-82756033D01*
X145832699Y-82826851D01*
X145798639Y-82889145D01*
X145785170Y-82900817D01*
X145737239Y-82936739D01*
X145685414Y-83005889D01*
X145628554Y-83048403D01*
X145620087Y-83051219D01*
X145595377Y-83058475D01*
X145594172Y-83059865D01*
X145592501Y-83067548D01*
X145592501Y-83144670D01*
X145592870Y-83151488D01*
X145596409Y-83184067D01*
X145596409Y-83211280D01*
X145592000Y-83251866D01*
X145592000Y-83377673D01*
X145571998Y-83445794D01*
X145518342Y-83492287D01*
X145448068Y-83502391D01*
X145439802Y-83500919D01*
X145401951Y-83492873D01*
X145401942Y-83492872D01*
X145395487Y-83491500D01*
X145204513Y-83491500D01*
X145198061Y-83492872D01*
X145198056Y-83492872D01*
X145111112Y-83511353D01*
X145017712Y-83531206D01*
X145011682Y-83533891D01*
X145011681Y-83533891D01*
X144849278Y-83606197D01*
X144849276Y-83606198D01*
X144843248Y-83608882D01*
X144688747Y-83721134D01*
X144684326Y-83726044D01*
X144684325Y-83726045D01*
X144609403Y-83809255D01*
X144560960Y-83863056D01*
X144465473Y-84028444D01*
X144406458Y-84210072D01*
X144405768Y-84216633D01*
X144405768Y-84216635D01*
X144390964Y-84357485D01*
X144386496Y-84400000D01*
X144387186Y-84406565D01*
X144401225Y-84540135D01*
X144406458Y-84589928D01*
X144465473Y-84771556D01*
X144560960Y-84936944D01*
X144565378Y-84941851D01*
X144565379Y-84941852D01*
X144670154Y-85058216D01*
X144688747Y-85078866D01*
X144776099Y-85142331D01*
X144814156Y-85169981D01*
X144843248Y-85191118D01*
X144849276Y-85193802D01*
X144849278Y-85193803D01*
X144985872Y-85254618D01*
X145017712Y-85268794D01*
X145111113Y-85288647D01*
X145198056Y-85307128D01*
X145198061Y-85307128D01*
X145204513Y-85308500D01*
X145395487Y-85308500D01*
X145401942Y-85307128D01*
X145401951Y-85307127D01*
X145439802Y-85299081D01*
X145510593Y-85304482D01*
X145567226Y-85347298D01*
X145591720Y-85413936D01*
X145592000Y-85422327D01*
X145592000Y-85548134D01*
X145592369Y-85551529D01*
X145592369Y-85551533D01*
X145596156Y-85586393D01*
X145596156Y-85613606D01*
X145592000Y-85651866D01*
X145592000Y-85915500D01*
X145571998Y-85983621D01*
X145518342Y-86030114D01*
X145466000Y-86041500D01*
X144542587Y-86041500D01*
X144468528Y-86017437D01*
X144462098Y-86012765D01*
X144462091Y-86012761D01*
X144456752Y-86008882D01*
X144450724Y-86006198D01*
X144450722Y-86006197D01*
X144288319Y-85933891D01*
X144288318Y-85933891D01*
X144282288Y-85931206D01*
X144188887Y-85911353D01*
X144101944Y-85892872D01*
X144101939Y-85892872D01*
X144095487Y-85891500D01*
X143904513Y-85891500D01*
X143898061Y-85892872D01*
X143898056Y-85892872D01*
X143811113Y-85911353D01*
X143717712Y-85931206D01*
X143711682Y-85933891D01*
X143711681Y-85933891D01*
X143549278Y-86006197D01*
X143549276Y-86006198D01*
X143543248Y-86008882D01*
X143537907Y-86012762D01*
X143537906Y-86012763D01*
X143531473Y-86017437D01*
X143388747Y-86121134D01*
X143384326Y-86126044D01*
X143384325Y-86126045D01*
X143326580Y-86190178D01*
X143260960Y-86263056D01*
X143165473Y-86428444D01*
X143106458Y-86610072D01*
X143105768Y-86616633D01*
X143105768Y-86616635D01*
X143095495Y-86714382D01*
X143086496Y-86800000D01*
X143087186Y-86806565D01*
X143102458Y-86951866D01*
X143106458Y-86989928D01*
X143165473Y-87171556D01*
X143168776Y-87177278D01*
X143168777Y-87177279D01*
X143199933Y-87231243D01*
X143260960Y-87336944D01*
X143265378Y-87341851D01*
X143265379Y-87341852D01*
X143357833Y-87444533D01*
X143388747Y-87478866D01*
X143487501Y-87550615D01*
X143537904Y-87587235D01*
X143543248Y-87591118D01*
X143549276Y-87593802D01*
X143549278Y-87593803D01*
X143707872Y-87664413D01*
X143717712Y-87668794D01*
X143811112Y-87688647D01*
X143898056Y-87707128D01*
X143898061Y-87707128D01*
X143904513Y-87708500D01*
X144095487Y-87708500D01*
X144101939Y-87707128D01*
X144101944Y-87707128D01*
X144188888Y-87688647D01*
X144282288Y-87668794D01*
X144292128Y-87664413D01*
X144450722Y-87593803D01*
X144450724Y-87593802D01*
X144456752Y-87591118D01*
X144462091Y-87587239D01*
X144462098Y-87587235D01*
X144468528Y-87582563D01*
X144542587Y-87558500D01*
X145618931Y-87558500D01*
X145687052Y-87578502D01*
X145733545Y-87632158D01*
X145743649Y-87702432D01*
X145719758Y-87760064D01*
X145685414Y-87805889D01*
X145628554Y-87848403D01*
X145620087Y-87851219D01*
X145595377Y-87858475D01*
X145594172Y-87859865D01*
X145592501Y-87867548D01*
X145592501Y-87944670D01*
X145592870Y-87951488D01*
X145596409Y-87984067D01*
X145596409Y-88011280D01*
X145592000Y-88051866D01*
X145592000Y-88748134D01*
X145592369Y-88751529D01*
X145592369Y-88751533D01*
X145596156Y-88786393D01*
X145596156Y-88813607D01*
X145592777Y-88844717D01*
X145592000Y-88851866D01*
X145592000Y-89548134D01*
X145592369Y-89551529D01*
X145592369Y-89551533D01*
X145596156Y-89586393D01*
X145596156Y-89613606D01*
X145592000Y-89651866D01*
X145592000Y-89865500D01*
X145571998Y-89933621D01*
X145518342Y-89980114D01*
X145466000Y-89991500D01*
X145448136Y-89991500D01*
X145431693Y-89990422D01*
X145400000Y-89986250D01*
X145391811Y-89987328D01*
X145360126Y-89991499D01*
X145360117Y-89991500D01*
X145360115Y-89991500D01*
X145360109Y-89991501D01*
X145360107Y-89991501D01*
X145260543Y-90004609D01*
X145249336Y-90006084D01*
X145249334Y-90006085D01*
X145241149Y-90007162D01*
X145093124Y-90068476D01*
X144997928Y-90141523D01*
X144997925Y-90141526D01*
X144966013Y-90166013D01*
X144960983Y-90172568D01*
X144946548Y-90191379D01*
X144935681Y-90203770D01*
X144703766Y-90435685D01*
X144691374Y-90446553D01*
X144666078Y-90465963D01*
X144599858Y-90491563D01*
X144589375Y-90492000D01*
X143951866Y-90492000D01*
X143911280Y-90496409D01*
X143884067Y-90496409D01*
X143851483Y-90492869D01*
X143844672Y-90492500D01*
X143772115Y-90492500D01*
X143756876Y-90496975D01*
X143755671Y-90498365D01*
X143752725Y-90511910D01*
X143718701Y-90574222D01*
X143705182Y-90585944D01*
X143636739Y-90637239D01*
X143600824Y-90685160D01*
X143543967Y-90727673D01*
X143473149Y-90732699D01*
X143410855Y-90698639D01*
X143399183Y-90685170D01*
X143363261Y-90637239D01*
X143294111Y-90585414D01*
X143251597Y-90528554D01*
X143248781Y-90520087D01*
X143241525Y-90495377D01*
X143240135Y-90494172D01*
X143232452Y-90492501D01*
X143155330Y-90492501D01*
X143148512Y-90492870D01*
X143115933Y-90496409D01*
X143088720Y-90496409D01*
X143048134Y-90492000D01*
X142351866Y-90492000D01*
X142348471Y-90492369D01*
X142348467Y-90492369D01*
X142322469Y-90495193D01*
X142313606Y-90496156D01*
X142286394Y-90496156D01*
X142277531Y-90495193D01*
X142251533Y-90492369D01*
X142251529Y-90492369D01*
X142248134Y-90492000D01*
X141551866Y-90492000D01*
X141548471Y-90492369D01*
X141548467Y-90492369D01*
X141522469Y-90495193D01*
X141513606Y-90496156D01*
X141486394Y-90496156D01*
X141477531Y-90495193D01*
X141451533Y-90492369D01*
X141451529Y-90492369D01*
X141448134Y-90492000D01*
X140751866Y-90492000D01*
X140748471Y-90492369D01*
X140748467Y-90492369D01*
X140722469Y-90495193D01*
X140713606Y-90496156D01*
X140686394Y-90496156D01*
X140677531Y-90495193D01*
X140651533Y-90492369D01*
X140651529Y-90492369D01*
X140648134Y-90492000D01*
X140384500Y-90492000D01*
X140316379Y-90471998D01*
X140269886Y-90418342D01*
X140258500Y-90366000D01*
X140258500Y-89636999D01*
X140275381Y-89573999D01*
X140284345Y-89558474D01*
X140313126Y-89508623D01*
X140331223Y-89477279D01*
X140331224Y-89477278D01*
X140334527Y-89471556D01*
X140393542Y-89289928D01*
X140413504Y-89100000D01*
X140401154Y-88982492D01*
X140394232Y-88916635D01*
X140394232Y-88916633D01*
X140393542Y-88910072D01*
X140334527Y-88728444D01*
X140320282Y-88703770D01*
X140278912Y-88632116D01*
X140239040Y-88563056D01*
X140215793Y-88537237D01*
X140115675Y-88426045D01*
X140115674Y-88426044D01*
X140111253Y-88421134D01*
X140012157Y-88349136D01*
X139962094Y-88312763D01*
X139962093Y-88312762D01*
X139956752Y-88308882D01*
X139950724Y-88306198D01*
X139950722Y-88306197D01*
X139788319Y-88233891D01*
X139788318Y-88233891D01*
X139782288Y-88231206D01*
X139688888Y-88211353D01*
X139601944Y-88192872D01*
X139601939Y-88192872D01*
X139595487Y-88191500D01*
X139404513Y-88191500D01*
X139398061Y-88192872D01*
X139398056Y-88192872D01*
X139311112Y-88211353D01*
X139217712Y-88231206D01*
X139211682Y-88233891D01*
X139211681Y-88233891D01*
X139049278Y-88306197D01*
X139049276Y-88306198D01*
X139043248Y-88308882D01*
X139037907Y-88312762D01*
X139037906Y-88312763D01*
X138987843Y-88349136D01*
X138888747Y-88421134D01*
X138884326Y-88426044D01*
X138884325Y-88426045D01*
X138784208Y-88537237D01*
X138760960Y-88563056D01*
X138721088Y-88632116D01*
X138679719Y-88703770D01*
X138665473Y-88728444D01*
X138606458Y-88910072D01*
X138605768Y-88916633D01*
X138605768Y-88916635D01*
X138598846Y-88982492D01*
X138586496Y-89100000D01*
X138606458Y-89289928D01*
X138665473Y-89471556D01*
X138668776Y-89477278D01*
X138668777Y-89477279D01*
X138686874Y-89508623D01*
X138715656Y-89558474D01*
X138724619Y-89573999D01*
X138741500Y-89636999D01*
X138741500Y-90366000D01*
X138721498Y-90434121D01*
X138667842Y-90480614D01*
X138615500Y-90492000D01*
X138351866Y-90492000D01*
X138348471Y-90492369D01*
X138348467Y-90492369D01*
X138322469Y-90495193D01*
X138313606Y-90496156D01*
X138286394Y-90496156D01*
X138277531Y-90495193D01*
X138251533Y-90492369D01*
X138251529Y-90492369D01*
X138248134Y-90492000D01*
X137551866Y-90492000D01*
X137548471Y-90492369D01*
X137548467Y-90492369D01*
X137522469Y-90495193D01*
X137513606Y-90496156D01*
X137486394Y-90496156D01*
X137477531Y-90495193D01*
X137451533Y-90492369D01*
X137451529Y-90492369D01*
X137448134Y-90492000D01*
X136751866Y-90492000D01*
X136746264Y-90492609D01*
X136745750Y-90492516D01*
X136745072Y-90492553D01*
X136745063Y-90492393D01*
X136676384Y-90480083D01*
X136624366Y-90431764D01*
X136606729Y-90362993D01*
X136607390Y-90353754D01*
X136608000Y-90348134D01*
X136608000Y-89651866D01*
X136603844Y-89613606D01*
X136603844Y-89586393D01*
X136607631Y-89551533D01*
X136607631Y-89551529D01*
X136608000Y-89548134D01*
X136608000Y-88851866D01*
X136607224Y-88844717D01*
X136603844Y-88813607D01*
X136603844Y-88786393D01*
X136607631Y-88751533D01*
X136607631Y-88751529D01*
X136608000Y-88748134D01*
X136608000Y-88051866D01*
X136603591Y-88011280D01*
X136603591Y-87984065D01*
X136607131Y-87951481D01*
X136607500Y-87944672D01*
X136607500Y-87872115D01*
X136603025Y-87856876D01*
X136601635Y-87855671D01*
X136588090Y-87852725D01*
X136525778Y-87818701D01*
X136514056Y-87805182D01*
X136462761Y-87736739D01*
X136414840Y-87700824D01*
X136372327Y-87643967D01*
X136367301Y-87573149D01*
X136401361Y-87510855D01*
X136414830Y-87499183D01*
X136462761Y-87463261D01*
X136514586Y-87394111D01*
X136571446Y-87351597D01*
X136579913Y-87348781D01*
X136604623Y-87341525D01*
X136605828Y-87340135D01*
X136607499Y-87332452D01*
X136607499Y-87255330D01*
X136607130Y-87248509D01*
X136603591Y-87215930D01*
X136603591Y-87188716D01*
X136604834Y-87177279D01*
X136608000Y-87148134D01*
X136608000Y-86451866D01*
X136606139Y-86434729D01*
X136603844Y-86413607D01*
X136603844Y-86386393D01*
X136607631Y-86351533D01*
X136607631Y-86351529D01*
X136608000Y-86348134D01*
X136608000Y-85651866D01*
X136603844Y-85613606D01*
X136603844Y-85586393D01*
X136607631Y-85551533D01*
X136607631Y-85551529D01*
X136608000Y-85548134D01*
X136608000Y-84851866D01*
X136607472Y-84847000D01*
X136603844Y-84813607D01*
X136603844Y-84786393D01*
X136607631Y-84751533D01*
X136607631Y-84751529D01*
X136608000Y-84748134D01*
X136608000Y-84484500D01*
X136628002Y-84416379D01*
X136681658Y-84369886D01*
X136734000Y-84358500D01*
X137357413Y-84358500D01*
X137431472Y-84382563D01*
X137437902Y-84387235D01*
X137437909Y-84387239D01*
X137443248Y-84391118D01*
X137449276Y-84393802D01*
X137449278Y-84393803D01*
X137611681Y-84466109D01*
X137617712Y-84468794D01*
X137691603Y-84484500D01*
X137798056Y-84507128D01*
X137798061Y-84507128D01*
X137804513Y-84508500D01*
X137995487Y-84508500D01*
X138001939Y-84507128D01*
X138001944Y-84507128D01*
X138108397Y-84484500D01*
X138182288Y-84468794D01*
X138188319Y-84466109D01*
X138350722Y-84393803D01*
X138350724Y-84393802D01*
X138356752Y-84391118D01*
X138362097Y-84387235D01*
X138456104Y-84318934D01*
X138511253Y-84278866D01*
X138522066Y-84266857D01*
X138634621Y-84141852D01*
X138634622Y-84141851D01*
X138639040Y-84136944D01*
X138734527Y-83971556D01*
X138793542Y-83789928D01*
X138794574Y-83780114D01*
X138812814Y-83606565D01*
X138813504Y-83600000D01*
X138802100Y-83491500D01*
X138794232Y-83416635D01*
X138794232Y-83416633D01*
X138793542Y-83410072D01*
X138734527Y-83228444D01*
X138639040Y-83063056D01*
X138625847Y-83048403D01*
X138515675Y-82926045D01*
X138515674Y-82926044D01*
X138511253Y-82921134D01*
X138381484Y-82826851D01*
X138362094Y-82812763D01*
X138362093Y-82812762D01*
X138356752Y-82808882D01*
X138350724Y-82806198D01*
X138350722Y-82806197D01*
X138188319Y-82733891D01*
X138188318Y-82733891D01*
X138182288Y-82731206D01*
X138088887Y-82711353D01*
X138001944Y-82692872D01*
X138001939Y-82692872D01*
X137995487Y-82691500D01*
X137804513Y-82691500D01*
X137798061Y-82692872D01*
X137798056Y-82692872D01*
X137711113Y-82711353D01*
X137617712Y-82731206D01*
X137611682Y-82733891D01*
X137611681Y-82733891D01*
X137449278Y-82806197D01*
X137449276Y-82806198D01*
X137443248Y-82808882D01*
X137437909Y-82812761D01*
X137437902Y-82812765D01*
X137431472Y-82817437D01*
X137357413Y-82841500D01*
X137138172Y-82841500D01*
X137070051Y-82821498D01*
X137023558Y-82767842D01*
X137012172Y-82715500D01*
X137012172Y-82708188D01*
X137013250Y-82700000D01*
X137009078Y-82668307D01*
X137008000Y-82651864D01*
X137008000Y-81634000D01*
X137028002Y-81565879D01*
X137081658Y-81519386D01*
X137134000Y-81508000D01*
X137448134Y-81508000D01*
X137451529Y-81507631D01*
X137451533Y-81507631D01*
X137477531Y-81504807D01*
X137486394Y-81503844D01*
X137513606Y-81503844D01*
X137522469Y-81504807D01*
X137548467Y-81507631D01*
X137548471Y-81507631D01*
X137551866Y-81508000D01*
X138248134Y-81508000D01*
X138251529Y-81507631D01*
X138251533Y-81507631D01*
X138277531Y-81504807D01*
X138286394Y-81503844D01*
X138313606Y-81503844D01*
X138322469Y-81504807D01*
X138348467Y-81507631D01*
X138348471Y-81507631D01*
X138351866Y-81508000D01*
X139048134Y-81508000D01*
X139051529Y-81507631D01*
X139051533Y-81507631D01*
X139077531Y-81504807D01*
X139086394Y-81503844D01*
X139113606Y-81503844D01*
X139122469Y-81504807D01*
X139148467Y-81507631D01*
X139148471Y-81507631D01*
X139151866Y-81508000D01*
X139848134Y-81508000D01*
X139888720Y-81503591D01*
X139915933Y-81503591D01*
X139948517Y-81507131D01*
X139955328Y-81507500D01*
X140027885Y-81507500D01*
X140043124Y-81503025D01*
X140044329Y-81501635D01*
X140047275Y-81488090D01*
X140081299Y-81425778D01*
X140094826Y-81414051D01*
X140139936Y-81380242D01*
X140206442Y-81355395D01*
X140275825Y-81370448D01*
G37*
%TD.AperFunction*%
%TA.AperFunction,Conductor*%
G36*
X149309532Y-85430683D02*
G01*
X149366368Y-85473230D01*
X149391179Y-85539750D01*
X149391500Y-85548739D01*
X149391500Y-85871261D01*
X149371498Y-85939382D01*
X149354595Y-85960356D01*
X148299095Y-87015856D01*
X148236783Y-87049882D01*
X148165968Y-87044817D01*
X148109132Y-87002270D01*
X148084321Y-86935750D01*
X148084000Y-86926761D01*
X148084000Y-86592413D01*
X148104002Y-86524292D01*
X148133291Y-86492455D01*
X148177572Y-86458477D01*
X148177575Y-86458474D01*
X148209487Y-86433987D01*
X148218132Y-86422721D01*
X148228952Y-86408621D01*
X148239819Y-86396230D01*
X149176405Y-85459644D01*
X149238717Y-85425618D01*
X149309532Y-85430683D01*
G37*
%TD.AperFunction*%
%TA.AperFunction,Conductor*%
G36*
X133363882Y-76578502D02*
G01*
X133384856Y-76595405D01*
X135754095Y-78964644D01*
X135788121Y-79026956D01*
X135791000Y-79053739D01*
X135791000Y-81066000D01*
X135770998Y-81134121D01*
X135717342Y-81180614D01*
X135665000Y-81192000D01*
X135634115Y-81192000D01*
X135618876Y-81196475D01*
X135617671Y-81197865D01*
X135616000Y-81205548D01*
X135616000Y-81865500D01*
X135595998Y-81933621D01*
X135542342Y-81980114D01*
X135490000Y-81991500D01*
X135130137Y-81991500D01*
X135062016Y-81971498D01*
X135015523Y-81917842D01*
X135005419Y-81847568D01*
X135034913Y-81782988D01*
X135094639Y-81744604D01*
X135105124Y-81741525D01*
X135106329Y-81740135D01*
X135108000Y-81732452D01*
X135108000Y-81210116D01*
X135103525Y-81194877D01*
X135102135Y-81193672D01*
X135094452Y-81192001D01*
X134579831Y-81192001D01*
X134573010Y-81192371D01*
X134522148Y-81197895D01*
X134506896Y-81201521D01*
X134386446Y-81246676D01*
X134370851Y-81255214D01*
X134268776Y-81331715D01*
X134256215Y-81344276D01*
X134179714Y-81446351D01*
X134171176Y-81461946D01*
X134126022Y-81582394D01*
X134122395Y-81597649D01*
X134116869Y-81648514D01*
X134116500Y-81655328D01*
X134116500Y-81727885D01*
X134120975Y-81743124D01*
X134122365Y-81744329D01*
X134130048Y-81746000D01*
X134509708Y-81746000D01*
X134577829Y-81766002D01*
X134624322Y-81819658D01*
X134634426Y-81889932D01*
X134604932Y-81954512D01*
X134545206Y-81992896D01*
X134523315Y-81997263D01*
X134522040Y-81997401D01*
X134522036Y-81997402D01*
X134514184Y-81998255D01*
X134377795Y-82049385D01*
X134261239Y-82136739D01*
X134209414Y-82205889D01*
X134152554Y-82248403D01*
X134144087Y-82251219D01*
X134119377Y-82258475D01*
X134118172Y-82259865D01*
X134116501Y-82267548D01*
X134116501Y-82344670D01*
X134116870Y-82351488D01*
X134120409Y-82384067D01*
X134120409Y-82411280D01*
X134116000Y-82451866D01*
X134116000Y-83148134D01*
X134116369Y-83151529D01*
X134116369Y-83151533D01*
X134120156Y-83186393D01*
X134120156Y-83213607D01*
X134117862Y-83234729D01*
X134116000Y-83251866D01*
X134116000Y-83665500D01*
X134095998Y-83733621D01*
X134042342Y-83780114D01*
X133990000Y-83791500D01*
X133234500Y-83791500D01*
X133166379Y-83771498D01*
X133119886Y-83717842D01*
X133108500Y-83665500D01*
X133108500Y-79048136D01*
X133109578Y-79031690D01*
X133112672Y-79008188D01*
X133113750Y-79000000D01*
X133110276Y-78973607D01*
X133108500Y-78960120D01*
X133108500Y-78960115D01*
X133094891Y-78856741D01*
X133094890Y-78856739D01*
X133092838Y-78841150D01*
X133092838Y-78841149D01*
X133045440Y-78726719D01*
X133034684Y-78700752D01*
X133034683Y-78700750D01*
X133031524Y-78693124D01*
X132965562Y-78607162D01*
X132933987Y-78566013D01*
X132927437Y-78560987D01*
X132927434Y-78560984D01*
X132908620Y-78546548D01*
X132896229Y-78535681D01*
X131134144Y-76773595D01*
X131100118Y-76711283D01*
X131105183Y-76640467D01*
X131147730Y-76583632D01*
X131214250Y-76558821D01*
X131223239Y-76558500D01*
X133295761Y-76558500D01*
X133363882Y-76578502D01*
G37*
%TD.AperFunction*%
%TA.AperFunction,Conductor*%
G36*
X147309532Y-77476741D02*
G01*
X147366368Y-77519288D01*
X147391179Y-77585808D01*
X147391500Y-77594797D01*
X147391500Y-81065500D01*
X147371498Y-81133621D01*
X147317842Y-81180114D01*
X147265500Y-81191500D01*
X146052366Y-81191500D01*
X146046764Y-81192109D01*
X146046250Y-81192016D01*
X146045572Y-81192053D01*
X146045563Y-81191893D01*
X145976884Y-81179583D01*
X145924866Y-81131264D01*
X145907229Y-81062493D01*
X145907890Y-81053254D01*
X145908500Y-81047634D01*
X145908500Y-79476366D01*
X145901745Y-79414184D01*
X145850615Y-79277795D01*
X145763261Y-79161239D01*
X145756081Y-79155858D01*
X145749731Y-79149508D01*
X145751366Y-79147873D01*
X145716421Y-79101141D01*
X145708500Y-79057171D01*
X145708500Y-79025797D01*
X145728502Y-78957676D01*
X145745405Y-78936702D01*
X147176405Y-77505702D01*
X147238717Y-77471676D01*
X147309532Y-77476741D01*
G37*
%TD.AperFunction*%
%TA.AperFunction,Conductor*%
G36*
X136239382Y-74528502D02*
G01*
X136260356Y-74545405D01*
X140557047Y-78842096D01*
X140591073Y-78904408D01*
X140586008Y-78975223D01*
X140563177Y-79013703D01*
X140555671Y-79022365D01*
X140552725Y-79035910D01*
X140518701Y-79098222D01*
X140505182Y-79109944D01*
X140436739Y-79161239D01*
X140400824Y-79209160D01*
X140343967Y-79251673D01*
X140273149Y-79256699D01*
X140210855Y-79222639D01*
X140199183Y-79209170D01*
X140163261Y-79161239D01*
X140094111Y-79109414D01*
X140051597Y-79052554D01*
X140048781Y-79044087D01*
X140041525Y-79019377D01*
X140040135Y-79018172D01*
X140032452Y-79016501D01*
X139955330Y-79016501D01*
X139948517Y-79016870D01*
X139941739Y-79017606D01*
X139871857Y-79005074D01*
X139839043Y-78981437D01*
X136784010Y-75926405D01*
X135581199Y-74723595D01*
X135547174Y-74661283D01*
X135552238Y-74590468D01*
X135594785Y-74533632D01*
X135661305Y-74508821D01*
X135670294Y-74508500D01*
X136171261Y-74508500D01*
X136239382Y-74528502D01*
G37*
%TD.AperFunction*%
%TD*%
M02*
